<svg xmlns="http://www.w3.org/2000/svg" xmlns:xlink="http://www.w3.org/1999/xlink" width="900px" height="506px" style="shape-rendering:geometricPrecision; text-rendering:geometricPrecision; image-rendering:optimizeQuality; fill-rule:evenodd; clip-rule:evenodd"><g><path style="opacity:1" fill="#fefefe" d="M -0.5,-0.5 C 299.5,-0.5 599.5,-0.5 899.5,-0.5C 899.5,168.167 899.5,336.833 899.5,505.5C 599.5,505.5 299.5,505.5 -0.5,505.5C -0.5,336.833 -0.5,168.167 -0.5,-0.5 Z"></path></g><g><path style="opacity:1" fill="#020338" d="M 526.5,62.5 C 527.6,63.6049 528.267,64.9382 528.5,66.5C 526.958,65.6993 525.292,65.366 523.5,65.5C 523.38,67.7345 523.713,69.9011 524.5,72C 522.793,73.5093 521.127,75.0093 519.5,76.5C 517.833,76.5 516.167,76.5 514.5,76.5C 515.878,75.7656 517.378,75.0989 519,74.5C 520.586,66.5866 517.419,63.5866 509.5,65.5C 514.89,63.6247 520.556,62.6247 526.5,62.5 Z"></path></g><g><path style="opacity:1" fill="#080c2c" d="M 528.5,66.5 C 532.551,72.5811 533.551,79.2478 531.5,86.5C 531.5,87.1667 531.167,87.5 530.5,87.5C 531.833,78.8333 528.167,75.1667 519.5,76.5C 521.127,75.0093 522.793,73.5093 524.5,72C 523.713,69.9011 523.38,67.7345 523.5,65.5C 525.292,65.366 526.958,65.6993 528.5,66.5 Z"></path></g><g><path style="opacity:1" fill="#021668" d="M 509.5,65.5 C 517.419,63.5866 520.586,66.5866 519,74.5C 517.378,75.0989 515.878,75.7656 514.5,76.5C 513.791,77.404 512.791,77.7373 511.5,77.5C 510.624,77.6309 509.957,77.2975 509.5,76.5C 510.833,75.5 510.833,74.5 509.5,73.5C 506.731,71.9036 504.397,69.9036 502.5,67.5C 504.833,66.8333 507.167,66.1667 509.5,65.5 Z"></path></g><g><path style="opacity:1" fill="#0b8fc7" d="M 526.5,62.5 C 533.838,61.871 540.004,64.2043 545,69.5C 548.3,77.661 547.8,85.661 543.5,93.5C 542.213,91.2842 542.546,89.1176 544.5,87C 544.035,83.9981 543.201,81.1648 542,78.5C 540.417,78.493 538.751,78.8263 537,79.5C 536.333,78.1667 535.667,76.8333 535,75.5C 534.276,79.4273 533.109,83.094 531.5,86.5C 533.551,79.2478 532.551,72.5811 528.5,66.5C 528.267,64.9382 527.6,63.6049 526.5,62.5 Z"></path></g><g><path style="opacity:1" fill="#044d98" d="M 502.5,67.5 C 504.397,69.9036 506.731,71.9036 509.5,73.5C 510.833,74.5 510.833,75.5 509.5,76.5C 509.957,77.2975 510.624,77.6309 511.5,77.5C 509.786,78.7384 507.786,79.405 505.5,79.5C 504.519,77.6908 503.019,76.3574 501,75.5C 500.56,73.1341 500.06,70.8008 499.5,68.5C 500.609,68.4431 501.609,68.1098 502.5,67.5 Z"></path></g><g><path style="opacity:1" fill="#0c95d4" d="M 499.5,68.5 C 500.06,70.8008 500.56,73.1341 501,75.5C 503.019,76.3574 504.519,77.6908 505.5,79.5C 500.404,82.2051 495.071,84.5385 489.5,86.5C 488.039,87.6857 486.705,87.6857 485.5,86.5C 487.728,85.4073 490.061,84.4073 492.5,83.5C 488.622,82.1153 488.622,80.9486 492.5,80C 490.099,79.205 487.932,78.0383 486,76.5C 484.644,77.3802 483.144,77.7135 481.5,77.5C 487.187,73.9899 493.187,70.9899 499.5,68.5 Z"></path></g><g><path style="opacity:1" fill="#f9fcfc" d="M 514.5,76.5 C 516.167,76.5 517.833,76.5 519.5,76.5C 528.167,75.1667 531.833,78.8333 530.5,87.5C 529.566,88.5676 529.232,89.901 529.5,91.5C 527.685,95.7958 525.352,99.7958 522.5,103.5C 514.774,98.9705 506.774,94.9705 498.5,91.5C 496.319,89.9821 493.819,88.9821 491,88.5C 489.97,88.1639 489.47,87.4972 489.5,86.5C 495.071,84.5385 500.404,82.2051 505.5,79.5C 507.786,79.405 509.786,78.7384 511.5,77.5C 512.791,77.7373 513.791,77.404 514.5,76.5 Z"></path></g><g><path style="opacity:1" fill="#09aded" d="M 485.5,86.5 C 480.273,86.0217 475.273,85.0217 470.5,83.5C 470.5,83.1667 470.5,82.8333 470.5,82.5C 474.043,80.5617 477.71,78.8951 481.5,77.5C 483.144,77.7135 484.644,77.3802 486,76.5C 487.932,78.0383 490.099,79.205 492.5,80C 488.622,80.9486 488.622,82.1153 492.5,83.5C 490.061,84.4073 487.728,85.4073 485.5,86.5 Z"></path></g><g><path style="opacity:1" fill="#a5dbe6" d="M 470.5,83.5 C 475.273,85.0217 480.273,86.0217 485.5,86.5C 486.705,87.6857 488.039,87.6857 489.5,86.5C 489.47,87.4972 489.97,88.1639 491,88.5C 493.819,88.9821 496.319,89.9821 498.5,91.5C 497.957,91.56 497.624,91.8933 497.5,92.5C 501.2,99.1352 502.2,106.135 500.5,113.5C 499.167,113.5 497.833,113.5 496.5,113.5C 495.952,111.606 494.952,109.94 493.5,108.5C 488.545,107.315 484.211,105.648 480.5,103.5C 480.709,102.914 481.043,102.414 481.5,102C 480.5,100.333 479.5,98.6667 478.5,97C 476.527,96.5045 474.527,96.3379 472.5,96.5C 472.5,95.5 472.5,94.5 472.5,93.5C 469.751,93.7261 467.084,93.3928 464.5,92.5C 463.571,93.6888 463.238,95.0222 463.5,96.5C 460.833,96.5 458.167,96.5 455.5,96.5C 455.649,97.552 455.483,98.552 455,99.5C 453.874,98.0564 452.374,97.3898 450.5,97.5C 445.557,97.7918 440.557,97.9585 435.5,98C 437.708,98.1909 439.708,98.6909 441.5,99.5C 426.895,99.2085 412.895,101.709 399.5,107C 398.244,107.417 397.577,108.25 397.5,109.5C 394.958,108.376 392.292,107.542 389.5,107C 385.833,103.27 381.833,102.437 377.5,104.5C 377.953,103.542 378.619,102.708 379.5,102C 384.243,98.9617 389.243,96.4617 394.5,94.5C 397.528,94.6611 400.361,93.9944 403,92.5C 403.5,92.8333 404,93.1667 404.5,93.5C 402.833,94.5 401.5,95.8333 400.5,97.5C 402.781,98.1847 405.114,98.3513 407.5,98C 406.672,98.9147 405.672,99.5814 404.5,100C 406.274,101.756 407.941,101.756 409.5,100C 420.388,97.6933 431.388,96.5267 442.5,96.5C 442.09,92.4547 441.756,88.6213 441.5,85C 442.777,84.8726 443.943,85.3726 445,86.5C 446.646,84.8592 447.646,85.1925 448,87.5C 449.188,86.4366 449.688,85.1033 449.5,83.5C 456.5,83.5 463.5,83.5 470.5,83.5 Z"></path></g><g><path style="opacity:1" fill="#bae2e9" d="M 470.5,82.5 C 470.5,82.8333 470.5,83.1667 470.5,83.5C 463.5,83.5 456.5,83.5 449.5,83.5C 449.688,85.1033 449.188,86.4366 448,87.5C 447.646,85.1925 446.646,84.8592 445,86.5C 443.943,85.3726 442.777,84.8726 441.5,85C 441.756,88.6213 442.09,92.4547 442.5,96.5C 431.388,96.5267 420.388,97.6933 409.5,100C 407.941,101.756 406.274,101.756 404.5,100C 405.672,99.5814 406.672,98.9147 407.5,98C 405.114,98.3513 402.781,98.1847 400.5,97.5C 401.5,95.8333 402.833,94.5 404.5,93.5C 404,93.1667 403.5,92.8333 403,92.5C 400.361,93.9944 397.528,94.6611 394.5,94.5C 411.748,86.2265 430.081,81.8931 449.5,81.5C 456.49,82.0891 463.49,82.4224 470.5,82.5 Z"></path></g><g><path style="opacity:1" fill="#0ea4d6" d="M 543.5,93.5 C 543.008,95.8185 542.008,97.8185 540.5,99.5C 540.663,97.1432 540.497,94.8098 540,92.5C 538.6,93.1159 537.1,93.4493 535.5,93.5C 533.117,93.639 531.117,92.9723 529.5,91.5C 529.232,89.901 529.566,88.5676 530.5,87.5C 531.167,87.5 531.5,87.1667 531.5,86.5C 533.109,83.094 534.276,79.4273 535,75.5C 535.667,76.8333 536.333,78.1667 537,79.5C 538.751,78.8263 540.417,78.493 542,78.5C 543.201,81.1648 544.035,83.9981 544.5,87C 542.546,89.1176 542.213,91.2842 543.5,93.5 Z"></path></g><g><path style="opacity:1" fill="#04327e" d="M 498.5,91.5 C 506.774,94.9705 514.774,98.9705 522.5,103.5C 521.167,106.167 519.833,108.833 518.5,111.5C 509.588,125.087 500.255,138.42 490.5,151.5C 487.152,154.851 484.152,158.518 481.5,162.5C 480.272,163.306 479.272,164.306 478.5,165.5C 477.646,164.368 477.646,163.035 478.5,161.5C 480.787,156.891 483.454,152.558 486.5,148.5C 490.974,141.219 494.641,133.552 497.5,125.5C 498.924,123.485 499.59,121.152 499.5,118.5C 500.451,117.081 500.784,115.415 500.5,113.5C 502.2,106.135 501.2,99.1352 497.5,92.5C 497.624,91.8933 497.957,91.56 498.5,91.5 Z"></path></g><g><path style="opacity:1" fill="#84cfdb" d="M 496.5,113.5 C 491.756,113.725 488.09,115.892 485.5,120C 484.207,120.49 482.873,120.657 481.5,120.5C 475.618,120.307 469.618,119.307 463.5,117.5C 460.329,115.811 457.329,113.978 454.5,112C 451.174,111.828 447.841,111.995 444.5,112.5C 447.013,111.054 449.346,108.554 451.5,105C 449.606,103.899 448.939,102.566 449.5,101C 446.986,99.7475 444.32,99.2475 441.5,99.5C 439.708,98.6909 437.708,98.1909 435.5,98C 440.557,97.9585 445.557,97.7918 450.5,97.5C 452.374,97.3898 453.874,98.0564 455,99.5C 455.483,98.552 455.649,97.552 455.5,96.5C 458.167,96.5 460.833,96.5 463.5,96.5C 463.238,95.0222 463.571,93.6888 464.5,92.5C 467.084,93.3928 469.751,93.7261 472.5,93.5C 472.5,94.5 472.5,95.5 472.5,96.5C 474.527,96.3379 476.527,96.5045 478.5,97C 479.5,98.6667 480.5,100.333 481.5,102C 481.043,102.414 480.709,102.914 480.5,103.5C 484.211,105.648 488.545,107.315 493.5,108.5C 494.952,109.94 495.952,111.606 496.5,113.5 Z"></path></g><g><path style="opacity:1" fill="#2dbfe9" d="M 529.5,91.5 C 531.117,92.9723 533.117,93.639 535.5,93.5C 537.1,93.4493 538.6,93.1159 540,92.5C 540.497,94.8098 540.663,97.1432 540.5,99.5C 540.5,100.167 540.5,100.833 540.5,101.5C 538.847,104.131 537.181,106.797 535.5,109.5C 532.728,109.405 530.728,108.071 529.5,105.5C 528.15,106.95 526.484,107.617 524.5,107.5C 524.241,111.068 522.241,112.401 518.5,111.5C 519.833,108.833 521.167,106.167 522.5,103.5C 525.352,99.7958 527.685,95.7958 529.5,91.5 Z"></path></g><g><path style="opacity:1" fill="#959595" d="M 559.5,144.5 C 558.903,144.265 558.57,143.765 558.5,143C 559.504,141.202 560.004,139.368 560,137.5C 559.085,138.328 558.419,139.328 558,140.5C 554.096,139.096 550.096,138.096 546,137.5C 543.399,138.726 542.565,138.06 543.5,135.5C 542.311,134.571 540.978,134.238 539.5,134.5C 539.5,133.167 539.5,131.833 539.5,130.5C 536.606,130.958 534.106,130.291 532,128.5C 531.239,131.431 529.406,133.097 526.5,133.5C 532.752,123.33 538.752,112.997 544.5,102.5C 547.942,96.3633 551.109,90.03 554,83.5C 562.889,97.6202 566.556,112.954 565,129.5C 564.248,134.924 562.415,139.924 559.5,144.5 Z"></path></g><g><path style="opacity:1" fill="#77dde1" d="M 397.5,109.5 C 401.182,109.335 404.848,109.501 408.5,110C 409.5,111 410.5,112 411.5,113C 410.289,114.113 410.289,115.28 411.5,116.5C 405.352,118.956 399.019,120.956 392.5,122.5C 393.678,121.001 395.345,120.001 397.5,119.5C 390.854,117.671 384.188,115.838 377.5,114C 376.139,112.416 375.472,110.582 375.5,108.5C 373.315,108.704 371.315,109.37 369.5,110.5C 371.443,107.529 374.109,105.529 377.5,104.5C 381.833,102.437 385.833,103.27 389.5,107C 392.292,107.542 394.958,108.376 397.5,109.5 Z"></path></g><g><path style="opacity:1" fill="#f1f8f8" d="M 441.5,99.5 C 444.32,99.2475 446.986,99.7475 449.5,101C 448.939,102.566 449.606,103.899 451.5,105C 449.346,108.554 447.013,111.054 444.5,112.5C 442.842,113.181 441.175,114.015 439.5,115C 445.219,116.861 450.885,117.861 456.5,118C 454.941,118.98 453.274,119.813 451.5,120.5C 454.573,123.979 456.573,127.979 457.5,132.5C 456.127,153.074 453.127,173.407 448.5,193.5C 448.5,193.833 448.5,194.167 448.5,194.5C 447.384,201.861 446.051,209.194 444.5,216.5C 444.833,217.167 445.167,217.833 445.5,218.5C 454.18,211.151 462.513,203.485 470.5,195.5C 475.27,191.339 479.604,186.672 483.5,181.5C 486.392,178.729 489.058,175.729 491.5,172.5C 494.185,169.81 496.518,166.81 498.5,163.5C 512.324,146.516 524.658,128.516 535.5,109.5C 537.181,106.797 538.847,104.131 540.5,101.5C 540.66,105.236 541.493,105.236 543,101.5C 543.383,102.056 543.883,102.389 544.5,102.5C 538.752,112.997 532.752,123.33 526.5,133.5C 523.779,136.894 521.446,140.561 519.5,144.5C 516.025,148.104 513.025,152.104 510.5,156.5C 506.844,161.128 503.178,165.794 499.5,170.5C 491.562,179.775 483.229,188.775 474.5,197.5C 463.65,207.613 452.317,217.279 440.5,226.5C 440.167,225.5 439.833,224.5 439.5,223.5C 441.719,210.189 443.719,196.856 445.5,183.5C 448.675,171.13 451.008,158.464 452.5,145.5C 454.02,139.506 453.353,133.839 450.5,128.5C 450.16,125.325 448.493,123.159 445.5,122C 427.254,119.046 409.588,120.879 392.5,127.5C 375.24,132.031 358.24,137.365 341.5,143.5C 341.062,143.565 340.728,143.399 340.5,143C 344.456,141.886 344.456,141.053 340.5,140.5C 357.258,132.973 374.592,126.973 392.5,122.5C 399.019,120.956 405.352,118.956 411.5,116.5C 410.289,115.28 410.289,114.113 411.5,113C 410.5,112 409.5,111 408.5,110C 404.848,109.501 401.182,109.335 397.5,109.5C 397.577,108.25 398.244,107.417 399.5,107C 412.895,101.709 426.895,99.2085 441.5,99.5 Z"></path></g><g><path style="opacity:1" fill="#65a5c1" d="M 499.5,118.5 C 499.59,121.152 498.924,123.485 497.5,125.5C 496.602,124.842 495.602,124.176 494.5,123.5C 496.006,121.599 497.673,119.932 499.5,118.5 Z"></path></g><g><path style="opacity:1" fill="#33c0cc" d="M 481.5,120.5 C 480.167,121.833 480.167,123.167 481.5,124.5C 480.782,126.246 479.782,126.912 478.5,126.5C 480.4,131.942 479.067,133.275 474.5,130.5C 473.009,128.873 471.509,127.207 470,125.5C 468.405,126.356 467.572,127.689 467.5,129.5C 466.833,129.5 466.5,129.833 466.5,130.5C 464.368,130.554 463.035,131.554 462.5,133.5C 461.442,135.808 460.276,138.142 459,140.5C 458.817,137.635 458.317,134.969 457.5,132.5C 456.573,127.979 454.573,123.979 451.5,120.5C 453.274,119.813 454.941,118.98 456.5,118C 450.885,117.861 445.219,116.861 439.5,115C 441.175,114.015 442.842,113.181 444.5,112.5C 447.841,111.995 451.174,111.828 454.5,112C 457.329,113.978 460.329,115.811 463.5,117.5C 469.618,119.307 475.618,120.307 481.5,120.5 Z"></path></g><g><path style="opacity:1" fill="#22d4d6" d="M 392.5,122.5 C 374.592,126.973 357.258,132.973 340.5,140.5C 336.974,141.361 333.641,142.694 330.5,144.5C 329.494,144.062 329.494,143.396 330.5,142.5C 344.099,132.53 357.099,121.864 369.5,110.5C 371.315,109.37 373.315,108.704 375.5,108.5C 375.472,110.582 376.139,112.416 377.5,114C 384.188,115.838 390.854,117.671 397.5,119.5C 395.345,120.001 393.678,121.001 392.5,122.5 Z"></path></g><g><path style="opacity:1" fill="#cdf1f6" d="M 466.5,130.5 C 467.905,133.029 467.072,134.696 464,135.5C 462.97,135.164 462.47,134.497 462.5,133.5C 463.035,131.554 464.368,130.554 466.5,130.5 Z"></path></g><g><path style="opacity:1" fill="#cdecef" d="M 474.5,130.5 C 476.464,132.127 477.797,134.127 478.5,136.5C 476.143,136.663 473.81,136.497 471.5,136C 470.788,134.575 470.621,133.075 471,131.5C 470.667,131.833 470.333,132.167 470,132.5C 469.623,131.058 468.79,130.058 467.5,129.5C 467.572,127.689 468.405,126.356 470,125.5C 471.509,127.207 473.009,128.873 474.5,130.5 Z"></path></g><g><path style="opacity:1" fill="#a2a2a3" d="M 392.5,127.5 C 393.465,128.721 393.298,130.054 392,131.5C 388.242,129.527 386.075,130.527 385.5,134.5C 384.127,134.343 382.793,134.51 381.5,135C 381.784,136.956 381.784,139.123 381.5,141.5C 379.208,141.756 377.041,141.423 375,140.5C 373.951,142.107 372.451,142.773 370.5,142.5C 370.5,143.5 370.5,144.5 370.5,145.5C 369.5,145.5 368.5,145.5 367.5,145.5C 368.161,149.333 366.828,150.833 363.5,150C 362.167,150.667 362.167,151.333 363.5,152C 362.747,153.487 361.914,153.654 361,152.5C 359.513,153.253 359.346,154.086 360.5,155C 358.939,155.941 357.605,157.108 356.5,158.5C 357.602,159.176 358.602,159.842 359.5,160.5C 341.956,164.898 325.29,171.231 309.5,179.5C 304.661,181.17 300.161,183.503 296,186.5C 295.833,186 295.667,185.5 295.5,185C 301.941,172.556 310.607,161.889 321.5,153C 328.41,150.042 335.076,146.876 341.5,143.5C 358.24,137.365 375.24,132.031 392.5,127.5 Z"></path></g><g><path style="opacity:1" fill="#aaabac" d="M 450.5,128.5 C 449.288,127.77 448.288,126.77 447.5,125.5C 436.526,124.033 425.86,126.033 415.5,131.5C 413.729,132.988 412.396,134.821 411.5,137C 409.26,137.977 406.927,138.477 404.5,138.5C 404.5,139.5 404.5,140.5 404.5,141.5C 400.537,141.662 396.87,142.662 393.5,144.5C 393.769,146.429 393.269,148.095 392,149.5C 391.24,147.503 390.74,145.837 390.5,144.5C 389.928,146.917 388.928,149.084 387.5,151C 390.742,151.406 393.742,152.239 396.5,153.5C 383.732,153.654 371.399,155.987 359.5,160.5C 358.602,159.842 357.602,159.176 356.5,158.5C 357.605,157.108 358.939,155.941 360.5,155C 359.346,154.086 359.513,153.253 361,152.5C 361.914,153.654 362.747,153.487 363.5,152C 362.167,151.333 362.167,150.667 363.5,150C 366.828,150.833 368.161,149.333 367.5,145.5C 368.5,145.5 369.5,145.5 370.5,145.5C 370.5,144.5 370.5,143.5 370.5,142.5C 372.451,142.773 373.951,142.107 375,140.5C 377.041,141.423 379.208,141.756 381.5,141.5C 381.784,139.123 381.784,136.956 381.5,135C 382.793,134.51 384.127,134.343 385.5,134.5C 386.075,130.527 388.242,129.527 392,131.5C 393.298,130.054 393.465,128.721 392.5,127.5C 409.588,120.879 427.254,119.046 445.5,122C 448.493,123.159 450.16,125.325 450.5,128.5 Z"></path></g><g><path style="opacity:1" fill="#cbe4e9" d="M 496.5,113.5 C 497.833,113.5 499.167,113.5 500.5,113.5C 500.784,115.415 500.451,117.081 499.5,118.5C 497.673,119.932 496.006,121.599 494.5,123.5C 495.602,124.176 496.602,124.842 497.5,125.5C 494.641,133.552 490.974,141.219 486.5,148.5C 485.167,148.5 483.833,148.5 482.5,148.5C 480.267,151.269 478.6,154.436 477.5,158C 473.513,159.505 469.513,159.672 465.5,158.5C 465.33,155.397 464.996,152.23 464.5,149C 465.5,148.5 466.5,148 467.5,147.5C 470.084,148.393 472.751,148.726 475.5,148.5C 476.154,144.317 474.488,141.484 470.5,140C 473.167,139.333 475.833,138.667 478.5,138C 481.08,136.214 483.747,134.714 486.5,133.5C 486.67,132.178 486.337,131.011 485.5,130C 486.333,129.167 487.167,128.333 488,127.5C 489.301,131.502 489.968,131.502 490,127.5C 488.258,125.027 486.425,125.027 484.5,127.5C 482.484,127.484 481.484,126.484 481.5,124.5C 480.167,123.167 480.167,121.833 481.5,120.5C 482.873,120.657 484.207,120.49 485.5,120C 488.09,115.892 491.756,113.725 496.5,113.5 Z"></path></g><g><path style="opacity:1" fill="#bababe" d="M 450.5,128.5 C 453.353,133.839 454.02,139.506 452.5,145.5C 451.542,145.047 450.708,144.381 450,143.5C 449.667,144.167 449.333,144.833 449,145.5C 447.364,141.989 446.197,141.656 445.5,144.5C 444.232,143.572 442.899,143.405 441.5,144C 441.833,144.333 442.167,144.667 442.5,145C 438.113,145.226 433.779,145.726 429.5,146.5C 428.325,145.145 427.325,145.312 426.5,147C 421.864,148.067 417.198,148.9 412.5,149.5C 412.67,150.822 412.337,151.989 411.5,153C 409.19,153.497 406.857,153.663 404.5,153.5C 404.512,156.142 403.179,157.475 400.5,157.5C 399.473,155.806 398.139,154.473 396.5,153.5C 393.742,152.239 390.742,151.406 387.5,151C 388.928,149.084 389.928,146.917 390.5,144.5C 390.74,145.837 391.24,147.503 392,149.5C 393.269,148.095 393.769,146.429 393.5,144.5C 396.87,142.662 400.537,141.662 404.5,141.5C 404.5,140.5 404.5,139.5 404.5,138.5C 406.927,138.477 409.26,137.977 411.5,137C 412.396,134.821 413.729,132.988 415.5,131.5C 425.86,126.033 436.526,124.033 447.5,125.5C 448.288,126.77 449.288,127.77 450.5,128.5 Z"></path></g><g><path style="opacity:1" fill="#6bdaf8" d="M 535.5,109.5 C 524.658,128.516 512.324,146.516 498.5,163.5C 498.214,160.07 496.38,157.736 493,156.5C 492.215,154.751 491.382,153.084 490.5,151.5C 500.255,138.42 509.588,125.087 518.5,111.5C 522.241,112.401 524.241,111.068 524.5,107.5C 526.484,107.617 528.15,106.95 529.5,105.5C 530.728,108.071 532.728,109.405 535.5,109.5 Z"></path></g><g><path style="opacity:1" fill="#a2a2a3" d="M 559.5,144.5 C 554.331,153.508 548.664,162.175 542.5,170.5C 541.957,170.44 541.624,170.107 541.5,169.5C 544.348,166.506 543.681,164.506 539.5,163.5C 539.92,161.674 539.92,159.674 539.5,157.5C 536.873,156.908 534.206,156.575 531.5,156.5C 531.5,154.833 531.5,153.167 531.5,151.5C 530.5,151.5 529.5,151.5 528.5,151.5C 528.785,149.712 528.452,148.045 527.5,146.5C 524.689,145.92 522.023,145.254 519.5,144.5C 521.446,140.561 523.779,136.894 526.5,133.5C 529.406,133.097 531.239,131.431 532,128.5C 534.106,130.291 536.606,130.958 539.5,130.5C 539.5,131.833 539.5,133.167 539.5,134.5C 540.978,134.238 542.311,134.571 543.5,135.5C 542.565,138.06 543.399,138.726 546,137.5C 550.096,138.096 554.096,139.096 558,140.5C 558.419,139.328 559.085,138.328 560,137.5C 560.004,139.368 559.504,141.202 558.5,143C 558.57,143.765 558.903,144.265 559.5,144.5 Z"></path></g><g><path style="opacity:1" fill="#1ba9bb" d="M 481.5,124.5 C 481.484,126.484 482.484,127.484 484.5,127.5C 486.425,125.027 488.258,125.027 490,127.5C 489.968,131.502 489.301,131.502 488,127.5C 487.167,128.333 486.333,129.167 485.5,130C 486.337,131.011 486.67,132.178 486.5,133.5C 483.747,134.714 481.08,136.214 478.5,138C 475.833,138.667 473.167,139.333 470.5,140C 474.488,141.484 476.154,144.317 475.5,148.5C 472.751,148.726 470.084,148.393 467.5,147.5C 466.5,148 465.5,148.5 464.5,149C 464.996,152.23 465.33,155.397 465.5,158.5C 466.953,159.849 467.953,161.515 468.5,163.5C 466.059,165.03 464.892,167.363 465,170.5C 459.233,174.418 455.733,179.751 454.5,186.5C 453.277,189.398 451.277,191.731 448.5,193.5C 453.127,173.407 456.127,153.074 457.5,132.5C 458.317,134.969 458.817,137.635 459,140.5C 460.276,138.142 461.442,135.808 462.5,133.5C 462.47,134.497 462.97,135.164 464,135.5C 467.072,134.696 467.905,133.029 466.5,130.5C 466.5,129.833 466.833,129.5 467.5,129.5C 468.79,130.058 469.623,131.058 470,132.5C 470.333,132.167 470.667,131.833 471,131.5C 470.621,133.075 470.788,134.575 471.5,136C 473.81,136.497 476.143,136.663 478.5,136.5C 477.797,134.127 476.464,132.127 474.5,130.5C 479.067,133.275 480.4,131.942 478.5,126.5C 479.782,126.912 480.782,126.246 481.5,124.5 Z"></path></g><g><path style="opacity:1" fill="#1b7f97" d="M 486.5,148.5 C 483.454,152.558 480.787,156.891 478.5,161.5C 477.833,161.833 477.167,162.167 476.5,162.5C 473.67,161.063 471.003,161.396 468.5,163.5C 467.953,161.515 466.953,159.849 465.5,158.5C 469.513,159.672 473.513,159.505 477.5,158C 478.6,154.436 480.267,151.269 482.5,148.5C 483.833,148.5 485.167,148.5 486.5,148.5 Z"></path></g><g><path style="opacity:1" fill="#91dfe3" d="M 570.5,164.5 C 568.549,164.227 567.049,164.893 566,166.5C 565.667,166.167 565.333,165.833 565,165.5C 565.26,169.902 563.26,172.568 559,173.5C 558.626,174.416 558.126,175.25 557.5,176C 559.25,177.754 559.917,179.921 559.5,182.5C 555.836,183 552.836,181.833 550.5,179C 545.617,177.965 544.617,179.299 547.5,183C 548.742,183.311 549.742,182.811 550.5,181.5C 551.521,183.188 552.855,184.521 554.5,185.5C 554.453,188.969 553.787,192.302 552.5,195.5C 549.172,198.121 545.505,200.455 541.5,202.5C 540.036,198.533 538.369,194.533 536.5,190.5C 535.649,188.296 536.649,186.963 539.5,186.5C 540.255,183.675 541.255,181.009 542.5,178.5C 551.477,165.899 559.977,152.899 568,139.5C 568.719,143.838 567.886,147.838 565.5,151.5C 567.368,155.773 569.035,160.106 570.5,164.5 Z"></path></g><g><path style="opacity:1" fill="#01ba3c" d="M 394.5,192.5 C 392.933,193.681 392.099,195.347 392,197.5C 391,196.833 390,196.167 389,195.5C 388.814,197.9 388.314,200.234 387.5,202.5C 386.632,200.204 385.298,199.537 383.5,200.5C 384.093,195.167 384.759,189.833 385.5,184.5C 385.564,182.443 384.898,180.777 383.5,179.5C 381.99,178.164 380.323,176.997 378.5,176C 372.751,175.215 367.084,175.382 361.5,176.5C 361.158,175.662 360.492,175.328 359.5,175.5C 362.07,171.712 361.07,168.878 356.5,167C 357.737,166.768 358.737,166.268 359.5,165.5C 363.263,165.143 366.93,164.31 370.5,163C 374.486,162.501 378.486,162.334 382.5,162.5C 382.343,163.873 382.51,165.207 383,166.5C 384.398,165.949 385.732,165.616 387,165.5C 387.54,163.865 387.04,162.532 385.5,161.5C 386,160.119 387,159.453 388.5,159.5C 390.792,161.437 393.292,163.104 396,164.5C 396.794,173.925 396.294,183.258 394.5,192.5 Z"></path></g><g><path style="opacity:1" fill="#23b24b" d="M 392.5,220.5 C 393.297,211.178 393.964,201.845 394.5,192.5C 396.294,183.258 396.794,173.925 396,164.5C 393.292,163.104 390.792,161.437 388.5,159.5C 387,159.453 386,160.119 385.5,161.5C 387.04,162.532 387.54,163.865 387,165.5C 385.732,165.616 384.398,165.949 383,166.5C 382.51,165.207 382.343,163.873 382.5,162.5C 378.486,162.334 374.486,162.501 370.5,163C 366.93,164.31 363.263,165.143 359.5,165.5C 368.486,162.165 377.82,159.832 387.5,158.5C 391.558,158.446 394.724,160.112 397,163.5C 397.667,171.5 397.667,179.5 397,187.5C 396.139,198.732 394.639,209.732 392.5,220.5 Z"></path></g><g><path style="opacity:1" fill="#3bbee6" d="M 490.5,151.5 C 491.382,153.084 492.215,154.751 493,156.5C 496.38,157.736 498.214,160.07 498.5,163.5C 496.518,166.81 494.185,169.81 491.5,172.5C 490.85,170.565 490.517,168.565 490.5,166.5C 487.556,167.84 484.889,167.507 482.5,165.5C 481.614,164.675 481.281,163.675 481.5,162.5C 484.152,158.518 487.152,154.851 490.5,151.5 Z"></path></g><g><path style="opacity:1" fill="#d3d4d8" d="M 452.5,145.5 C 451.008,158.464 448.675,171.13 445.5,183.5C 445.245,182.064 444.912,180.564 444.5,179C 440.833,178.333 437.167,178.333 433.5,179C 432.638,181.734 431.805,181.901 431,179.5C 429.667,180.833 428.333,180.833 427,179.5C 425.513,180.253 425.346,181.086 426.5,182C 423.23,182.995 419.897,183.828 416.5,184.5C 417.687,184.554 419.02,184.887 420.5,185.5C 418.042,186.124 416.376,187.624 415.5,190C 414.552,190.483 413.552,190.649 412.5,190.5C 412.5,191.833 412.5,193.167 412.5,194.5C 410.897,194.312 409.563,194.812 408.5,196C 408.112,197.525 408.112,199.192 408.5,201C 407.234,201.309 406.067,201.809 405,202.5C 403.695,209.062 403.195,215.562 403.5,222C 405.637,225.313 405.804,228.813 404,232.5C 403.259,231.359 402.425,231.359 401.5,232.5C 400.571,233.689 400.238,235.022 400.5,236.5C 401.822,236.67 402.989,236.337 404,235.5C 404.687,237.568 404.52,239.568 403.5,241.5C 405.367,242.797 405.7,244.297 404.5,246C 405.078,247.811 405.578,249.645 406,251.5C 406.333,250.167 406.667,248.833 407,247.5C 407.318,249.061 408.151,250.228 409.5,251C 408.483,252.049 408.316,253.216 409,254.5C 409.667,255.833 410.333,255.833 411,254.5C 411.273,256.101 411.773,257.601 412.5,259C 412.043,259.414 411.709,259.914 411.5,260.5C 415.762,261.891 417.596,264.891 417,269.5C 417.667,268.167 418.333,266.833 419,265.5C 421.734,266.362 421.901,267.195 419.5,268C 421.377,269.185 423.377,270.185 425.5,271C 424.167,271.333 422.833,271.667 421.5,272C 423.5,272.833 425.5,273.667 427.5,274.5C 427.291,275.086 426.957,275.586 426.5,276C 428.037,277.11 428.703,278.61 428.5,280.5C 427.206,281.29 426.039,282.29 425,283.5C 423.628,287.814 421.795,291.814 419.5,295.5C 418.849,296.091 418.182,296.757 417.5,297.5C 415.205,296.568 412.871,295.735 410.5,295C 408.821,292.435 408.154,289.602 408.5,286.5C 405.833,286.167 403.167,285.833 400.5,285.5C 400.5,283.833 400.5,282.167 400.5,280.5C 397.09,280.616 395.756,278.95 396.5,275.5C 395.5,275.5 394.5,275.5 393.5,275.5C 393.034,273.799 393.034,272.299 393.5,271C 392.584,270.626 391.75,270.126 391,269.5C 390.79,267.942 390.29,266.609 389.5,265.5C 396.975,235.292 401.642,204.626 403.5,173.5C 403.962,167.78 402.962,162.447 400.5,157.5C 403.179,157.475 404.512,156.142 404.5,153.5C 406.857,153.663 409.19,153.497 411.5,153C 412.337,151.989 412.67,150.822 412.5,149.5C 417.198,148.9 421.864,148.067 426.5,147C 427.325,145.312 428.325,145.145 429.5,146.5C 433.779,145.726 438.113,145.226 442.5,145C 442.167,144.667 441.833,144.333 441.5,144C 442.899,143.405 444.232,143.572 445.5,144.5C 446.197,141.656 447.364,141.989 449,145.5C 449.333,144.833 449.667,144.167 450,143.5C 450.708,144.381 451.542,145.047 452.5,145.5 Z"></path></g><g><path style="opacity:1" fill="#c0c1c5" d="M 510.5,156.5 C 511.932,159.097 514.099,160.763 517,161.5C 517.29,163.044 517.956,164.377 519,165.5C 519.333,165.167 519.667,164.833 520,164.5C 520.483,165.448 520.649,166.448 520.5,167.5C 521.833,167.5 523.167,167.5 524.5,167.5C 524.343,168.873 524.51,170.207 525,171.5C 526,171.833 527,172.167 528,172.5C 528.269,175.352 529.103,178.018 530.5,180.5C 530.291,181.086 529.957,181.586 529.5,182C 530.691,182.698 531.691,183.531 532.5,184.5C 528.156,189.873 523.823,195.206 519.5,200.5C 518.13,200.144 517.13,199.31 516.5,198C 517.669,194.507 517.669,191.007 516.5,187.5C 515.5,187.5 514.5,187.5 513.5,187.5C 513.5,186.167 513.5,184.833 513.5,183.5C 512.178,183.67 511.011,183.337 510,182.5C 509.727,180.899 509.227,179.399 508.5,178C 508.833,177.667 509.167,177.333 509.5,177C 508.256,176.544 507.423,177.044 507,178.5C 506.187,176.564 505.687,174.564 505.5,172.5C 503.856,172.286 502.356,172.62 501,173.5C 499.961,172.756 499.461,171.756 499.5,170.5C 503.178,165.794 506.844,161.128 510.5,156.5 Z"></path></g><g><path style="opacity:1" fill="#afafb2" d="M 519.5,144.5 C 522.023,145.254 524.689,145.92 527.5,146.5C 528.452,148.045 528.785,149.712 528.5,151.5C 529.5,151.5 530.5,151.5 531.5,151.5C 531.5,153.167 531.5,154.833 531.5,156.5C 534.206,156.575 536.873,156.908 539.5,157.5C 539.92,159.674 539.92,161.674 539.5,163.5C 543.681,164.506 544.348,166.506 541.5,169.5C 541.624,170.107 541.957,170.44 542.5,170.5C 539.167,175.167 535.833,179.833 532.5,184.5C 531.691,183.531 530.691,182.698 529.5,182C 529.957,181.586 530.291,181.086 530.5,180.5C 529.103,178.018 528.269,175.352 528,172.5C 527,172.167 526,171.833 525,171.5C 524.51,170.207 524.343,168.873 524.5,167.5C 523.167,167.5 521.833,167.5 520.5,167.5C 520.649,166.448 520.483,165.448 520,164.5C 519.667,164.833 519.333,165.167 519,165.5C 517.956,164.377 517.29,163.044 517,161.5C 514.099,160.763 511.932,159.097 510.5,156.5C 513.025,152.104 516.025,148.104 519.5,144.5 Z"></path></g><g><path style="opacity:1" fill="#c8e2ea" d="M 476.5,162.5 C 469.917,171.256 462.751,179.589 455,187.5C 454.601,187.272 454.435,186.938 454.5,186.5C 455.733,179.751 459.233,174.418 465,170.5C 464.892,167.363 466.059,165.03 468.5,163.5C 471.003,161.396 473.67,161.063 476.5,162.5 Z"></path></g><g><path style="opacity:1" fill="#0e9bcf" d="M 481.5,162.5 C 481.281,163.675 481.614,164.675 482.5,165.5C 484.889,167.507 487.556,167.84 490.5,166.5C 490.517,168.565 490.85,170.565 491.5,172.5C 489.058,175.729 486.392,178.729 483.5,181.5C 483.22,176.593 481.553,175.76 478.5,179C 475.446,179.821 472.446,179.655 469.5,178.5C 470.127,177.583 470.461,176.583 470.5,175.5C 472.787,171.878 475.453,168.545 478.5,165.5C 479.272,164.306 480.272,163.306 481.5,162.5 Z"></path></g><g><path style="opacity:1" fill="#08f05d" d="M 383.5,179.5 C 383.582,188.76 382.582,197.76 380.5,206.5C 378.851,205.351 377.351,204.018 376,202.5C 372.75,204.131 370.083,206.465 368,209.5C 367.722,208.584 367.222,207.918 366.5,207.5C 365.5,207.5 364.5,207.5 363.5,207.5C 363.82,204.102 363.487,200.768 362.5,197.5C 361.264,196.754 359.93,196.421 358.5,196.5C 358.5,194.167 358.5,191.833 358.5,189.5C 356.517,189.157 355.183,189.824 354.5,191.5C 354.5,192.167 354.5,192.833 354.5,193.5C 352.856,193.714 351.356,193.38 350,192.5C 349.501,188.514 349.334,184.514 349.5,180.5C 353.297,178.604 357.297,177.271 361.5,176.5C 367.084,175.382 372.751,175.215 378.5,176C 380.323,176.997 381.99,178.164 383.5,179.5 Z"></path></g><g><path style="opacity:1" fill="#0179b9" d="M 470.5,175.5 C 470.461,176.583 470.127,177.583 469.5,178.5C 472.446,179.655 475.446,179.821 478.5,179C 481.553,175.76 483.22,176.593 483.5,181.5C 481.473,181.338 479.473,181.505 477.5,182C 473.983,185.343 469.816,187.176 465,187.5C 462.814,186.033 462.148,184.033 463,181.5C 465.439,179.371 467.939,177.371 470.5,175.5 Z"></path></g><g><path style="opacity:1" fill="#042e59" d="M 559.5,182.5 C 559.5,182.833 559.5,183.167 559.5,183.5C 557.219,183.077 555.552,183.744 554.5,185.5C 552.855,184.521 551.521,183.188 550.5,181.5C 549.742,182.811 548.742,183.311 547.5,183C 544.617,179.299 545.617,177.965 550.5,179C 552.836,181.833 555.836,183 559.5,182.5 Z"></path></g><g><path style="opacity:1" fill="#77dde1" d="M 570.5,164.5 C 576.353,177.4 579.353,191.066 579.5,205.5C 578.5,205.5 577.5,205.5 576.5,205.5C 576.318,199.743 575.485,194.076 574,188.5C 573.333,189.167 572.667,189.833 572,190.5C 571.152,197.227 570.152,203.894 569,210.5C 568.295,206.335 567.461,202.335 566.5,198.5C 565.701,195.57 565.368,192.57 565.5,189.5C 564.5,189.5 563.5,189.5 562.5,189.5C 562.539,186.911 561.539,184.911 559.5,183.5C 559.5,183.167 559.5,182.833 559.5,182.5C 559.917,179.921 559.25,177.754 557.5,176C 558.126,175.25 558.626,174.416 559,173.5C 563.26,172.568 565.26,169.902 565,165.5C 565.333,165.833 565.667,166.167 566,166.5C 567.049,164.893 568.549,164.227 570.5,164.5 Z"></path></g><g><path style="opacity:1" fill="#0b5c9d" d="M 478.5,161.5 C 477.646,163.035 477.646,164.368 478.5,165.5C 475.453,168.545 472.787,171.878 470.5,175.5C 467.939,177.371 465.439,179.371 463,181.5C 462.148,184.033 462.814,186.033 465,187.5C 469.816,187.176 473.983,185.343 477.5,182C 479.473,181.505 481.473,181.338 483.5,181.5C 479.604,186.672 475.27,191.339 470.5,195.5C 469.749,194.427 468.749,194.26 467.5,195C 464.731,199.495 461.398,200.162 457.5,197C 456.024,195.287 454.69,193.453 453.5,191.5C 452.06,192.952 450.394,193.952 448.5,194.5C 448.5,194.167 448.5,193.833 448.5,193.5C 451.277,191.731 453.277,189.398 454.5,186.5C 454.435,186.938 454.601,187.272 455,187.5C 462.751,179.589 469.917,171.256 476.5,162.5C 477.167,162.167 477.833,161.833 478.5,161.5 Z"></path></g><g><path style="opacity:1" fill="#12f375" d="M 343.5,180.5 C 335.591,182.792 328.258,186.125 321.5,190.5C 314.414,192.863 308.414,196.863 303.5,202.5C 298.51,206.6 295.676,211.933 295,218.5C 294.579,215.98 293.412,213.98 291.5,212.5C 288.699,207.271 289.199,202.271 293,197.5C 298.23,191.162 304.396,186.162 311.5,182.5C 317.354,179.771 323.354,177.438 329.5,175.5C 334.266,174.856 338.933,173.856 343.5,172.5C 343.031,175.339 343.031,178.005 343.5,180.5 Z"></path></g><g><path style="opacity:1" fill="#f7fdfb" d="M 321.5,190.5 C 321.276,194.179 320.942,197.846 320.5,201.5C 319.783,210.51 319.45,219.51 319.5,228.5C 318.391,228.443 317.391,228.11 316.5,227.5C 307.684,221.536 303.351,213.203 303.5,202.5C 308.414,196.863 314.414,192.863 321.5,190.5 Z"></path></g><g><path style="opacity:1" fill="#9bf0c2" d="M 354.5,193.5 C 354.5,192.833 354.5,192.167 354.5,191.5C 355.15,191.196 355.817,190.863 356.5,190.5C 357.606,192.284 357.606,194.118 356.5,196C 357.619,197.876 359.286,198.709 361.5,198.5C 361.301,201.941 361.801,205.274 363,208.5C 363.671,209.252 364.504,209.586 365.5,209.5C 364.998,211.085 363.998,211.585 362.5,211C 360.531,209.5 359.198,207.667 358.5,205.5C 355.98,202.96 353.48,200.293 351,197.5C 347.602,198.342 345.102,197.009 343.5,193.5C 343.5,190.833 343.5,188.167 343.5,185.5C 345.144,185.286 346.644,185.62 348,186.5C 348.226,189.095 348.726,191.595 349.5,194C 351.387,194.78 353.054,194.613 354.5,193.5 Z"></path></g><g><path style="opacity:1" fill="#d7d9dd" d="M 499.5,170.5 C 499.461,171.756 499.961,172.756 501,173.5C 502.356,172.62 503.856,172.286 505.5,172.5C 505.687,174.564 506.187,176.564 507,178.5C 507.423,177.044 508.256,176.544 509.5,177C 509.167,177.333 508.833,177.667 508.5,178C 509.227,179.399 509.727,180.899 510,182.5C 511.011,183.337 512.178,183.67 513.5,183.5C 513.5,184.833 513.5,186.167 513.5,187.5C 514.5,187.5 515.5,187.5 516.5,187.5C 517.669,191.007 517.669,194.507 516.5,198C 517.13,199.31 518.13,200.144 519.5,200.5C 510.108,212.226 499.442,222.559 487.5,231.5C 487.963,224.839 487.463,217.839 486,210.5C 485.83,212.715 485.163,214.715 484,216.5C 483.501,212.848 483.335,209.182 483.5,205.5C 482.022,205.762 480.689,205.429 479.5,204.5C 480.462,202.117 479.462,201.117 476.5,201.5C 476.843,199.517 476.176,198.183 474.5,197.5C 483.229,188.775 491.562,179.775 499.5,170.5 Z"></path></g><g><path style="opacity:1" fill="#64eea2" d="M 349.5,180.5 C 349.334,184.514 349.501,188.514 350,192.5C 351.356,193.38 352.856,193.714 354.5,193.5C 353.054,194.613 351.387,194.78 349.5,194C 348.726,191.595 348.226,189.095 348,186.5C 346.644,185.62 345.144,185.286 343.5,185.5C 343.5,188.167 343.5,190.833 343.5,193.5C 342.656,190.655 341.99,187.655 341.5,184.5C 344.167,183.167 346.833,181.833 349.5,180.5 Z"></path></g><g><path style="opacity:1" fill="#038a1c" d="M 359.5,175.5 C 360.492,175.328 361.158,175.662 361.5,176.5C 357.297,177.271 353.297,178.604 349.5,180.5C 346.833,181.833 344.167,183.167 341.5,184.5C 335.925,187.406 331.258,191.406 327.5,196.5C 324.556,198.716 322.889,201.716 322.5,205.5C 321.566,206.568 321.232,207.901 321.5,209.5C 320.527,207.052 320.194,204.385 320.5,201.5C 320.942,197.846 321.276,194.179 321.5,190.5C 328.258,186.125 335.591,182.792 343.5,180.5C 348.724,178.527 354.057,176.86 359.5,175.5 Z"></path></g><g><path style="opacity:1" fill="#0b3880" d="M 470.5,195.5 C 462.513,203.485 454.18,211.151 445.5,218.5C 445.167,217.833 444.833,217.167 444.5,216.5C 446.051,209.194 447.384,201.861 448.5,194.5C 450.394,193.952 452.06,192.952 453.5,191.5C 454.69,193.453 456.024,195.287 457.5,197C 461.398,200.162 464.731,199.495 467.5,195C 468.749,194.26 469.749,194.427 470.5,195.5 Z"></path></g><g><path style="opacity:1" fill="#35e176" d="M 366.5,207.5 C 366.167,208.167 365.833,208.833 365.5,209.5C 364.504,209.586 363.671,209.252 363,208.5C 361.801,205.274 361.301,201.941 361.5,198.5C 359.286,198.709 357.619,197.876 356.5,196C 357.606,194.118 357.606,192.284 356.5,190.5C 355.817,190.863 355.15,191.196 354.5,191.5C 355.183,189.824 356.517,189.157 358.5,189.5C 358.5,191.833 358.5,194.167 358.5,196.5C 359.93,196.421 361.264,196.754 362.5,197.5C 363.487,200.768 363.82,204.102 363.5,207.5C 364.5,207.5 365.5,207.5 366.5,207.5 Z"></path></g><g><path style="opacity:1" fill="#025e99" d="M 559.5,183.5 C 560.847,187.212 562.18,190.878 563.5,194.5C 562.127,194.343 560.793,194.51 559.5,195C 560.479,196.779 560.146,198.445 558.5,200C 558.833,200.333 559.167,200.667 559.5,201C 555.697,210.107 552.03,219.274 548.5,228.5C 547.5,228.5 546.5,228.5 545.5,228.5C 545.421,229.93 545.754,231.264 546.5,232.5C 543.748,235.768 541.581,239.434 540,243.5C 539.667,243.167 539.333,242.833 539,242.5C 537.908,245.044 537.241,247.711 537,250.5C 536.667,250.833 536.333,251.167 536,251.5C 535.506,249.866 535.34,248.199 535.5,246.5C 535.019,242.798 534.352,239.131 533.5,235.5C 537.039,229.057 541.039,223.057 545.5,217.5C 546.496,217.586 547.329,217.252 548,216.5C 548.608,213.183 549.108,209.849 549.5,206.5C 549.674,204.307 549.007,202.473 547.5,201C 549.3,199.188 550.967,197.355 552.5,195.5C 553.787,192.302 554.453,188.969 554.5,185.5C 555.552,183.744 557.219,183.077 559.5,183.5 Z"></path></g><g><path style="opacity:1" fill="#063864" d="M 536.5,190.5 C 538.369,194.533 540.036,198.533 541.5,202.5C 545.505,200.455 549.172,198.121 552.5,195.5C 550.967,197.355 549.3,199.188 547.5,201C 549.007,202.473 549.674,204.307 549.5,206.5C 549.108,209.849 548.608,213.183 548,216.5C 547.329,217.252 546.496,217.586 545.5,217.5C 547.449,213.371 548.283,209.038 548,204.5C 546.53,205.267 545.03,205.933 543.5,206.5C 542.178,206.67 541.011,206.337 540,205.5C 539.108,202.048 537.442,199.048 535,196.5C 534.059,194.011 534.559,192.011 536.5,190.5 Z"></path></g><g><path style="opacity:1" fill="#03db53" d="M 341.5,184.5 C 341.99,187.655 342.656,190.655 343.5,193.5C 345.102,197.009 347.602,198.342 351,197.5C 353.48,200.293 355.98,202.96 358.5,205.5C 358.674,207.861 359.007,210.194 359.5,212.5C 363.167,212.833 365.167,214.833 365.5,218.5C 362.421,218.26 359.421,218.593 356.5,219.5C 355.201,218.91 354.368,217.91 354,216.5C 353.667,216.833 353.333,217.167 353,217.5C 351.003,216.328 349.17,214.995 347.5,213.5C 346.558,213.608 345.725,213.941 345,214.5C 342.926,211.765 340.259,209.765 337,208.5C 336.163,206.649 335.329,204.816 334.5,203C 329.498,203.523 327.165,201.356 327.5,196.5C 331.258,191.406 335.925,187.406 341.5,184.5 Z"></path></g><g><path style="opacity:1" fill="#0590c5" d="M 579.5,205.5 C 579.666,212.175 579.5,218.842 579,225.5C 577.645,234.228 576.312,242.894 575,251.5C 586.953,266.067 595.786,282.4 601.5,300.5C 596.19,300.786 592.857,303.786 591.5,309.5C 586.421,293.671 579.421,278.671 570.5,264.5C 569.817,262.824 568.483,262.157 566.5,262.5C 566.216,265.632 565.383,268.632 564,271.5C 562.413,270.273 561.079,270.606 560,272.5C 556.32,271.327 552.32,271.327 548,272.5C 546.989,272.108 546.489,271.441 546.5,270.5C 544.5,271.5 542.5,272.5 540.5,273.5C 537.812,272.85 535.312,272.85 533,273.5C 532.054,275.788 530.887,277.955 529.5,280C 530.056,280.383 530.389,280.883 530.5,281.5C 529.391,281.443 528.391,281.11 527.5,280.5C 526.329,279.655 524.995,278.989 523.5,278.5C 523.351,277.448 523.517,276.448 524,275.5C 526.056,274.417 527.389,272.75 528,270.5C 530.674,269.286 533.174,267.953 535.5,266.5C 535.5,267.5 535.5,268.5 535.5,269.5C 537.39,269.703 538.89,269.037 540,267.5C 541.951,261.814 543.785,256.148 545.5,250.5C 545.36,248.97 544.693,247.97 543.5,247.5C 546.325,241.819 549.825,236.486 554,231.5C 556.825,223.868 560.325,216.534 564.5,209.5C 565.192,210.025 565.692,210.692 566,211.5C 566.499,207.179 566.666,202.846 566.5,198.5C 567.461,202.335 568.295,206.335 569,210.5C 570.152,203.894 571.152,197.227 572,190.5C 572.667,189.833 573.333,189.167 574,188.5C 575.485,194.076 576.318,199.743 576.5,205.5C 577.5,205.5 578.5,205.5 579.5,205.5 Z"></path></g><g><path style="opacity:1" fill="#b7f0d0" d="M 380.5,206.5 C 379.297,217.857 376.963,228.857 373.5,239.5C 375.403,229.852 376.903,220.185 378,210.5C 377.085,211.328 376.419,212.328 376,213.5C 373.508,211.503 370.675,210.503 367.5,210.5C 366.833,210.167 366.167,209.833 365.5,209.5C 365.833,208.833 366.167,208.167 366.5,207.5C 367.222,207.918 367.722,208.584 368,209.5C 370.083,206.465 372.75,204.131 376,202.5C 377.351,204.018 378.851,205.351 380.5,206.5 Z"></path></g><g><path style="opacity:1" fill="#dfe1e6" d="M 445.5,183.5 C 443.719,196.856 441.719,210.189 439.5,223.5C 439.833,224.5 440.167,225.5 440.5,226.5C 452.317,217.279 463.65,207.613 474.5,197.5C 476.176,198.183 476.843,199.517 476.5,201.5C 479.462,201.117 480.462,202.117 479.5,204.5C 480.689,205.429 482.022,205.762 483.5,205.5C 483.335,209.182 483.501,212.848 484,216.5C 485.163,214.715 485.83,212.715 486,210.5C 487.463,217.839 487.963,224.839 487.5,231.5C 483.836,235.997 479.669,239.997 475,243.5C 473.126,247.48 473.126,251.48 475,255.5C 486,269.995 497.166,284.329 508.5,298.5C 511.083,303.463 510.083,307.797 505.5,311.5C 506.282,313.329 505.616,314.829 503.5,316C 502.552,316.483 501.552,316.649 500.5,316.5C 500.5,317.5 500.5,318.5 500.5,319.5C 495.383,321.558 490.383,323.892 485.5,326.5C 469.406,310.905 455.74,293.405 444.5,274C 443.5,273.333 442.5,273.333 441.5,274C 436.852,275.705 432.519,277.871 428.5,280.5C 428.703,278.61 428.037,277.11 426.5,276C 426.957,275.586 427.291,275.086 427.5,274.5C 425.5,273.667 423.5,272.833 421.5,272C 422.833,271.667 424.167,271.333 425.5,271C 423.377,270.185 421.377,269.185 419.5,268C 421.901,267.195 421.734,266.362 419,265.5C 418.333,266.833 417.667,268.167 417,269.5C 417.596,264.891 415.762,261.891 411.5,260.5C 411.709,259.914 412.043,259.414 412.5,259C 411.773,257.601 411.273,256.101 411,254.5C 410.333,255.833 409.667,255.833 409,254.5C 408.316,253.216 408.483,252.049 409.5,251C 408.151,250.228 407.318,249.061 407,247.5C 406.667,248.833 406.333,250.167 406,251.5C 405.578,249.645 405.078,247.811 404.5,246C 405.7,244.297 405.367,242.797 403.5,241.5C 404.52,239.568 404.687,237.568 404,235.5C 402.989,236.337 401.822,236.67 400.5,236.5C 400.238,235.022 400.571,233.689 401.5,232.5C 402.425,231.359 403.259,231.359 404,232.5C 405.804,228.813 405.637,225.313 403.5,222C 403.195,215.562 403.695,209.062 405,202.5C 406.067,201.809 407.234,201.309 408.5,201C 408.112,199.192 408.112,197.525 408.5,196C 409.563,194.812 410.897,194.312 412.5,194.5C 412.5,193.167 412.5,191.833 412.5,190.5C 413.552,190.649 414.552,190.483 415.5,190C 416.376,187.624 418.042,186.124 420.5,185.5C 419.02,184.887 417.687,184.554 416.5,184.5C 419.897,183.828 423.23,182.995 426.5,182C 425.346,181.086 425.513,180.253 427,179.5C 428.333,180.833 429.667,180.833 431,179.5C 431.805,181.901 432.638,181.734 433.5,179C 437.167,178.333 440.833,178.333 444.5,179C 444.912,180.564 445.245,182.064 445.5,183.5 Z"></path></g><g><path style="opacity:1" fill="#04cb54" d="M 327.5,196.5 C 327.165,201.356 329.498,203.523 334.5,203C 335.329,204.816 336.163,206.649 337,208.5C 340.259,209.765 342.926,211.765 345,214.5C 345.725,213.941 346.558,213.608 347.5,213.5C 349.17,214.995 351.003,216.328 353,217.5C 353.333,217.167 353.667,216.833 354,216.5C 354.368,217.91 355.201,218.91 356.5,219.5C 359.421,218.593 362.421,218.26 365.5,218.5C 365.167,214.833 363.167,212.833 359.5,212.5C 359.007,210.194 358.674,207.861 358.5,205.5C 359.198,207.667 360.531,209.5 362.5,211C 363.998,211.585 364.998,211.085 365.5,209.5C 366.167,209.833 366.833,210.167 367.5,210.5C 367.723,212.342 368.057,214.175 368.5,216C 367.873,219.686 366.873,223.186 365.5,226.5C 363.865,230.573 362.865,234.906 362.5,239.5C 361.577,233.107 358.077,230.774 352,232.5C 350.168,231.142 348.335,230.808 346.5,231.5C 344.727,229.047 343.227,226.381 342,223.5C 341.667,224.167 341.333,224.833 341,225.5C 339.184,224.671 337.351,223.837 335.5,223C 337.167,222 338.833,221 340.5,220C 337.989,217.594 334.989,215.928 331.5,215C 330.5,213.333 329.5,211.667 328.5,210C 327.175,210.148 326.008,209.982 325,209.5C 324.86,212.043 324.194,214.377 323,216.5C 322.501,212.848 322.335,209.182 322.5,205.5C 322.889,201.716 324.556,198.716 327.5,196.5 Z"></path></g><g><path style="opacity:1" fill="#0d9529" d="M 303.5,202.5 C 303.351,213.203 307.684,221.536 316.5,227.5C 314.243,227.038 312.243,226.038 310.5,224.5C 307.67,226.658 307.003,229.324 308.5,232.5C 310.214,231.391 310.881,232.058 310.5,234.5C 312.619,234.468 313.952,235.468 314.5,237.5C 303.002,232.669 295.335,224.336 291.5,212.5C 293.412,213.98 294.579,215.98 295,218.5C 295.676,211.933 298.51,206.6 303.5,202.5 Z"></path></g><g><path style="opacity:1" fill="#00bf52" d="M 322.5,205.5 C 322.335,209.182 322.501,212.848 323,216.5C 324.194,214.377 324.86,212.043 325,209.5C 326.008,209.982 327.175,210.148 328.5,210C 329.5,211.667 330.5,213.333 331.5,215C 334.989,215.928 337.989,217.594 340.5,220C 338.833,221 337.167,222 335.5,223C 337.351,223.837 339.184,224.671 341,225.5C 341.333,224.833 341.667,224.167 342,223.5C 343.227,226.381 344.727,229.047 346.5,231.5C 348.335,230.808 350.168,231.142 352,232.5C 358.077,230.774 361.577,233.107 362.5,239.5C 356.167,239.5 349.833,239.5 343.5,239.5C 343.36,237.876 344.027,236.71 345.5,236C 344.663,234.989 344.33,233.822 344.5,232.5C 341.729,232.579 339.063,232.079 336.5,231C 335.89,229.053 335.057,227.219 334,225.5C 332.15,227.962 330.983,227.462 330.5,224C 329.552,223.517 328.552,223.351 327.5,223.5C 327.5,222.5 327.5,221.5 327.5,220.5C 325.833,220.5 324.167,220.5 322.5,220.5C 321.756,216.881 321.423,213.215 321.5,209.5C 321.232,207.901 321.566,206.568 322.5,205.5 Z"></path></g><g><path style="opacity:1" fill="#a1e3e6" d="M 542.5,178.5 C 541.255,181.009 540.255,183.675 539.5,186.5C 536.649,186.963 535.649,188.296 536.5,190.5C 534.559,192.011 534.059,194.011 535,196.5C 537.442,199.048 539.108,202.048 540,205.5C 541.011,206.337 542.178,206.67 543.5,206.5C 543.5,207.5 543.5,208.5 543.5,209.5C 539.944,209.275 539.61,210.108 542.5,212C 542.348,214.809 542.014,217.643 541.5,220.5C 539.899,219.835 538.399,219.501 537,219.5C 536.02,221.059 535.187,222.726 534.5,224.5C 533.035,223.391 532.035,223.891 531.5,226C 531.854,227.626 531.854,229.459 531.5,231.5C 529.403,231.997 527.57,232.33 526,232.5C 525.338,234.813 524.838,237.146 524.5,239.5C 522.167,239.5 519.833,239.5 517.5,239.5C 518.5,245.833 515.833,248.5 509.5,247.5C 510.036,250.665 509.203,253.331 507,255.5C 504.88,254.395 502.713,254.395 500.5,255.5C 499.191,254.376 498.525,252.876 498.5,251C 500.727,246.348 500.893,241.514 499,236.5C 498.777,234.119 497.61,232.453 495.5,231.5C 502.438,225.063 509.271,218.397 516,211.5C 524.318,200.023 533.151,189.023 542.5,178.5 Z"></path></g><g><path style="opacity:1" fill="#0275ae" d="M 559.5,183.5 C 561.539,184.911 562.539,186.911 562.5,189.5C 563.5,189.5 564.5,189.5 565.5,189.5C 565.368,192.57 565.701,195.57 566.5,198.5C 566.666,202.846 566.499,207.179 566,211.5C 565.692,210.692 565.192,210.025 564.5,209.5C 560.325,216.534 556.825,223.868 554,231.5C 549.825,236.486 546.325,241.819 543.5,247.5C 543.643,249.262 543.309,250.929 542.5,252.5C 540.291,253.063 538.791,254.396 538,256.5C 537.697,260.004 536.863,263.338 535.5,266.5C 533.174,267.953 530.674,269.286 528,270.5C 527.389,272.75 526.056,274.417 524,275.5C 523.517,276.448 523.351,277.448 523.5,278.5C 522.167,277.5 520.833,276.5 519.5,275.5C 520.15,273.565 520.483,271.565 520.5,269.5C 521.93,269.579 523.264,269.246 524.5,268.5C 525.321,265.553 525.821,262.553 526,259.5C 528.333,257.833 530.667,256.167 533,254.5C 533.943,251.749 534.776,249.083 535.5,246.5C 535.34,248.199 535.506,249.866 536,251.5C 536.333,251.167 536.667,250.833 537,250.5C 537.241,247.711 537.908,245.044 539,242.5C 539.333,242.833 539.667,243.167 540,243.5C 541.581,239.434 543.748,235.768 546.5,232.5C 545.754,231.264 545.421,229.93 545.5,228.5C 546.5,228.5 547.5,228.5 548.5,228.5C 552.03,219.274 555.697,210.107 559.5,201C 559.167,200.667 558.833,200.333 558.5,200C 560.146,198.445 560.479,196.779 559.5,195C 560.793,194.51 562.127,194.343 563.5,194.5C 562.18,190.878 560.847,187.212 559.5,183.5 Z"></path></g><g><path style="opacity:1" fill="#03b93b" d="M 316.5,227.5 C 317.391,228.11 318.391,228.443 319.5,228.5C 320.504,230.492 321.17,232.659 321.5,235C 321.431,236.986 320.765,238.486 319.5,239.5C 317.447,239.598 315.78,238.931 314.5,237.5C 313.952,235.468 312.619,234.468 310.5,234.5C 310.881,232.058 310.214,231.391 308.5,232.5C 307.003,229.324 307.67,226.658 310.5,224.5C 312.243,226.038 314.243,227.038 316.5,227.5 Z"></path></g><g><path style="opacity:1" fill="#ceeedd" d="M 367.5,210.5 C 370.675,210.503 373.508,211.503 376,213.5C 376.419,212.328 377.085,211.328 378,210.5C 376.903,220.185 375.403,229.852 373.5,239.5C 373.565,242.471 372.731,245.138 371,247.5C 370.102,244.931 368.935,242.598 367.5,240.5C 366.651,237.965 365.651,235.465 364.5,233C 365.287,230.901 365.62,228.734 365.5,226.5C 366.873,223.186 367.873,219.686 368.5,216C 368.057,214.175 367.723,212.342 367.5,210.5 Z"></path></g><g><path style="opacity:1" fill="#03b553" d="M 322.5,220.5 C 324.167,220.5 325.833,220.5 327.5,220.5C 327.5,221.5 327.5,222.5 327.5,223.5C 328.552,223.351 329.552,223.517 330.5,224C 330.983,227.462 332.15,227.962 334,225.5C 335.057,227.219 335.89,229.053 336.5,231C 339.063,232.079 341.729,232.579 344.5,232.5C 344.33,233.822 344.663,234.989 345.5,236C 344.027,236.71 343.36,237.876 343.5,239.5C 349.833,239.5 356.167,239.5 362.5,239.5C 362.865,234.906 363.865,230.573 365.5,226.5C 365.62,228.734 365.287,230.901 364.5,233C 365.651,235.465 366.651,237.965 367.5,240.5C 367.909,243.991 368.909,247.325 370.5,250.5C 369.936,252.819 369.436,255.153 369,257.5C 368.617,258.056 368.117,258.389 367.5,258.5C 367.103,256.338 365.769,255.005 363.5,254.5C 359.555,253.509 355.555,253.176 351.5,253.5C 351.799,251.396 351.466,249.396 350.5,247.5C 349.232,248.428 347.899,248.595 346.5,248C 344.751,245.409 342.751,244.742 340.5,246C 337.508,247.036 334.675,247.536 332,247.5C 330.333,245.167 328.667,242.833 327,240.5C 326.026,242.878 325.359,242.544 325,239.5C 324.333,240.833 323.667,240.833 323,239.5C 322.5,233.175 322.334,226.842 322.5,220.5 Z"></path></g><g><path style="opacity:1" fill="#042464" d="M 495.5,231.5 C 497.61,232.453 498.777,234.119 499,236.5C 500.893,241.514 500.727,246.348 498.5,251C 498.525,252.876 499.191,254.376 500.5,255.5C 501.11,256.391 501.443,257.391 501.5,258.5C 497.301,255.44 495.968,251.44 497.5,246.5C 496.5,246.5 495.5,246.5 494.5,246.5C 494.335,244.173 493.669,242.007 492.5,240C 491.167,239.333 489.833,239.333 488.5,240C 487.529,241.481 486.196,242.315 484.5,242.5C 487.86,238.473 491.527,234.806 495.5,231.5 Z"></path></g><g><path style="opacity:1" fill="#8bdde3" d="M 545.5,217.5 C 541.039,223.057 537.039,229.057 533.5,235.5C 534.352,239.131 535.019,242.798 535.5,246.5C 534.776,249.083 533.943,251.749 533,254.5C 530.667,256.167 528.333,257.833 526,259.5C 525.821,262.553 525.321,265.553 524.5,268.5C 523.264,269.246 521.93,269.579 520.5,269.5C 520.483,271.565 520.15,273.565 519.5,275.5C 512.207,271.207 506.207,265.54 501.5,258.5C 501.443,257.391 501.11,256.391 500.5,255.5C 502.713,254.395 504.88,254.395 507,255.5C 509.203,253.331 510.036,250.665 509.5,247.5C 515.833,248.5 518.5,245.833 517.5,239.5C 519.833,239.5 522.167,239.5 524.5,239.5C 524.838,237.146 525.338,234.813 526,232.5C 527.57,232.33 529.403,231.997 531.5,231.5C 531.854,229.459 531.854,227.626 531.5,226C 532.035,223.891 533.035,223.391 534.5,224.5C 535.187,222.726 536.02,221.059 537,219.5C 538.399,219.501 539.899,219.835 541.5,220.5C 542.014,217.643 542.348,214.809 542.5,212C 539.61,210.108 539.944,209.275 543.5,209.5C 543.5,208.5 543.5,207.5 543.5,206.5C 545.03,205.933 546.53,205.267 548,204.5C 548.283,209.038 547.449,213.371 545.5,217.5 Z"></path></g><g><path style="opacity:1" fill="#f2fbf9" d="M 396.5,153.5 C 398.139,154.473 399.473,155.806 400.5,157.5C 402.962,162.447 403.962,167.78 403.5,173.5C 401.642,204.626 396.975,235.292 389.5,265.5C 385.774,277.846 381.941,290.179 378,302.5C 375.191,310.786 371.357,318.452 366.5,325.5C 364.708,325.366 363.042,325.699 361.5,326.5C 363.234,322.7 365.234,319.034 367.5,315.5C 380.402,285.152 388.735,253.485 392.5,220.5C 394.639,209.732 396.139,198.732 397,187.5C 397.667,179.5 397.667,171.5 397,163.5C 394.724,160.112 391.558,158.446 387.5,158.5C 377.82,159.832 368.486,162.165 359.5,165.5C 349.089,167.928 339.089,171.261 329.5,175.5C 323.354,177.438 317.354,179.771 311.5,182.5C 311.573,180.973 310.906,179.973 309.5,179.5C 325.29,171.231 341.956,164.898 359.5,160.5C 371.399,155.987 383.732,153.654 396.5,153.5 Z"></path></g><g><path style="opacity:1" fill="#0fd659" d="M 359.5,165.5 C 358.737,166.268 357.737,166.768 356.5,167C 361.07,168.878 362.07,171.712 359.5,175.5C 354.057,176.86 348.724,178.527 343.5,180.5C 343.031,178.005 343.031,175.339 343.5,172.5C 338.933,173.856 334.266,174.856 329.5,175.5C 339.089,171.261 349.089,167.928 359.5,165.5 Z"></path></g><g><path style="opacity:1" fill="#16b965" d="M 320.5,201.5 C 320.194,204.385 320.527,207.052 321.5,209.5C 321.423,213.215 321.756,216.881 322.5,220.5C 322.334,226.842 322.5,233.175 323,239.5C 323.667,240.833 324.333,240.833 325,239.5C 325.359,242.544 326.026,242.878 327,240.5C 328.667,242.833 330.333,245.167 332,247.5C 334.675,247.536 337.508,247.036 340.5,246C 342.751,244.742 344.751,245.409 346.5,248C 347.899,248.595 349.232,248.428 350.5,247.5C 351.466,249.396 351.799,251.396 351.5,253.5C 355.555,253.176 359.555,253.509 363.5,254.5C 365.769,255.005 367.103,256.338 367.5,258.5C 366.4,262.485 364.733,266.151 362.5,269.5C 362.725,267.284 361.892,265.617 360,264.5C 359.505,262.527 359.338,260.527 359.5,258.5C 356.873,259.092 354.206,259.425 351.5,259.5C 351.657,258.127 351.49,256.793 351,255.5C 348.254,258.025 345.42,258.025 342.5,255.5C 341.378,256.63 340.044,257.297 338.5,257.5C 340.034,255.658 339.7,254.325 337.5,253.5C 334.982,255.464 332.316,256.13 329.5,255.5C 328.969,252.901 328.802,250.235 329,247.5C 328.692,248.308 328.192,248.975 327.5,249.5C 326.894,246.66 325.561,244.327 323.5,242.5C 322.41,241.143 321.076,240.143 319.5,239.5C 320.765,238.486 321.431,236.986 321.5,235C 321.17,232.659 320.504,230.492 319.5,228.5C 319.45,219.51 319.783,210.51 320.5,201.5 Z"></path></g><g><path style="opacity:1" fill="#0cab68" d="M 323.5,242.5 C 325.561,244.327 326.894,246.66 327.5,249.5C 328.192,248.975 328.692,248.308 329,247.5C 328.802,250.235 328.969,252.901 329.5,255.5C 332.316,256.13 334.982,255.464 337.5,253.5C 339.7,254.325 340.034,255.658 338.5,257.5C 338.804,258.15 339.137,258.817 339.5,259.5C 337.26,262.864 335.26,266.197 333.5,269.5C 329.378,260.802 326.045,251.802 323.5,242.5 Z"></path></g><g><path style="opacity:1" fill="#03c882" d="M 362.5,269.5 C 359.491,276.013 355.158,281.513 349.5,286C 347.975,287.009 346.308,287.509 344.5,287.5C 343.145,285.479 341.479,283.812 339.5,282.5C 339.425,279.593 338.591,276.927 337,274.5C 336.241,272.937 335.074,271.937 333.5,271.5C 333.5,270.833 333.5,270.167 333.5,269.5C 335.26,266.197 337.26,262.864 339.5,259.5C 339.137,258.817 338.804,258.15 338.5,257.5C 340.044,257.297 341.378,256.63 342.5,255.5C 345.42,258.025 348.254,258.025 351,255.5C 351.49,256.793 351.657,258.127 351.5,259.5C 354.206,259.425 356.873,259.092 359.5,258.5C 359.338,260.527 359.505,262.527 360,264.5C 361.892,265.617 362.725,267.284 362.5,269.5 Z"></path></g><g><path style="opacity:1" fill="#0cf575" d="M 394.5,192.5 C 393.964,201.845 393.297,211.178 392.5,220.5C 388.735,253.485 380.402,285.152 367.5,315.5C 364.237,316.149 362.237,318.149 361.5,321.5C 359.545,319.02 357.878,316.354 356.5,313.5C 358.581,310.062 359.915,306.395 360.5,302.5C 371.615,269.364 379.282,235.364 383.5,200.5C 385.298,199.537 386.632,200.204 387.5,202.5C 388.314,200.234 388.814,197.9 389,195.5C 390,196.167 391,196.833 392,197.5C 392.099,195.347 392.933,193.681 394.5,192.5 Z"></path></g><g><path style="opacity:1" fill="#6edee6" d="M 543.5,247.5 C 544.693,247.97 545.36,248.97 545.5,250.5C 543.785,256.148 541.951,261.814 540,267.5C 538.89,269.037 537.39,269.703 535.5,269.5C 535.5,268.5 535.5,267.5 535.5,266.5C 536.863,263.338 537.697,260.004 538,256.5C 538.791,254.396 540.291,253.063 542.5,252.5C 543.309,250.929 543.643,249.262 543.5,247.5 Z"></path></g><g><path style="opacity:1" fill="#04549b" d="M 509.5,271.5 C 509.167,271.5 508.833,271.5 508.5,271.5C 506.738,268.16 504.238,266.493 501,266.5C 500.241,270.138 499.075,273.471 497.5,276.5C 494.152,273.149 491.152,269.482 488.5,265.5C 489.75,265.577 490.583,266.244 491,267.5C 492.53,265.774 493.53,263.774 494,261.5C 494.915,262.328 495.581,263.328 496,264.5C 502.303,262.569 506.803,264.902 509.5,271.5 Z"></path></g><g><path style="opacity:1" fill="#fafdfd" d="M 570.5,264.5 C 579.421,278.671 586.421,293.671 591.5,309.5C 591.232,311.099 591.566,312.432 592.5,313.5C 592.5,313.833 592.5,314.167 592.5,314.5C 592.867,318.967 592.367,323.3 591,327.5C 588.695,329.93 585.862,330.93 582.5,330.5C 572.168,327.167 562.501,322.5 553.5,316.5C 551.022,314.197 548.355,312.031 545.5,310C 543.536,308.549 542.203,306.716 541.5,304.5C 544.547,301.455 547.213,298.122 549.5,294.5C 553.975,289.563 557.975,284.23 561.5,278.5C 564.039,273.392 567.039,268.725 570.5,264.5 Z"></path></g><g><path style="opacity:1" fill="#12a6d0" d="M 570.5,264.5 C 567.039,268.725 564.039,273.392 561.5,278.5C 556.458,280.957 551.125,282.624 545.5,283.5C 540.324,283.817 535.324,283.151 530.5,281.5C 530.389,280.883 530.056,280.383 529.5,280C 530.887,277.955 532.054,275.788 533,273.5C 535.312,272.85 537.812,272.85 540.5,273.5C 542.5,272.5 544.5,271.5 546.5,270.5C 546.489,271.441 546.989,272.108 548,272.5C 552.32,271.327 556.32,271.327 560,272.5C 561.079,270.606 562.413,270.273 564,271.5C 565.383,268.632 566.216,265.632 566.5,262.5C 568.483,262.157 569.817,262.824 570.5,264.5 Z"></path></g><g><path style="opacity:1" fill="#0476b3" d="M 508.5,271.5 C 502.681,273.616 501.015,277.616 503.5,283.5C 503.167,283.5 502.833,283.5 502.5,283.5C 500.42,281.427 498.754,279.093 497.5,276.5C 499.075,273.471 500.241,270.138 501,266.5C 504.238,266.493 506.738,268.16 508.5,271.5 Z"></path></g><g><path style="opacity:1" fill="#0493cc" d="M 508.5,271.5 C 508.833,271.5 509.167,271.5 509.5,271.5C 510.752,273.001 511.752,274.668 512.5,276.5C 508.296,277.379 505.296,279.713 503.5,283.5C 501.015,277.616 502.681,273.616 508.5,271.5 Z"></path></g><g><path style="opacity:1" fill="#033681" d="M 501.5,258.5 C 506.207,265.54 512.207,271.207 519.5,275.5C 520.833,276.5 522.167,277.5 523.5,278.5C 524.995,278.989 526.329,279.655 527.5,280.5C 525.876,280.36 524.71,281.027 524,282.5C 523.465,280.729 522.631,280.396 521.5,281.5C 522.711,283.422 524.044,285.255 525.5,287C 524.944,287.383 524.611,287.883 524.5,288.5C 521.833,286.5 519.5,284.167 517.5,281.5C 516.167,279.5 514.5,277.833 512.5,276.5C 511.752,274.668 510.752,273.001 509.5,271.5C 506.803,264.902 502.303,262.569 496,264.5C 495.581,263.328 494.915,262.328 494,261.5C 493.53,263.774 492.53,265.774 491,267.5C 490.583,266.244 489.75,265.577 488.5,265.5C 484.072,261.221 481.072,256.055 479.5,250C 479.844,246.441 481.511,243.941 484.5,242.5C 486.196,242.315 487.529,241.481 488.5,240C 489.833,239.333 491.167,239.333 492.5,240C 493.669,242.007 494.335,244.173 494.5,246.5C 495.5,246.5 496.5,246.5 497.5,246.5C 495.968,251.44 497.301,255.44 501.5,258.5 Z"></path></g><g><path style="opacity:1" fill="#04861c" d="M 383.5,179.5 C 384.898,180.777 385.564,182.443 385.5,184.5C 384.759,189.833 384.093,195.167 383.5,200.5C 379.282,235.364 371.615,269.364 360.5,302.5C 359.833,303.167 359.167,303.833 358.5,304.5C 353.594,299.017 348.928,293.351 344.5,287.5C 346.308,287.509 347.975,287.009 349.5,286C 355.158,281.513 359.491,276.013 362.5,269.5C 364.733,266.151 366.4,262.485 367.5,258.5C 368.117,258.389 368.617,258.056 369,257.5C 369.436,255.153 369.936,252.819 370.5,250.5C 368.909,247.325 367.909,243.991 367.5,240.5C 368.935,242.598 370.102,244.931 371,247.5C 372.731,245.138 373.565,242.471 373.5,239.5C 376.963,228.857 379.297,217.857 380.5,206.5C 382.582,197.76 383.582,188.76 383.5,179.5 Z"></path></g><g><path style="opacity:1" fill="#09803c" d="M 449.5,293.5 C 445.18,292.881 440.846,292.548 436.5,292.5C 434.041,294.806 431.041,295.973 427.5,296C 426.155,298.899 424.488,301.399 422.5,303.5C 424.377,298.075 426.544,292.741 429,287.5C 433.011,284.886 437.178,282.552 441.5,280.5C 444.927,284.351 447.594,288.685 449.5,293.5 Z"></path></g><g><path style="opacity:1" fill="#012775" d="M 527.5,280.5 C 528.391,281.11 529.391,281.443 530.5,281.5C 535.324,283.151 540.324,283.817 545.5,283.5C 542.311,284.166 538.977,284.833 535.5,285.5C 539.459,286.327 543.459,286.827 547.5,287C 544.553,287.112 543.22,288.612 543.5,291.5C 540.654,291.809 539.154,293.475 539,296.5C 537.591,297.781 536.091,298.781 534.5,299.5C 531.195,295.859 527.862,292.192 524.5,288.5C 524.611,287.883 524.944,287.383 525.5,287C 524.044,285.255 522.711,283.422 521.5,281.5C 522.631,280.396 523.465,280.729 524,282.5C 524.71,281.027 525.876,280.36 527.5,280.5 Z"></path></g><g><path style="opacity:1" fill="#29b3e0" d="M 512.5,276.5 C 514.5,277.833 516.167,279.5 517.5,281.5C 515.158,284.684 512.991,288.018 511,291.5C 510.329,290.748 509.496,290.414 508.5,290.5C 506.5,288.167 504.5,285.833 502.5,283.5C 502.833,283.5 503.167,283.5 503.5,283.5C 505.296,279.713 508.296,277.379 512.5,276.5 Z"></path></g><g><path style="opacity:1" fill="#f8fdfb" d="M 339.5,282.5 C 341.479,283.812 343.145,285.479 344.5,287.5C 348.928,293.351 353.594,299.017 358.5,304.5C 354.273,313.956 349.273,322.956 343.5,331.5C 341.142,333.529 338.808,335.529 336.5,337.5C 332.115,335.751 330.115,332.418 330.5,327.5C 330.5,324.167 330.5,320.833 330.5,317.5C 331.544,310.659 333.21,303.992 335.5,297.5C 335.833,295.5 336.167,293.5 336.5,291.5C 337.669,288.659 338.669,285.659 339.5,282.5 Z"></path></g><g><path style="opacity:1" fill="#0ce364" d="M 333.5,271.5 C 335.074,271.937 336.241,272.937 337,274.5C 338.591,276.927 339.425,279.593 339.5,282.5C 338.669,285.659 337.669,288.659 336.5,291.5C 335.883,291.611 335.383,291.944 335,292.5C 332.993,291.331 330.827,290.665 328.5,290.5C 328.715,288.821 328.048,287.821 326.5,287.5C 327.939,285.412 328.606,283.079 328.5,280.5C 329.442,276.935 331.109,273.935 333.5,271.5 Z"></path></g><g><path style="opacity:1" fill="#05c746" d="M 326.5,287.5 C 328.048,287.821 328.715,288.821 328.5,290.5C 330.827,290.665 332.993,291.331 335,292.5C 335.383,291.944 335.883,291.611 336.5,291.5C 336.167,293.5 335.833,295.5 335.5,297.5C 334.111,300.097 332.278,302.43 330,304.5C 328.989,303.663 327.822,303.33 326.5,303.5C 326.788,299.698 326.121,296.865 324.5,295C 324.668,292.335 325.335,289.835 326.5,287.5 Z"></path></g><g><path style="opacity:1" fill="#030e55" d="M 561.5,278.5 C 557.975,284.23 553.975,289.563 549.5,294.5C 546.533,295.499 544.366,297.499 543,300.5C 541.871,302.141 540.371,303.141 538.5,303.5C 536.833,302.5 535.5,301.167 534.5,299.5C 536.091,298.781 537.591,297.781 539,296.5C 539.154,293.475 540.654,291.809 543.5,291.5C 543.22,288.612 544.553,287.112 547.5,287C 543.459,286.827 539.459,286.327 535.5,285.5C 538.977,284.833 542.311,284.166 545.5,283.5C 551.125,282.624 556.458,280.957 561.5,278.5 Z"></path></g><g><path style="opacity:1" fill="#14b03c" d="M 328.5,280.5 C 328.606,283.079 327.939,285.412 326.5,287.5C 325.335,289.835 324.668,292.335 324.5,295C 326.121,296.865 326.788,299.698 326.5,303.5C 327.822,303.33 328.989,303.663 330,304.5C 332.278,302.43 334.111,300.097 335.5,297.5C 333.21,303.992 331.544,310.659 330.5,317.5C 327.908,321.051 324.241,322.718 319.5,322.5C 319.5,318.833 319.5,315.167 319.5,311.5C 320.302,300.437 323.302,290.103 328.5,280.5 Z"></path></g><g><path style="opacity:1" fill="#061231" d="M 549.5,294.5 C 547.213,298.122 544.547,301.455 541.5,304.5C 540.105,305.815 539.105,305.481 538.5,303.5C 540.371,303.141 541.871,302.141 543,300.5C 544.366,297.499 546.533,295.499 549.5,294.5 Z"></path></g><g><path style="opacity:1" fill="#69d7f6" d="M 517.5,281.5 C 519.5,284.167 521.833,286.5 524.5,288.5C 527.862,292.192 531.195,295.859 534.5,299.5C 535.5,301.167 536.833,302.5 538.5,303.5C 539.105,305.481 540.105,305.815 541.5,304.5C 542.203,306.716 543.536,308.549 545.5,310C 548.355,312.031 551.022,314.197 553.5,316.5C 548.021,314.35 543.688,315.684 540.5,320.5C 540.5,320.833 540.5,321.167 540.5,321.5C 529.199,311.866 518.532,301.533 508.5,290.5C 509.496,290.414 510.329,290.748 511,291.5C 512.991,288.018 515.158,284.684 517.5,281.5 Z"></path></g><g><path style="opacity:1" fill="#06a251" d="M 449.5,293.5 C 452.241,295.975 454.241,298.975 455.5,302.5C 450.974,304.929 446.307,307.096 441.5,309C 438.24,309.784 435.073,309.617 432,308.5C 431.667,309.167 431.333,309.833 431,310.5C 427.947,307.678 425.447,308.011 423.5,311.5C 422.833,310.833 422.167,310.167 421.5,309.5C 420.85,311.184 419.85,312.517 418.5,313.5C 419.321,309.873 420.654,306.54 422.5,303.5C 424.488,301.399 426.155,298.899 427.5,296C 431.041,295.973 434.041,294.806 436.5,292.5C 440.846,292.548 445.18,292.881 449.5,293.5 Z"></path></g><g><path style="opacity:1" fill="#c6c7cb" d="M 508.5,298.5 C 512.167,301.5 515.5,304.833 518.5,308.5C 517.313,310.826 515.98,313.16 514.5,315.5C 514.709,316.086 515.043,316.586 515.5,317C 512.898,317.935 511.398,319.768 511,322.5C 507.513,323.916 504.346,326.416 501.5,330C 498.706,330.982 496.039,332.149 493.5,333.5C 490.418,331.628 487.751,329.295 485.5,326.5C 490.383,323.892 495.383,321.558 500.5,319.5C 500.5,318.5 500.5,317.5 500.5,316.5C 501.552,316.649 502.552,316.483 503.5,316C 505.616,314.829 506.282,313.329 505.5,311.5C 510.083,307.797 511.083,303.463 508.5,298.5 Z"></path></g><g><path style="opacity:1" fill="#b7b7ba" d="M 389.5,265.5 C 390.29,266.609 390.79,267.942 391,269.5C 391.75,270.126 392.584,270.626 393.5,271C 393.034,272.299 393.034,273.799 393.5,275.5C 394.5,275.5 395.5,275.5 396.5,275.5C 395.756,278.95 397.09,280.616 400.5,280.5C 400.5,282.167 400.5,283.833 400.5,285.5C 403.167,285.833 405.833,286.167 408.5,286.5C 408.154,289.602 408.821,292.435 410.5,295C 412.871,295.735 415.205,296.568 417.5,297.5C 418.182,296.757 418.849,296.091 419.5,295.5C 414.537,313.1 406.203,328.767 394.5,342.5C 385.926,341.261 377.426,341.928 369,344.5C 366.88,343.541 364.713,343.374 362.5,344C 362.833,344.333 363.167,344.667 363.5,345C 361.709,345.415 360.376,346.415 359.5,348C 357.122,348.511 354.788,349.178 352.5,350C 350.266,351.728 348.933,353.562 348.5,355.5C 347.244,355.539 346.244,355.039 345.5,354C 354.577,346.082 361.577,336.582 366.5,325.5C 371.357,318.452 375.191,310.786 378,302.5C 381.941,290.179 385.774,277.846 389.5,265.5 Z"></path></g><g><path style="opacity:1" fill="#034390" d="M 602.5,305.5 C 603.11,306.391 603.443,307.391 603.5,308.5C 601.858,310.971 600.525,313.637 599.5,316.5C 597.5,316.5 595.5,316.5 593.5,316.5C 593.672,315.508 593.338,314.842 592.5,314.5C 592.5,314.167 592.5,313.833 592.5,313.5C 594.103,313.688 595.437,313.188 596.5,312C 596.167,311.667 595.833,311.333 595.5,311C 596.637,308.543 598.137,306.376 600,304.5C 600.671,305.252 601.504,305.586 602.5,305.5 Z"></path></g><g><path style="opacity:1" fill="#045da2" d="M 601.5,300.5 C 602.038,302.117 602.371,303.784 602.5,305.5C 601.504,305.586 600.671,305.252 600,304.5C 598.137,306.376 596.637,308.543 595.5,311C 595.833,311.333 596.167,311.667 596.5,312C 595.437,313.188 594.103,313.688 592.5,313.5C 591.566,312.432 591.232,311.099 591.5,309.5C 592.857,303.786 596.19,300.786 601.5,300.5 Z"></path></g><g><path style="opacity:1" fill="#08c27b" d="M 455.5,302.5 C 460.804,308.808 466.137,315.142 471.5,321.5C 468.95,320.642 466.45,319.642 464,318.5C 463.517,319.448 463.351,320.448 463.5,321.5C 461.533,321.739 459.699,321.406 458,320.5C 456.312,321.325 456.145,322.325 457.5,323.5C 456.224,324.645 454.891,324.645 453.5,323.5C 450.93,326.16 449.43,325.494 449,321.5C 448.333,322.167 447.667,322.833 447,323.5C 445.559,322.13 443.892,321.13 442,320.5C 441.503,317.854 441.336,315.187 441.5,312.5C 444.272,314.434 446.105,313.767 447,310.5C 447.333,311.167 447.667,311.833 448,312.5C 449.009,310.975 449.509,309.308 449.5,307.5C 451.833,307.5 454.167,307.5 456.5,307.5C 456.371,305.784 456.038,304.117 455.5,302.5 Z"></path></g><g><path style="opacity:1" fill="#000652" d="M 603.5,308.5 C 603.5,309.5 603.5,310.5 603.5,311.5C 603.979,315.911 603.312,320.078 601.5,324C 599.023,322.869 596.857,323.369 595,325.5C 593.608,322.722 593.108,319.722 593.5,316.5C 595.5,316.5 597.5,316.5 599.5,316.5C 600.525,313.637 601.858,310.971 603.5,308.5 Z"></path></g><g><path style="opacity:1" fill="#04c06c" d="M 455.5,302.5 C 456.038,304.117 456.371,305.784 456.5,307.5C 454.167,307.5 451.833,307.5 449.5,307.5C 449.509,309.308 449.009,310.975 448,312.5C 447.667,311.833 447.333,311.167 447,310.5C 446.105,313.767 444.272,314.434 441.5,312.5C 441.336,315.187 441.503,317.854 442,320.5C 443.892,321.13 445.559,322.13 447,323.5C 447.667,322.833 448.333,322.167 449,321.5C 449.43,325.494 450.93,326.16 453.5,323.5C 454.891,324.645 456.224,324.645 457.5,323.5C 456.145,322.325 456.312,321.325 458,320.5C 459.699,321.406 461.533,321.739 463.5,321.5C 463.351,320.448 463.517,319.448 464,318.5C 466.45,319.642 468.95,320.642 471.5,321.5C 474.5,323.833 477.167,326.5 479.5,329.5C 474.65,329.702 469.65,329.868 464.5,330C 462.735,331.298 460.901,332.464 459,333.5C 456.121,332.953 453.121,332.953 450,333.5C 448.653,329.625 447.486,329.625 446.5,333.5C 444.629,332.233 442.796,332.233 441,333.5C 437.443,330.561 433.276,329.061 428.5,329C 427.726,326.595 427.226,324.095 427,321.5C 422.666,319.928 418.999,320.928 416,324.5C 415.667,324.167 415.333,323.833 415,323.5C 413.455,327.425 411.288,330.758 408.5,333.5C 411.853,326.795 415.186,320.128 418.5,313.5C 419.85,312.517 420.85,311.184 421.5,309.5C 422.167,310.167 422.833,310.833 423.5,311.5C 425.447,308.011 427.947,307.678 431,310.5C 431.333,309.833 431.667,309.167 432,308.5C 435.073,309.617 438.24,309.784 441.5,309C 446.307,307.096 450.974,304.929 455.5,302.5 Z"></path></g><g><path style="opacity:1" fill="#3a97c6" d="M 559.5,325.5 C 558.5,325.5 557.5,325.5 556.5,325.5C 556.307,322.43 554.973,321.43 552.5,322.5C 551.85,322.196 551.183,321.863 550.5,321.5C 548.814,322.857 547.148,324.19 545.5,325.5C 543.833,324.167 542.167,322.833 540.5,321.5C 540.5,321.167 540.5,320.833 540.5,320.5C 545.385,318.512 550.385,318.178 555.5,319.5C 557.503,321.133 558.836,323.133 559.5,325.5 Z"></path></g><g><path style="opacity:1" fill="#050730" d="M 603.5,311.5 C 605.228,317.238 605.895,323.238 605.5,329.5C 599.195,332.694 592.528,333.361 585.5,331.5C 584.209,331.737 583.209,331.404 582.5,330.5C 585.862,330.93 588.695,329.93 591,327.5C 592.367,323.3 592.867,318.967 592.5,314.5C 593.338,314.842 593.672,315.508 593.5,316.5C 593.108,319.722 593.608,322.722 595,325.5C 596.857,323.369 599.023,322.869 601.5,324C 603.312,320.078 603.979,315.911 603.5,311.5 Z"></path></g><g><path style="opacity:1" fill="#0d7a1c" d="M 319.5,311.5 C 319.5,315.167 319.5,318.833 319.5,322.5C 324.241,322.718 327.908,321.051 330.5,317.5C 330.5,320.833 330.5,324.167 330.5,327.5C 328.896,328.287 328.229,329.62 328.5,331.5C 325.938,332.18 323.271,332.347 320.5,332C 319.587,333.414 319.587,334.914 320.5,336.5C 319.539,338.265 319.205,340.265 319.5,342.5C 316.911,332.175 316.911,321.841 319.5,311.5 Z"></path></g><g><path style="opacity:1" fill="#0fbe46" d="M 360.5,302.5 C 359.915,306.395 358.581,310.062 356.5,313.5C 357.878,316.354 359.545,319.02 361.5,321.5C 362.237,318.149 364.237,316.149 367.5,315.5C 365.234,319.034 363.234,322.7 361.5,326.5C 358.409,331.014 355.075,335.347 351.5,339.5C 349.833,339.5 348.167,339.5 346.5,339.5C 346.5,340.833 346.5,342.167 346.5,343.5C 345.5,343.5 344.5,343.5 343.5,343.5C 343.84,340.856 343.173,338.523 341.5,336.5C 342.456,334.925 343.123,333.258 343.5,331.5C 349.273,322.956 354.273,313.956 358.5,304.5C 359.167,303.833 359.833,303.167 360.5,302.5 Z"></path></g><g><path style="opacity:1" fill="#055c06" d="M 330.5,327.5 C 330.115,332.418 332.115,335.751 336.5,337.5C 334.834,339.828 332.501,340.828 329.5,340.5C 325.861,340.512 322.861,339.179 320.5,336.5C 319.587,334.914 319.587,333.414 320.5,332C 323.271,332.347 325.938,332.18 328.5,331.5C 328.229,329.62 328.896,328.287 330.5,327.5 Z"></path></g><g><path style="opacity:1" fill="#28afdc" d="M 553.5,316.5 C 562.501,322.5 572.168,327.167 582.5,330.5C 583.209,331.404 584.209,331.737 585.5,331.5C 586.64,332.801 587.973,333.968 589.5,335C 586.764,335.422 584.098,335.422 581.5,335C 582.551,336.385 583.884,337.385 585.5,338C 584.185,339.395 584.519,340.395 586.5,341C 585.095,342.269 583.429,342.769 581.5,342.5C 581.5,343.5 581.5,344.5 581.5,345.5C 577.411,344.291 573.411,342.791 569.5,341C 567.416,340.303 565.749,339.136 564.5,337.5C 562.054,333.829 560.387,329.829 559.5,325.5C 558.836,323.133 557.503,321.133 555.5,319.5C 550.385,318.178 545.385,318.512 540.5,320.5C 543.688,315.684 548.021,314.35 553.5,316.5 Z"></path></g><g><path style="opacity:1" fill="#2074ac" d="M 559.5,325.5 C 560.387,329.829 562.054,333.829 564.5,337.5C 563.167,337.167 561.833,336.833 560.5,336.5C 558.488,333.795 556.488,331.128 554.5,328.5C 553.833,326.5 553.167,324.5 552.5,322.5C 554.973,321.43 556.307,322.43 556.5,325.5C 557.5,325.5 558.5,325.5 559.5,325.5 Z"></path></g><g><path style="opacity:1" fill="#a8a8aa" d="M 518.5,308.5 C 525.867,316.034 533.7,323.034 542,329.5C 543.376,328.295 544.542,326.962 545.5,325.5C 547.148,324.19 548.814,322.857 550.5,321.5C 551.183,321.863 551.85,322.196 552.5,322.5C 553.167,324.5 553.833,326.5 554.5,328.5C 553.265,330.773 553.598,332.606 555.5,334C 553.497,336.089 552.33,338.589 552,341.5C 550.89,343.037 549.39,343.703 547.5,343.5C 547.361,346.588 546.361,349.255 544.5,351.5C 543.178,351.33 542.011,351.663 541,352.5C 540.825,355.157 540.992,357.824 541.5,360.5C 542.791,360.263 543.791,360.596 544.5,361.5C 533.926,363.113 523.426,362.779 513,360.5C 511.743,360.15 511.409,359.483 512,358.5C 514.643,357.024 516.81,355.024 518.5,352.5C 509.272,347.262 500.938,340.929 493.5,333.5C 496.039,332.149 498.706,330.982 501.5,330C 504.346,326.416 507.513,323.916 511,322.5C 511.398,319.768 512.898,317.935 515.5,317C 515.043,316.586 514.709,316.086 514.5,315.5C 515.98,313.16 517.313,310.826 518.5,308.5 Z"></path></g><g><path style="opacity:1" fill="#0a93ca" d="M 605.5,329.5 C 603.092,343.243 595.092,348.577 581.5,345.5C 581.5,344.5 581.5,343.5 581.5,342.5C 583.429,342.769 585.095,342.269 586.5,341C 584.519,340.395 584.185,339.395 585.5,338C 583.884,337.385 582.551,336.385 581.5,335C 584.098,335.422 586.764,335.422 589.5,335C 587.973,333.968 586.64,332.801 585.5,331.5C 592.528,333.361 599.195,332.694 605.5,329.5 Z"></path></g><g><path style="opacity:1" fill="#109a37" d="M 483.5,333.5 C 491.242,341.207 499.909,347.707 509.5,353C 497.531,350.453 486.197,346.119 475.5,340C 473.866,339.506 472.199,339.34 470.5,339.5C 469.737,338.732 468.737,338.232 467.5,338C 467.833,337.667 468.167,337.333 468.5,337C 473.794,336.885 478.794,335.718 483.5,333.5 Z"></path></g><g><path style="opacity:1" fill="#0bac38" d="M 343.5,331.5 C 343.123,333.258 342.456,334.925 341.5,336.5C 343.173,338.523 343.84,340.856 343.5,343.5C 344.5,343.5 345.5,343.5 346.5,343.5C 346.5,342.167 346.5,340.833 346.5,339.5C 348.167,339.5 349.833,339.5 351.5,339.5C 346.034,346.803 338.868,351.469 330,353.5C 323.592,352.592 320.092,348.926 319.5,342.5C 319.205,340.265 319.539,338.265 320.5,336.5C 322.861,339.179 325.861,340.512 329.5,340.5C 332.501,340.828 334.834,339.828 336.5,337.5C 338.808,335.529 341.142,333.529 343.5,331.5 Z"></path></g><g><path style="opacity:1" fill="#05b353" d="M 479.5,329.5 C 481.167,330.5 482.5,331.833 483.5,333.5C 478.794,335.718 473.794,336.885 468.5,337C 468.167,337.333 467.833,337.667 467.5,338C 468.737,338.232 469.737,338.732 470.5,339.5C 470.167,339.5 469.833,339.5 469.5,339.5C 452.767,341.598 436.267,340.598 420,336.5C 417.992,336.307 416.492,336.974 415.5,338.5C 410.506,341.832 405.173,344.332 399.5,346C 402.889,342.031 405.889,337.864 408.5,333.5C 411.288,330.758 413.455,327.425 415,323.5C 415.333,323.833 415.667,324.167 416,324.5C 418.999,320.928 422.666,319.928 427,321.5C 427.226,324.095 427.726,326.595 428.5,329C 433.276,329.061 437.443,330.561 441,333.5C 442.796,332.233 444.629,332.233 446.5,333.5C 447.486,329.625 448.653,329.625 450,333.5C 453.121,332.953 456.121,332.953 459,333.5C 460.901,332.464 462.735,331.298 464.5,330C 469.65,329.868 474.65,329.702 479.5,329.5 Z"></path></g><g><path style="opacity:1" fill="#1a8d46" d="M 469.5,339.5 C 463.246,341.054 456.746,341.72 450,341.5C 438.42,341.298 426.92,340.298 415.5,338.5C 416.492,336.974 417.992,336.307 420,336.5C 436.267,340.598 452.767,341.598 469.5,339.5 Z"></path></g><g><path style="opacity:1" fill="#cdced1" d="M 394.5,342.5 C 382.041,357.436 366.708,361.769 348.5,355.5C 348.933,353.562 350.266,351.728 352.5,350C 354.788,349.178 357.122,348.511 359.5,348C 360.376,346.415 361.709,345.415 363.5,345C 363.167,344.667 362.833,344.333 362.5,344C 364.713,343.374 366.88,343.541 369,344.5C 377.426,341.928 385.926,341.261 394.5,342.5 Z"></path></g><g><path style="opacity:1" fill="#bababd" d="M 554.5,328.5 C 556.488,331.128 558.488,333.795 560.5,336.5C 565.895,343.036 572.561,347.869 580.5,351C 568.926,356.059 556.926,359.559 544.5,361.5C 543.791,360.596 542.791,360.263 541.5,360.5C 540.992,357.824 540.825,355.157 541,352.5C 542.011,351.663 543.178,351.33 544.5,351.5C 546.361,349.255 547.361,346.588 547.5,343.5C 549.39,343.703 550.89,343.037 552,341.5C 552.33,338.589 553.497,336.089 555.5,334C 553.598,332.606 553.265,330.773 554.5,328.5 Z"></path></g></svg>