<svg xmlns="http://www.w3.org/2000/svg" xmlns:xlink="http://www.w3.org/1999/xlink" width="512px" height="512px" style="shape-rendering:geometricPrecision; text-rendering:geometricPrecision; image-rendering:optimizeQuality; fill-rule:evenodd; clip-rule:evenodd"><g><path style="opacity:0.631" fill="#616264" d="M 311.5,58.5 C 327.338,57.1734 343.338,57.1734 359.5,58.5C 359.043,59.2975 358.376,59.6309 357.5,59.5C 342.342,58.5038 327.009,58.1705 311.5,58.5 Z"></path></g><g><path style="opacity:1" fill="#ffcc38" d="M 282.5,69.5 C 283.779,65.698 286.112,62.5313 289.5,60C 274.833,59.3333 260.167,59.3333 245.5,60C 243.176,63.323 240.509,66.323 237.5,69C 236.552,69.4828 235.552,69.6495 234.5,69.5C 237.963,65.5357 241.63,61.7023 245.5,58C 261.51,57.1671 277.51,57.3338 293.5,58.5C 290.146,62.521 286.479,66.1877 282.5,69.5 Z"></path></g><g><path style="opacity:0.997" fill="#252123" d="M 310.5,59.5 C 310.5,58.8333 310.833,58.5 311.5,58.5C 327.009,58.1705 342.342,58.5038 357.5,59.5C 357.5,60.1667 357.167,60.5 356.5,60.5C 341.245,59.5166 325.911,59.1832 310.5,59.5 Z"></path></g><g><path style="opacity:0.678" fill="#5a5b5d" d="M 226.5,59.5 C 225.791,58.596 224.791,58.2627 223.5,58.5C 197.833,58.5 172.167,58.5 146.5,58.5C 146.5,85.5 146.5,112.5 146.5,139.5C 146.328,140.492 146.662,141.158 147.5,141.5C 147.217,142.289 146.717,142.956 146,143.5C 145.5,114.835 145.333,86.1686 145.5,57.5C 173.169,57.3334 200.835,57.5 228.5,58C 227.956,58.7172 227.289,59.2172 226.5,59.5 Z"></path></g><g><path style="opacity:1" fill="#262324" d="M 223.5,58.5 C 198.339,59.4977 173.005,59.8311 147.5,59.5C 147.831,86.3386 147.498,113.005 146.5,139.5C 146.5,112.5 146.5,85.5 146.5,58.5C 172.167,58.5 197.833,58.5 223.5,58.5 Z"></path></g><g><path style="opacity:1" fill="#414142" d="M 223.5,58.5 C 224.791,58.2627 225.791,58.596 226.5,59.5C 200.139,86.8599 173.806,114.193 147.5,141.5C 146.662,141.158 146.328,140.492 146.5,139.5C 147.498,113.005 147.831,86.3386 147.5,59.5C 173.005,59.8311 198.339,59.4977 223.5,58.5 Z"></path></g><g><path style="opacity:1" fill="#ffcb0f" d="M 282.5,69.5 C 277.833,74.8333 272.833,79.8333 267.5,84.5C 263.398,86.2662 260.731,89.2662 259.5,93.5C 255.5,98.1667 251.167,102.5 246.5,106.5C 242.765,108.725 239.432,111.558 236.5,115C 237.056,115.383 237.389,115.883 237.5,116.5C 232.5,122.167 227.167,127.5 221.5,132.5C 217.726,133.938 215.393,136.605 214.5,140.5C 209.5,146.167 204.167,151.5 198.5,156.5C 194.726,157.938 192.393,160.605 191.5,164.5C 186.5,170.167 181.167,175.5 175.5,180.5C 171.726,181.938 169.393,184.605 168.5,188.5C 164.167,193.5 159.5,198.167 154.5,202.5C 151.944,203.543 149.777,205.21 148,207.5C 148.139,199.435 147.305,191.768 145.5,184.5C 144.715,177.177 144.548,169.844 145,162.5C 167.398,139.605 189.564,116.605 211.5,93.5C 214.875,93.4689 216.875,91.4689 217.5,87.5C 223.195,81.4737 228.861,75.4737 234.5,69.5C 235.552,69.6495 236.552,69.4828 237.5,69C 240.509,66.323 243.176,63.323 245.5,60C 260.167,59.3333 274.833,59.3333 289.5,60C 286.112,62.5313 283.779,65.698 282.5,69.5 Z"></path></g><g><path style="opacity:1" fill="#414142" d="M 310.5,59.5 C 325.911,59.1832 341.245,59.5166 356.5,60.5C 356.631,61.2389 356.464,61.9056 356,62.5C 321.651,98.0151 287.484,133.682 253.5,169.5C 287.887,205.218 321.887,241.218 355.5,277.5C 354.226,278.189 354.226,279.023 355.5,280C 337.833,280.667 320.167,280.667 302.5,280C 301.178,277.832 300.511,277.999 300.5,280.5C 275.195,253.027 249.361,226.027 223,199.5C 198.003,225.664 173.169,251.998 148.5,278.5C 147.351,263.241 147.184,247.908 148,232.5C 150.167,230.333 152.333,228.167 154.5,226C 154.272,225.601 153.938,225.435 153.5,225.5C 205.108,169.556 257.442,114.223 310.5,59.5 Z"></path></g><g><path style="opacity:0.937" fill="#ffd257" d="M 267.5,84.5 C 265.547,88.1203 262.881,91.1203 259.5,93.5C 260.731,89.2662 263.398,86.2662 267.5,84.5 Z"></path></g><g><path style="opacity:0.946" fill="#ffd156" d="M 217.5,87.5 C 216.875,91.4689 214.875,93.4689 211.5,93.5C 213.167,91.1667 215.167,89.1667 217.5,87.5 Z"></path></g><g><path style="opacity:0.851" fill="#ffd35a" d="M 246.5,106.5 C 244.234,110.436 241.234,113.769 237.5,116.5C 237.389,115.883 237.056,115.383 236.5,115C 239.432,111.558 242.765,108.725 246.5,106.5 Z"></path></g><g><path style="opacity:0.937" fill="#ffd259" d="M 221.5,132.5 C 219.906,135.764 217.573,138.431 214.5,140.5C 215.393,136.605 217.726,133.938 221.5,132.5 Z"></path></g><g><path style="opacity:0.875" fill="#ffd35a" d="M 198.5,156.5 C 196.906,159.764 194.573,162.431 191.5,164.5C 192.393,160.605 194.726,157.938 198.5,156.5 Z"></path></g><g><path style="opacity:0.937" fill="#ffd35b" d="M 175.5,180.5 C 173.906,183.764 171.573,186.431 168.5,188.5C 169.393,184.605 171.726,181.938 175.5,180.5 Z"></path></g><g><path style="opacity:0.995" fill="#ffce42" d="M 145.5,184.5 C 147.305,191.768 148.139,199.435 148,207.5C 149.777,205.21 151.944,203.543 154.5,202.5C 152.592,206.08 149.926,209.08 146.5,211.5C 145.502,202.525 145.168,193.525 145.5,184.5 Z"></path></g><g><path style="opacity:0.996" fill="#252122" d="M 221.5,219.5 C 222.497,239.993 222.831,260.66 222.5,281.5C 202.993,281.83 183.659,281.497 164.5,280.5C 165.167,279.833 165.833,279.167 166.5,278.5C 168.379,278.393 168.712,278.893 167.5,280C 185.497,280.5 203.497,280.667 221.5,280.5C 221.667,261.164 221.5,241.83 221,222.5C 220.617,221.944 220.117,221.611 219.5,221.5C 219.833,220.5 220.5,219.833 221.5,219.5 Z"></path></g><g><path style="opacity:1" fill="#414042" d="M 219.5,221.5 C 220.117,221.611 220.617,221.944 221,222.5C 221.5,241.83 221.667,261.164 221.5,280.5C 203.497,280.667 185.497,280.5 167.5,280C 168.712,278.893 168.379,278.393 166.5,278.5C 183.828,259.173 201.494,240.173 219.5,221.5 Z"></path></g><g><path style="opacity:0.725" fill="#4f4f51" d="M 146.5,232.5 C 146.17,248.675 146.504,264.675 147.5,280.5C 147.217,281.289 146.717,281.956 146,282.5C 145.172,265.662 145.338,248.995 146.5,232.5 Z"></path></g><g><path style="opacity:1" fill="#2f2c2d" d="M 153.5,225.5 C 153.938,225.435 154.272,225.601 154.5,226C 152.333,228.167 150.167,230.333 148,232.5C 147.184,247.908 147.351,263.241 148.5,278.5C 148.672,279.492 148.338,280.158 147.5,280.5C 146.504,264.675 146.17,248.675 146.5,232.5C 148.5,229.833 150.833,227.5 153.5,225.5 Z"></path></g><g><path style="opacity:0.992" fill="#2a2627" d="M 355.5,277.5 C 356.833,278.167 357.833,279.167 358.5,280.5C 339.674,281.497 320.674,281.83 301.5,281.5C 300.833,281.5 300.5,281.167 300.5,280.5C 300.511,277.999 301.178,277.832 302.5,280C 320.167,280.667 337.833,280.667 355.5,280C 354.226,279.023 354.226,278.189 355.5,277.5 Z"></path></g><g><path style="opacity:0.431" fill="#848588" d="M 164.5,280.5 C 183.659,281.497 202.993,281.83 222.5,281.5C 222.831,260.66 222.497,239.993 221.5,219.5C 221.783,218.711 222.283,218.044 223,217.5C 223.5,239.164 223.667,260.831 223.5,282.5C 203.489,282.833 183.489,282.5 163.5,281.5C 163.624,280.893 163.957,280.56 164.5,280.5 Z"></path></g><g><path style="opacity:0.431" fill="#898b8e" d="M 358.5,280.5 C 359.043,280.56 359.376,280.893 359.5,281.5C 340.004,282.828 320.671,282.828 301.5,281.5C 320.674,281.83 339.674,281.497 358.5,280.5 Z"></path></g><g><path style="opacity:1" fill="#474648" d="M 295.5,301.5 C 295.5,304.833 295.5,308.167 295.5,311.5C 291.833,311.5 288.167,311.5 284.5,311.5C 284.5,308.167 284.5,304.833 284.5,301.5C 288.167,300.167 291.833,300.167 295.5,301.5 Z"></path></g><g><path style="opacity:0.353" fill="#939598" d="M 284.5,301.5 C 284.5,304.833 284.5,308.167 284.5,311.5C 288.167,311.5 291.833,311.5 295.5,311.5C 295.5,308.167 295.5,304.833 295.5,301.5C 296.482,304.962 296.815,308.629 296.5,312.5C 292.167,312.5 287.833,312.5 283.5,312.5C 283.185,308.629 283.518,304.962 284.5,301.5 Z"></path></g><g><path style="opacity:0.431" fill="#8d8f92" d="M 173.5,328.5 C 173.5,325.167 173.5,321.833 173.5,318.5C 169.833,318.5 166.167,318.5 162.5,318.5C 162.5,321.833 162.5,325.167 162.5,328.5C 161.518,325.038 161.185,321.371 161.5,317.5C 165.833,317.5 170.167,317.5 174.5,317.5C 174.815,321.371 174.482,325.038 173.5,328.5 Z"></path></g><g><path style="opacity:1" fill="#393839" d="M 173.5,328.5 C 169.833,328.5 166.167,328.5 162.5,328.5C 162.5,325.167 162.5,321.833 162.5,318.5C 166.167,318.5 169.833,318.5 173.5,318.5C 173.5,321.833 173.5,325.167 173.5,328.5 Z"></path></g><g><path style="opacity:0.196" fill="#afb1b3" d="M 191.5,318.5 C 187.5,318.5 183.5,318.5 179.5,318.5C 179.5,321.833 179.5,325.167 179.5,328.5C 178.518,325.038 178.185,321.371 178.5,317.5C 183.032,317.182 187.366,317.515 191.5,318.5 Z"></path></g><g><path style="opacity:1" fill="#3c3c3d" d="M 191.5,318.5 C 191.5,321.833 191.5,325.167 191.5,328.5C 187.5,328.5 183.5,328.5 179.5,328.5C 179.5,325.167 179.5,321.833 179.5,318.5C 183.5,318.5 187.5,318.5 191.5,318.5 Z"></path></g><g><path style="opacity:0.275" fill="#9b9d9f" d="M 286.5,328.5 C 286.5,325.167 286.5,321.833 286.5,318.5C 282.833,318.5 279.167,318.5 275.5,318.5C 275.5,321.833 275.5,325.167 275.5,328.5C 274.518,325.038 274.185,321.371 274.5,317.5C 278.833,317.5 283.167,317.5 287.5,317.5C 287.815,321.371 287.482,325.038 286.5,328.5 Z"></path></g><g><path style="opacity:1" fill="#393839" d="M 286.5,328.5 C 282.833,328.5 279.167,328.5 275.5,328.5C 275.5,325.167 275.5,321.833 275.5,318.5C 279.167,318.5 282.833,318.5 286.5,318.5C 286.5,321.833 286.5,325.167 286.5,328.5 Z"></path></g><g><path style="opacity:0.165" fill="#b2b4b6" d="M 304.5,318.5 C 300.5,318.5 296.5,318.5 292.5,318.5C 292.5,321.833 292.5,325.167 292.5,328.5C 291.518,325.038 291.185,321.371 291.5,317.5C 296.032,317.182 300.366,317.515 304.5,318.5 Z"></path></g><g><path style="opacity:1" fill="#3c3b3c" d="M 304.5,318.5 C 304.5,321.833 304.5,325.167 304.5,328.5C 300.5,328.5 296.5,328.5 292.5,328.5C 292.5,325.167 292.5,321.833 292.5,318.5C 296.5,318.5 300.5,318.5 304.5,318.5 Z"></path></g><g><path style="opacity:1" fill="#424243" d="M 463.5,346.5 C 462.506,355.652 462.173,364.985 462.5,374.5C 438.661,374.169 414.994,374.502 391.5,375.5C 391.167,375.5 390.833,375.5 390.5,375.5C 384.5,375.5 381.5,372.5 381.5,366.5C 382.496,352.343 382.829,338.01 382.5,323.5C 385.5,323.5 388.5,323.5 391.5,323.5C 391.171,336.344 391.505,349.011 392.5,361.5C 392.833,361.5 393.167,361.5 393.5,361.5C 394.5,361.833 395.167,362.5 395.5,363.5C 414.326,364.497 433.326,364.83 452.5,364.5C 452.81,361.287 452.477,358.287 451.5,355.5C 451.389,354.883 451.056,354.383 450.5,354C 434.833,353.667 419.167,353.333 403.5,353C 402.167,348.333 402.167,343.667 403.5,339C 414.339,332.081 425.006,324.914 435.5,317.5C 436.973,320.28 438.307,323.113 439.5,326C 432.833,330.667 426.167,335.333 419.5,340C 432.833,340.333 446.167,340.667 459.5,341C 461.928,342.018 463.262,343.852 463.5,346.5 Z"></path></g><g><path style="opacity:0.999" fill="#464344" d="M 381.5,322.5 C 385.167,322.5 388.833,322.5 392.5,322.5C 392.5,335.5 392.5,348.5 392.5,361.5C 391.505,349.011 391.171,336.344 391.5,323.5C 388.5,323.5 385.5,323.5 382.5,323.5C 382.829,338.01 382.496,352.343 381.5,366.5C 380.167,351.833 380.167,337.167 381.5,322.5 Z"></path></g><g><path style="opacity:0.631" fill="#6f7173" d="M 381.5,322.5 C 385.298,321.517 389.298,321.183 393.5,321.5C 393.5,334.833 393.5,348.167 393.5,361.5C 393.167,361.5 392.833,361.5 392.5,361.5C 392.5,348.5 392.5,335.5 392.5,322.5C 388.833,322.5 385.167,322.5 381.5,322.5 Z"></path></g><g><path style="opacity:0.998" fill="#221f1f" d="M 72.5,335.5 C 84.5,335.5 96.5,335.5 108.5,335.5C 108.5,344.833 108.5,354.167 108.5,363.5C 107.507,354.682 107.173,345.682 107.5,336.5C 95.6547,336.828 83.988,336.495 72.5,335.5 Z"></path></g><g><path style="opacity:1" fill="#231f20" d="M 148.5,362.5 C 147.507,354.016 147.174,345.349 147.5,336.5C 144.5,336.5 141.5,336.5 138.5,336.5C 138.666,345.173 138.5,353.84 138,362.5C 137.31,363.738 136.81,363.738 136.5,362.5C 136.5,362.167 136.5,361.833 136.5,361.5C 137.493,353.016 137.826,344.349 137.5,335.5C 141.167,335.5 144.833,335.5 148.5,335.5C 148.5,344.5 148.5,353.5 148.5,362.5 Z"></path></g><g><path style="opacity:0.998" fill="#221f1f" d="M 190.5,369.5 C 189.505,358.679 189.172,347.679 189.5,336.5C 186.5,336.5 183.5,336.5 180.5,336.5C 180.826,345.349 180.493,354.016 179.5,362.5C 179.5,353.5 179.5,344.5 179.5,335.5C 183.167,335.5 186.833,335.5 190.5,335.5C 190.5,346.833 190.5,358.167 190.5,369.5 Z"></path></g><g><path style="opacity:0.999" fill="#242021" d="M 239.5,376.5 C 238.504,363.344 238.171,350.01 238.5,336.5C 235.5,336.5 232.5,336.5 229.5,336.5C 229.5,353.833 229.5,371.167 229.5,388.5C 242.414,388.449 255.081,388.449 267.5,388.5C 267.158,389.338 266.492,389.672 265.5,389.5C 253.167,389.5 240.833,389.5 228.5,389.5C 228.5,371.5 228.5,353.5 228.5,335.5C 232.167,335.5 235.833,335.5 239.5,335.5C 239.5,349.167 239.5,362.833 239.5,376.5 Z"></path></g><g><path style="opacity:1" fill="#221f1f" d="M 270.5,363.5 C 269.507,354.682 269.173,345.682 269.5,336.5C 266.5,336.5 263.5,336.5 260.5,336.5C 260.829,350.01 260.496,363.344 259.5,376.5C 259.5,362.833 259.5,349.167 259.5,335.5C 263.167,335.5 266.833,335.5 270.5,335.5C 270.5,344.833 270.5,354.167 270.5,363.5 Z"></path></g><g><path style="opacity:0.998" fill="#231f20" d="M 319.5,367.5 C 318.506,357.347 318.172,347.014 318.5,336.5C 315.5,336.5 312.5,336.5 309.5,336.5C 309.826,345.349 309.493,354.016 308.5,362.5C 308.5,353.5 308.5,344.5 308.5,335.5C 312.167,335.5 315.833,335.5 319.5,335.5C 319.5,346.167 319.5,356.833 319.5,367.5 Z"></path></g><g><path style="opacity:0.999" fill="#242021" d="M 334.5,335.5 C 346.167,335.5 357.833,335.5 369.5,335.5C 369.5,353.167 369.5,370.833 369.5,388.5C 368.503,371.341 368.17,354.008 368.5,336.5C 356.253,336.554 344.253,336.554 332.5,336.5C 332.842,335.662 333.508,335.328 334.5,335.5 Z"></path></g><g><path style="opacity:1" fill="#424243" d="M 72.5,335.5 C 83.988,336.495 95.6547,336.828 107.5,336.5C 107.173,345.682 107.507,354.682 108.5,363.5C 116.167,364.833 123.833,364.833 131.5,363.5C 133.216,363.371 134.883,363.038 136.5,362.5C 136.81,363.738 137.31,363.738 138,362.5C 138.5,353.84 138.666,345.173 138.5,336.5C 141.5,336.5 144.5,336.5 147.5,336.5C 147.174,345.349 147.507,354.016 148.5,362.5C 148.833,362.5 149.167,362.5 149.5,362.5C 159.167,363.833 168.833,363.833 178.5,362.5C 178.833,362.5 179.167,362.5 179.5,362.5C 180.493,354.016 180.826,345.349 180.5,336.5C 183.5,336.5 186.5,336.5 189.5,336.5C 189.172,347.679 189.505,358.679 190.5,369.5C 190.703,371.39 190.037,372.89 188.5,374C 186.285,375.044 183.952,375.71 181.5,376C 172.167,376.667 162.833,376.667 153.5,376C 150.667,375.167 148.833,373.333 148,370.5C 146.62,373.883 144.12,375.716 140.5,376C 114.997,376.168 89.6634,376.668 64.5,377.5C 64.1667,377.5 63.8333,377.5 63.5,377.5C 62.5,382.068 62.1666,387.401 62.5,393.5C 59.5,393.5 56.5,393.5 53.5,393.5C 53.8254,385.648 53.492,377.982 52.5,370.5C 52.5,370.167 52.5,369.833 52.5,369.5C 53.1667,366.833 54.8333,365.167 57.5,364.5C 60.5,364.5 63.5,364.5 66.5,364.5C 66.5,356.833 66.5,349.167 66.5,341.5C 66.8715,337.795 68.8715,335.795 72.5,335.5 Z M 96.5,348.5 C 96.5,353.5 96.5,358.5 96.5,363.5C 90.5,363.5 84.5,363.5 78.5,363.5C 78.5,358.5 78.5,353.5 78.5,348.5C 84.4008,347.194 90.4008,347.194 96.5,348.5 Z"></path></g><g><path style="opacity:0.455" fill="#7e8082" d="M 72.5,335.5 C 84.6554,334.505 96.9887,334.171 109.5,334.5C 109.5,344.167 109.5,353.833 109.5,363.5C 116.833,363.5 124.167,363.5 131.5,363.5C 123.833,364.833 116.167,364.833 108.5,363.5C 108.5,354.167 108.5,344.833 108.5,335.5C 96.5,335.5 84.5,335.5 72.5,335.5 Z"></path></g><g><path style="opacity:0.537" fill="#7d7f82" d="M 149.5,362.5 C 149.167,362.5 148.833,362.5 148.5,362.5C 148.5,353.5 148.5,344.5 148.5,335.5C 144.833,335.5 141.167,335.5 137.5,335.5C 137.826,344.349 137.493,353.016 136.5,361.5C 136.5,352.5 136.5,343.5 136.5,334.5C 140.833,334.5 145.167,334.5 149.5,334.5C 149.5,343.833 149.5,353.167 149.5,362.5 Z"></path></g><g><path style="opacity:0.608" fill="#828486" d="M 190.5,369.5 C 190.5,358.167 190.5,346.833 190.5,335.5C 186.833,335.5 183.167,335.5 179.5,335.5C 179.5,344.5 179.5,353.5 179.5,362.5C 179.167,362.5 178.833,362.5 178.5,362.5C 178.5,353.167 178.5,343.833 178.5,334.5C 182.833,334.5 187.167,334.5 191.5,334.5C 191.828,346.345 191.495,358.012 190.5,369.5 Z"></path></g><g><path style="opacity:0.431" fill="#8b8d90" d="M 240.5,376.5 C 240.167,376.5 239.833,376.5 239.5,376.5C 239.5,362.833 239.5,349.167 239.5,335.5C 235.833,335.5 232.167,335.5 228.5,335.5C 228.5,353.5 228.5,371.5 228.5,389.5C 240.833,389.5 253.167,389.5 265.5,389.5C 253.011,390.495 240.344,390.829 227.5,390.5C 227.5,371.833 227.5,353.167 227.5,334.5C 231.833,334.5 236.167,334.5 240.5,334.5C 240.5,348.5 240.5,362.5 240.5,376.5 Z"></path></g><g><path style="opacity:1" fill="#424243" d="M 239.5,376.5 C 239.833,376.5 240.167,376.5 240.5,376.5C 246.5,377.833 252.5,377.833 258.5,376.5C 258.833,376.5 259.167,376.5 259.5,376.5C 260.496,363.344 260.829,350.01 260.5,336.5C 263.5,336.5 266.5,336.5 269.5,336.5C 269.173,345.682 269.507,354.682 270.5,363.5C 270.833,363.5 271.167,363.5 271.5,363.5C 275.269,363.756 278.936,363.423 282.5,362.5C 282.833,362.5 283.167,362.5 283.5,362.5C 284.493,354.016 284.826,345.349 284.5,336.5C 287.5,336.5 290.5,336.5 293.5,336.5C 293.334,344.84 293.5,353.173 294,361.5C 294.171,352.99 294.671,344.657 295.5,336.5C 295.334,344.84 295.5,353.173 296,361.5C 299.579,363.839 303.413,364.172 307.5,362.5C 307.833,362.5 308.167,362.5 308.5,362.5C 309.493,354.016 309.826,345.349 309.5,336.5C 312.5,336.5 315.5,336.5 318.5,336.5C 318.172,347.014 318.506,357.347 319.5,367.5C 319.854,370.961 318.521,373.461 315.5,375C 309.475,376.872 303.475,376.872 297.5,375C 295.951,373.786 294.785,372.286 294,370.5C 292.809,373.534 290.642,375.201 287.5,375.5C 281.833,375.5 276.167,375.5 270.5,375.5C 270.5,378.167 270.5,380.833 270.5,383.5C 270.727,385.933 269.727,387.599 267.5,388.5C 255.081,388.449 242.414,388.449 229.5,388.5C 229.5,371.167 229.5,353.833 229.5,336.5C 232.5,336.5 235.5,336.5 238.5,336.5C 238.171,350.01 238.504,363.344 239.5,376.5 Z"></path></g><g><path style="opacity:0.486" fill="#858789" d="M 271.5,363.5 C 271.167,363.5 270.833,363.5 270.5,363.5C 270.5,354.167 270.5,344.833 270.5,335.5C 266.833,335.5 263.167,335.5 259.5,335.5C 259.5,349.167 259.5,362.833 259.5,376.5C 259.167,376.5 258.833,376.5 258.5,376.5C 258.5,362.5 258.5,348.5 258.5,334.5C 262.833,334.5 267.167,334.5 271.5,334.5C 271.5,344.167 271.5,353.833 271.5,363.5 Z"></path></g><g><path style="opacity:0.11" fill="#b5b6b8" d="M 295.5,335.5 C 291.5,335.5 287.5,335.5 283.5,335.5C 283.5,344.5 283.5,353.5 283.5,362.5C 283.167,362.5 282.833,362.5 282.5,362.5C 282.5,353.167 282.5,343.833 282.5,334.5C 287.032,334.182 291.366,334.515 295.5,335.5 Z"></path></g><g><path style="opacity:1" fill="#252223" d="M 295.5,335.5 C 295.5,335.833 295.5,336.167 295.5,336.5C 294.671,344.657 294.171,352.99 294,361.5C 293.5,353.173 293.334,344.84 293.5,336.5C 290.5,336.5 287.5,336.5 284.5,336.5C 284.826,345.349 284.493,354.016 283.5,362.5C 283.5,353.5 283.5,344.5 283.5,335.5C 287.5,335.5 291.5,335.5 295.5,335.5 Z"></path></g><g><path style="opacity:0.322" fill="#999b9d" d="M 319.5,367.5 C 319.5,356.833 319.5,346.167 319.5,335.5C 315.833,335.5 312.167,335.5 308.5,335.5C 308.5,344.5 308.5,353.5 308.5,362.5C 308.167,362.5 307.833,362.5 307.5,362.5C 307.5,353.167 307.5,343.833 307.5,334.5C 311.833,334.5 316.167,334.5 320.5,334.5C 320.828,345.679 320.495,356.679 319.5,367.5 Z"></path></g><g><path style="opacity:1" fill="#414041" d="M 332.5,336.5 C 344.253,336.554 356.253,336.554 368.5,336.5C 368.17,354.008 368.503,371.341 369.5,388.5C 369.089,392.079 367.089,394.246 363.5,395C 358.5,395.667 353.5,395.667 348.5,395C 347.179,391.066 347.179,387.233 348.5,383.5C 352.012,384.055 355.012,383.388 357.5,381.5C 358.461,379.735 358.795,377.735 358.5,375.5C 351.167,375.5 343.833,375.5 336.5,375.5C 332.91,375.456 330.41,373.789 329,370.5C 328.333,360.5 328.333,350.5 329,340.5C 329.498,338.456 330.665,337.122 332.5,336.5 Z M 341.5,347.5 C 346.833,347.5 352.167,347.5 357.5,347.5C 357.5,352.833 357.5,358.167 357.5,363.5C 352.489,363.666 347.489,363.499 342.5,363C 340.214,358.005 339.88,352.839 341.5,347.5 Z"></path></g><g><path style="opacity:0.514" fill="#7d7e81" d="M 334.5,335.5 C 346.322,334.505 358.322,334.172 370.5,334.5C 370.83,352.674 370.497,370.674 369.5,388.5C 369.5,370.833 369.5,353.167 369.5,335.5C 357.833,335.5 346.167,335.5 334.5,335.5 Z"></path></g><g><path style="opacity:0.455" fill="#8a8d8f" d="M 66.5,341.5 C 66.5,349.167 66.5,356.833 66.5,364.5C 63.5,364.5 60.5,364.5 57.5,364.5C 59.9479,363.527 62.6146,363.194 65.5,363.5C 65.175,355.981 65.5084,348.648 66.5,341.5 Z"></path></g><g><path style="opacity:0.999" fill="#231f20" d="M 463.5,346.5 C 463.5,356.167 463.5,365.833 463.5,375.5C 439.5,375.5 415.5,375.5 391.5,375.5C 414.994,374.502 438.661,374.169 462.5,374.5C 462.173,364.985 462.506,355.652 463.5,346.5 Z"></path></g><g><path style="opacity:0.259" fill="#b5b7ba" d="M 341.5,347.5 C 346.975,346.511 352.642,346.178 358.5,346.5C 358.822,352.358 358.489,358.025 357.5,363.5C 357.5,358.167 357.5,352.833 357.5,347.5C 352.167,347.5 346.833,347.5 341.5,347.5 Z"></path></g><g><path style="opacity:0.553" fill="#989a9d" d="M 78.5,348.5 C 78.5,353.5 78.5,358.5 78.5,363.5C 84.5,363.5 90.5,363.5 96.5,363.5C 96.5,358.5 96.5,353.5 96.5,348.5C 97.4881,353.64 97.8214,358.974 97.5,364.5C 90.8333,364.5 84.1667,364.5 77.5,364.5C 77.1786,358.974 77.5119,353.64 78.5,348.5 Z"></path></g><g><path style="opacity:0.537" fill="#7a7c7e" d="M 451.5,355.5 C 452.477,358.287 452.81,361.287 452.5,364.5C 433.326,364.83 414.326,364.497 395.5,363.5C 414.167,363.5 432.833,363.5 451.5,363.5C 451.5,360.833 451.5,358.167 451.5,355.5 Z"></path></g><g><path style="opacity:1" fill="#231f20" d="M 52.5,370.5 C 53.492,377.982 53.8254,385.648 53.5,393.5C 56.5,393.5 59.5,393.5 62.5,393.5C 62.1666,387.401 62.5,382.068 63.5,377.5C 63.5,383.167 63.5,388.833 63.5,394.5C 59.8333,394.5 56.1667,394.5 52.5,394.5C 52.5,386.5 52.5,378.5 52.5,370.5 Z"></path></g><g><path style="opacity:0.165" fill="#b4b6b8" d="M 287.5,375.5 C 282.36,376.488 277.026,376.821 271.5,376.5C 271.802,379.059 271.468,381.393 270.5,383.5C 270.5,380.833 270.5,378.167 270.5,375.5C 276.167,375.5 281.833,375.5 287.5,375.5 Z"></path></g><g><path style="opacity:0.165" fill="#bbbdbf" d="M 336.5,375.5 C 343.833,375.5 351.167,375.5 358.5,375.5C 358.795,377.735 358.461,379.735 357.5,381.5C 357.5,379.833 357.5,378.167 357.5,376.5C 350.313,376.825 343.313,376.491 336.5,375.5 Z"></path></g><g><path style="opacity:0.165" fill="#aeb0b2" d="M 463.5,346.5 C 464.494,356.319 464.827,366.319 464.5,376.5C 439.661,376.831 414.994,376.498 390.5,375.5C 390.833,375.5 391.167,375.5 391.5,375.5C 415.5,375.5 439.5,375.5 463.5,375.5C 463.5,365.833 463.5,356.167 463.5,346.5 Z"></path></g><g><path style="opacity:0.22" fill="#a0a2a4" d="M 52.5,369.5 C 52.5,369.833 52.5,370.167 52.5,370.5C 52.5,378.5 52.5,386.5 52.5,394.5C 56.1667,394.5 59.8333,394.5 63.5,394.5C 63.5,388.833 63.5,383.167 63.5,377.5C 63.8333,377.5 64.1667,377.5 64.5,377.5C 64.5,383.5 64.5,389.5 64.5,395.5C 60.1667,395.5 55.8333,395.5 51.5,395.5C 51.1736,386.651 51.507,377.984 52.5,369.5 Z"></path></g><g><path style="opacity:0.431" fill="#838588" d="M 357.5,381.5 C 355.012,383.388 352.012,384.055 348.5,383.5C 351.39,382.755 354.39,382.088 357.5,381.5 Z"></path></g><g><path style="opacity:0.243" fill="#a4a6a8" d="M 139.5,392.5 C 135.702,393.483 131.702,393.817 127.5,393.5C 127.5,389.5 127.5,385.5 127.5,381.5C 131.833,381.5 136.167,381.5 140.5,381.5C 140.815,385.371 140.482,389.038 139.5,392.5 Z"></path></g><g><path style="opacity:0.996" fill="#252122" d="M 139.5,392.5 C 135.833,392.5 132.167,392.5 128.5,392.5C 128.5,389.167 128.5,385.833 128.5,382.5C 132.167,382.5 135.833,382.5 139.5,382.5C 139.5,385.833 139.5,389.167 139.5,392.5 Z"></path></g><g><path style="opacity:1" fill="#3f3f40" d="M 129.5,383.5 C 132.5,383.5 135.5,383.5 138.5,383.5C 138.5,386.167 138.5,388.833 138.5,391.5C 135.5,391.5 132.5,391.5 129.5,391.5C 129.5,388.833 129.5,386.167 129.5,383.5 Z"></path></g><g><path style="opacity:0.376" fill="#9d9fa1" d="M 145.5,392.5 C 144.518,389.038 144.185,385.371 144.5,381.5C 148.833,381.5 153.167,381.5 157.5,381.5C 157.5,385.5 157.5,389.5 157.5,393.5C 153.298,393.817 149.298,393.483 145.5,392.5 Z"></path></g><g><path style="opacity:0.996" fill="#252122" d="M 145.5,392.5 C 145.5,389.167 145.5,385.833 145.5,382.5C 149.167,382.5 152.833,382.5 156.5,382.5C 156.5,385.833 156.5,389.167 156.5,392.5C 152.833,392.5 149.167,392.5 145.5,392.5 Z"></path></g><g><path style="opacity:1" fill="#403f40" d="M 146.5,383.5 C 149.5,383.5 152.5,383.5 155.5,383.5C 155.5,386.167 155.5,388.833 155.5,391.5C 152.5,391.5 149.5,391.5 146.5,391.5C 146.5,388.833 146.5,386.167 146.5,383.5 Z"></path></g><g><path style="opacity:0.632" fill="#6f7072" d="M 210.5,410.5 C 219.986,409.506 229.652,409.173 239.5,409.5C 239.795,411.735 239.461,413.735 238.5,415.5C 238.5,413.833 238.5,412.167 238.5,410.5C 229.167,410.5 219.833,410.5 210.5,410.5 Z"></path></g><g><path style="opacity:0.632" fill="#6f7073" d="M 342.5,410.5 C 351.318,409.507 360.318,409.173 369.5,409.5C 369.795,411.735 369.461,413.735 368.5,415.5C 368.5,413.833 368.5,412.167 368.5,410.5C 359.833,410.5 351.167,410.5 342.5,410.5 Z"></path></g><g><path style="opacity:0.995" fill="#242021" d="M 209.5,411.5 C 209.5,410.833 209.833,410.5 210.5,410.5C 219.833,410.5 229.167,410.5 238.5,410.5C 238.5,412.167 238.5,413.833 238.5,415.5C 230.493,415.666 222.493,415.5 214.5,415C 222.159,414.5 229.826,414.334 237.5,414.5C 237.5,413.5 237.5,412.5 237.5,411.5C 228.167,411.5 218.833,411.5 209.5,411.5 Z"></path></g><g><path style="opacity:0.994" fill="#393537" d="M 251.5,410.5 C 252.787,414.065 252.787,417.732 251.5,421.5C 250.521,418.375 250.187,415.042 250.5,411.5C 249.167,411.5 247.833,411.5 246.5,411.5C 246.5,420.833 246.5,430.167 246.5,439.5C 247.833,439.5 249.167,439.5 250.5,439.5C 250.335,435.818 250.501,432.152 251,428.5C 251.499,432.486 251.666,436.486 251.5,440.5C 249.5,440.5 247.5,440.5 245.5,440.5C 245.5,430.5 245.5,420.5 245.5,410.5C 247.5,410.5 249.5,410.5 251.5,410.5 Z"></path></g><g><path style="opacity:1" fill="#514f50" d="M 272.5,409.5 C 274.833,409.5 277.167,409.5 279.5,409.5C 279.5,420.167 279.5,430.833 279.5,441.5C 276.833,441.5 274.167,441.5 271.5,441.5C 271.5,437.167 271.5,432.833 271.5,428.5C 273.414,431.684 274.08,435.351 273.5,439.5C 274.833,439.5 276.167,439.5 277.5,439.5C 277.5,430.167 277.5,420.833 277.5,411.5C 276.167,411.5 274.833,411.5 273.5,411.5C 273.815,415.371 273.482,419.038 272.5,422.5C 272.5,418.167 272.5,413.833 272.5,409.5 Z"></path></g><g><path style="opacity:0.993" fill="#3a3839" d="M 333.5,415.5 C 328.5,415.5 323.5,415.5 318.5,415.5C 322.97,414.514 327.637,414.181 332.5,414.5C 332.5,413.5 332.5,412.5 332.5,411.5C 320.833,411.5 309.167,411.5 297.5,411.5C 303.128,410.171 309.128,409.504 315.5,409.5C 321.5,409.667 327.5,409.833 333.5,410C 334.807,411.943 334.807,413.777 333.5,415.5 Z"></path></g><g><path style="opacity:0.998" fill="#231f20" d="M 342.5,410.5 C 351.167,410.5 359.833,410.5 368.5,410.5C 368.5,412.167 368.5,413.833 368.5,415.5C 360.826,415.666 353.159,415.5 345.5,415C 352.826,414.5 360.159,414.334 367.5,414.5C 367.5,413.5 367.5,412.5 367.5,411.5C 358.983,411.826 350.65,411.493 342.5,410.5 Z"></path></g><g><path style="opacity:0.996" fill="#2b2728" d="M 428.5,410.5 C 428.631,411.239 428.464,411.906 428,412.5C 424.943,411.549 421.777,411.216 418.5,411.5C 418.5,420.833 418.5,430.167 418.5,439.5C 419.5,439.5 420.5,439.5 421.5,439.5C 421.175,431.648 421.508,423.982 422.5,416.5C 422.5,424.5 422.5,432.5 422.5,440.5C 420.833,440.5 419.167,440.5 417.5,440.5C 417.5,430.5 417.5,420.5 417.5,410.5C 421.167,409.167 424.833,409.167 428.5,410.5 Z"></path></g><g><path style="opacity:1" fill="#312e30" d="M 51.5,410.5 C 53.5,410.5 55.5,410.5 57.5,410.5C 57.6655,414.514 57.4988,418.514 57,422.5C 56.5014,418.848 56.3347,415.182 56.5,411.5C 55.5,411.5 54.5,411.5 53.5,411.5C 53.5,420.833 53.5,430.167 53.5,439.5C 54.5,439.5 55.5,439.5 56.5,439.5C 56.3347,435.818 56.5014,432.152 57,428.5C 57.4988,432.486 57.6655,436.486 57.5,440.5C 55.5,440.5 53.5,440.5 51.5,440.5C 51.5,430.5 51.5,420.5 51.5,410.5 Z"></path></g><g><path style="opacity:1" fill="#474748" d="M 51.5,410.5 C 53.6074,409.532 55.9407,409.198 58.5,409.5C 58.5,413.833 58.5,418.167 58.5,422.5C 61.9783,422.816 65.3117,422.316 68.5,421C 71.1667,417.333 73.8333,413.667 76.5,410C 79.2272,409.182 81.8938,409.348 84.5,410.5C 81.1975,415.603 77.5309,420.436 73.5,425C 78.0736,429.738 82.0736,434.905 85.5,440.5C 82.8938,441.652 80.2272,441.818 77.5,441C 74.7433,436.821 71.7433,432.821 68.5,429C 65.1832,428.502 61.8499,428.335 58.5,428.5C 58.5,432.833 58.5,437.167 58.5,441.5C 55.9407,441.802 53.6074,441.468 51.5,440.5C 53.5,440.5 55.5,440.5 57.5,440.5C 57.6655,436.486 57.4988,432.486 57,428.5C 56.5014,432.152 56.3347,435.818 56.5,439.5C 55.5,439.5 54.5,439.5 53.5,439.5C 53.5,430.167 53.5,420.833 53.5,411.5C 54.5,411.5 55.5,411.5 56.5,411.5C 56.3347,415.182 56.5014,418.848 57,422.5C 57.4988,418.514 57.6655,414.514 57.5,410.5C 55.5,410.5 53.5,410.5 51.5,410.5 Z"></path></g><g><path style="opacity:1" fill="#454446" d="M 103.5,409.5 C 107.007,408.994 110.174,409.66 113,411.5C 118.167,421.167 123.333,430.833 128.5,440.5C 123.338,442.467 119.671,440.967 117.5,436C 110.476,435.169 103.476,435.336 96.5,436.5C 94.6407,441.145 91.3073,442.478 86.5,440.5C 91.925,429.979 97.5917,419.646 103.5,409.5 Z M 106.5,416.5 C 109.738,420.103 112.405,424.27 114.5,429C 109.833,429.667 105.167,429.667 100.5,429C 102.912,425.01 104.912,420.843 106.5,416.5 Z"></path></g><g><path style="opacity:1" fill="#454445" d="M 120.5,409.5 C 123.448,409.223 126.281,409.556 129,410.5C 132.825,418.819 137.158,426.819 142,434.5C 146.422,426.657 150.588,418.657 154.5,410.5C 157.086,409.52 159.753,409.187 162.5,409.5C 158.022,420.621 152.356,431.121 145.5,441C 140.915,442.518 137.415,441.351 135,437.5C 129.886,428.27 125.052,418.937 120.5,409.5 Z"></path></g><g><path style="opacity:1" fill="#4b4a4c" d="M 170.5,409.5 C 178.84,409.334 187.173,409.5 195.5,410C 199.406,410.973 201.573,413.473 202,417.5C 202.667,422.833 202.667,428.167 202,433.5C 201.484,436.034 200.317,438.2 198.5,440C 188.934,441.613 179.267,441.947 169.5,441C 166.619,439.749 164.786,437.583 164,434.5C 163.333,428.5 163.333,422.5 164,416.5C 165.018,412.985 167.185,410.652 170.5,409.5 Z M 172.5,416.5 C 179.508,416.334 186.508,416.5 193.5,417C 194.639,422.416 194.806,427.916 194,433.5C 186.914,434.646 179.747,434.812 172.5,434C 171.187,428.167 171.187,422.334 172.5,416.5 Z"></path></g><g><path style="opacity:1" fill="#4c4c4d" d="M 209.5,411.5 C 218.833,411.5 228.167,411.5 237.5,411.5C 237.5,412.5 237.5,413.5 237.5,414.5C 229.826,414.334 222.159,414.5 214.5,415C 222.493,415.5 230.493,415.666 238.5,415.5C 230.684,416.492 222.684,416.826 214.5,416.5C 214.261,418.467 214.594,420.301 215.5,422C 222.5,422.333 229.5,422.667 236.5,423C 240.259,426.743 241.426,431.243 240,436.5C 239.34,438.324 238.173,439.657 236.5,440.5C 227.348,439.506 218.015,439.173 208.5,439.5C 208.5,438.5 208.5,437.5 208.5,436.5C 216.507,436.666 224.507,436.5 232.5,436C 224.173,435.5 215.84,435.334 207.5,435.5C 215.65,434.507 223.983,434.174 232.5,434.5C 232.5,432.5 232.5,430.5 232.5,428.5C 224.721,428.932 217.054,428.432 209.5,427C 206.64,423.319 205.807,419.152 207,414.5C 207.377,413.058 208.21,412.058 209.5,411.5 Z"></path></g><g><path style="opacity:0.376" fill="#86888b" d="M 251.5,410.5 C 249.5,410.5 247.5,410.5 245.5,410.5C 245.5,420.5 245.5,430.5 245.5,440.5C 247.5,440.5 249.5,440.5 251.5,440.5C 249.393,441.468 247.059,441.802 244.5,441.5C 244.5,430.833 244.5,420.167 244.5,409.5C 247.059,409.198 249.393,409.532 251.5,410.5 Z"></path></g><g><path style="opacity:1" fill="#434344" d="M 251.5,421.5 C 258.313,422.491 265.313,422.825 272.5,422.5C 273.482,419.038 273.815,415.371 273.5,411.5C 274.833,411.5 276.167,411.5 277.5,411.5C 277.5,420.833 277.5,430.167 277.5,439.5C 276.167,439.5 274.833,439.5 273.5,439.5C 274.08,435.351 273.414,431.684 271.5,428.5C 265.167,428.5 258.833,428.5 252.5,428.5C 252.817,432.702 252.483,436.702 251.5,440.5C 251.666,436.486 251.499,432.486 251,428.5C 250.501,432.152 250.335,435.818 250.5,439.5C 249.167,439.5 247.833,439.5 246.5,439.5C 246.5,430.167 246.5,420.833 246.5,411.5C 247.833,411.5 249.167,411.5 250.5,411.5C 250.187,415.042 250.521,418.375 251.5,421.5 Z"></path></g><g><path style="opacity:1" fill="#3e3d3e" d="M 297.5,411.5 C 309.167,411.5 320.833,411.5 332.5,411.5C 332.5,412.5 332.5,413.5 332.5,414.5C 327.637,414.181 322.97,414.514 318.5,415.5C 318.5,415.833 318.5,416.167 318.5,416.5C 317.508,423.982 317.175,431.648 317.5,439.5C 316.167,439.5 314.833,439.5 313.5,439.5C 313.825,431.648 313.492,423.982 312.5,416.5C 307.695,415.513 302.695,415.179 297.5,415.5C 297.5,414.167 297.5,412.833 297.5,411.5 Z"></path></g><g><path style="opacity:1" fill="#4c4c4d" d="M 342.5,410.5 C 350.65,411.493 358.983,411.826 367.5,411.5C 367.5,412.5 367.5,413.5 367.5,414.5C 360.159,414.334 352.826,414.5 345.5,415C 353.159,415.5 360.826,415.666 368.5,415.5C 361.011,416.329 353.344,416.829 345.5,417C 343.808,418.401 343.141,420.234 343.5,422.5C 352.017,422.174 360.35,422.507 368.5,423.5C 359.827,423.334 351.16,423.5 342.5,424C 350.853,424.168 359.187,424.668 367.5,425.5C 359.01,426.167 350.676,426.833 342.5,427.5C 342.216,429.415 342.549,431.081 343.5,432.5C 343.918,433.222 344.584,433.722 345.5,434C 353.344,434.171 361.011,434.671 368.5,435.5C 360.826,435.334 353.159,435.5 345.5,436C 352.826,436.5 360.159,436.666 367.5,436.5C 367.5,437.5 367.5,438.5 367.5,439.5C 358.983,439.174 350.65,439.507 342.5,440.5C 339.909,439.746 338.076,438.079 337,435.5C 335,428.833 335,422.167 337,415.5C 338.076,412.921 339.909,411.254 342.5,410.5 Z"></path></g><g><path style="opacity:1" fill="#444345" d="M 388.5,409.5 C 392.007,408.994 395.174,409.66 398,411.5C 403.167,421.167 408.333,430.833 413.5,440.5C 410.833,441.833 408.167,441.833 405.5,440.5C 404.872,438.742 403.872,437.242 402.5,436C 395.476,435.169 388.476,435.336 381.5,436.5C 379.641,441.145 376.307,442.478 371.5,440.5C 376.925,429.979 382.592,419.646 388.5,409.5 Z M 391.5,416.5 C 392.376,416.369 393.043,416.702 393.5,417.5C 395.372,421.412 397.372,425.245 399.5,429C 394.833,429.667 390.167,429.667 385.5,429C 387.912,425.01 389.912,420.843 391.5,416.5 Z"></path></g><g><path style="opacity:1" fill="#434344" d="M 428.5,410.5 C 432.416,418.389 436.249,426.389 440,434.5C 443.751,426.389 447.584,418.389 451.5,410.5C 451.369,411.239 451.536,411.906 452,412.5C 455.057,411.549 458.223,411.216 461.5,411.5C 461.5,420.833 461.5,430.167 461.5,439.5C 460.5,439.5 459.5,439.5 458.5,439.5C 458.825,431.648 458.492,423.982 457.5,416.5C 456.833,415.167 456.167,415.167 455.5,416.5C 452.287,424.596 448.787,432.596 445,440.5C 441.108,442.067 437.442,441.733 434,439.5C 430.339,432.011 427.172,424.345 424.5,416.5C 423.833,415.167 423.167,415.167 422.5,416.5C 421.508,423.982 421.175,431.648 421.5,439.5C 420.5,439.5 419.5,439.5 418.5,439.5C 418.5,430.167 418.5,420.833 418.5,411.5C 421.777,411.216 424.943,411.549 428,412.5C 428.464,411.906 428.631,411.239 428.5,410.5 Z"></path></g><g><path style="opacity:0.998" fill="#2b2829" d="M 462.5,411.5 C 462.5,421.167 462.5,430.833 462.5,440.5C 460.833,440.5 459.167,440.5 457.5,440.5C 457.5,432.5 457.5,424.5 457.5,416.5C 458.492,423.982 458.825,431.648 458.5,439.5C 459.5,439.5 460.5,439.5 461.5,439.5C 461.5,430.167 461.5,420.833 461.5,411.5C 458.223,411.216 455.057,411.549 452,412.5C 451.536,411.906 451.369,411.239 451.5,410.5C 453.134,409.839 454.967,409.506 457,409.5C 459.295,409.547 461.129,410.213 462.5,411.5 Z"></path></g><g><path style="opacity:0.632" fill="#6b6d6f" d="M 417.5,410.5 C 417.5,420.5 417.5,430.5 417.5,440.5C 419.167,440.5 420.833,440.5 422.5,440.5C 422.5,432.5 422.5,424.5 422.5,416.5C 423.167,415.167 423.833,415.167 424.5,416.5C 423.507,424.65 423.174,432.983 423.5,441.5C 421.167,441.5 418.833,441.5 416.5,441.5C 416.172,430.986 416.506,420.653 417.5,410.5 Z"></path></g><g><path style="opacity:1" fill="#282425" d="M 312.5,416.5 C 313.492,423.982 313.825,431.648 313.5,439.5C 314.833,439.5 316.167,439.5 317.5,439.5C 317.175,431.648 317.508,423.982 318.5,416.5C 318.5,424.833 318.5,433.167 318.5,441.5C 316.5,441.5 314.5,441.5 312.5,441.5C 312.5,433.167 312.5,424.833 312.5,416.5 Z"></path></g><g><path style="opacity:0.165" fill="#b0b2b4" d="M 297.5,415.5 C 302.695,415.179 307.695,415.513 312.5,416.5C 312.5,424.833 312.5,433.167 312.5,441.5C 311.507,433.35 311.174,425.017 311.5,416.5C 306.637,416.819 301.97,416.486 297.5,415.5 Z"></path></g><g><path style="opacity:0.275" fill="#a0a2a5" d="M 318.5,415.5 C 323.5,415.5 328.5,415.5 333.5,415.5C 329.03,416.486 324.363,416.819 319.5,416.5C 319.826,425.017 319.493,433.35 318.5,441.5C 318.5,433.167 318.5,424.833 318.5,416.5C 318.5,416.167 318.5,415.833 318.5,415.5 Z"></path></g><g><path style="opacity:0.584" fill="#6c6d70" d="M 462.5,411.5 C 463.494,421.319 463.827,431.319 463.5,441.5C 461.167,441.5 458.833,441.5 456.5,441.5C 456.826,432.983 456.493,424.65 455.5,416.5C 456.167,415.167 456.833,415.167 457.5,416.5C 457.5,424.5 457.5,432.5 457.5,440.5C 459.167,440.5 460.833,440.5 462.5,440.5C 462.5,430.833 462.5,421.167 462.5,411.5 Z"></path></g><g><path style="opacity:0.063" fill="#cbccce" d="M 272.5,409.5 C 272.5,413.833 272.5,418.167 272.5,422.5C 265.313,422.825 258.313,422.491 251.5,421.5C 258.167,421.5 264.833,421.5 271.5,421.5C 271.183,417.298 271.517,413.298 272.5,409.5 Z"></path></g><g><path style="opacity:0.995" fill="#2f2c2d" d="M 368.5,423.5 C 369.833,424.833 369.833,426.167 368.5,427.5C 359.833,427.5 351.167,427.5 342.5,427.5C 350.676,426.833 359.01,426.167 367.5,425.5C 359.187,424.668 350.853,424.168 342.5,424C 351.16,423.5 359.827,423.334 368.5,423.5 Z"></path></g><g><path style="opacity:0.537" fill="#78797c" d="M 342.5,427.5 C 351.167,427.5 359.833,427.5 368.5,427.5C 360.35,428.493 352.017,428.826 343.5,428.5C 343.5,429.833 343.5,431.167 343.5,432.5C 342.549,431.081 342.216,429.415 342.5,427.5 Z"></path></g><g><path style="opacity:0.996" fill="#221f1f" d="M 207.5,435.5 C 215.84,435.334 224.173,435.5 232.5,436C 224.507,436.5 216.507,436.666 208.5,436.5C 208.5,437.5 208.5,438.5 208.5,439.5C 218.015,439.173 227.348,439.506 236.5,440.5C 226.833,440.5 217.167,440.5 207.5,440.5C 207.5,438.833 207.5,437.167 207.5,435.5 Z"></path></g><g><path style="opacity:0.995" fill="#221f1f" d="M 368.5,435.5 C 368.5,437.167 368.5,438.833 368.5,440.5C 359.833,440.5 351.167,440.5 342.5,440.5C 350.65,439.507 358.983,439.174 367.5,439.5C 367.5,438.5 367.5,437.5 367.5,436.5C 360.159,436.666 352.826,436.5 345.5,436C 353.159,435.5 360.826,435.334 368.5,435.5 Z"></path></g><g><path style="opacity:0.631" fill="#6c6e70" d="M 207.5,435.5 C 207.5,437.167 207.5,438.833 207.5,440.5C 217.167,440.5 226.833,440.5 236.5,440.5C 226.681,441.494 216.681,441.827 206.5,441.5C 206.205,439.265 206.539,437.265 207.5,435.5 Z"></path></g><g><path style="opacity:0.631" fill="#707274" d="M 368.5,435.5 C 369.461,437.265 369.795,439.265 369.5,441.5C 360.318,441.827 351.318,441.493 342.5,440.5C 351.167,440.5 359.833,440.5 368.5,440.5C 368.5,438.833 368.5,437.167 368.5,435.5 Z"></path></g></svg>