<svg xmlns="http://www.w3.org/2000/svg" xmlns:xlink="http://www.w3.org/1999/xlink" width="1200px" height="600px" style="shape-rendering:geometricPrecision; text-rendering:geometricPrecision; image-rendering:optimizeQuality; fill-rule:evenodd; clip-rule:evenodd"><g><path style="opacity:0.108" fill="#d7d6d6" d="M 490.5,12.5 C 489.817,14.1765 488.483,14.8432 486.5,14.5C 487.183,12.8235 488.517,12.1568 490.5,12.5 Z"></path></g><g><path style="opacity:0.886" fill="#010102" d="M 742.5,65.5 C 752.008,67.3791 761.342,70.2125 770.5,74C 774.757,77.4201 778.424,81.2534 781.5,85.5C 784.368,91.0866 785.702,97.0866 785.5,103.5C 781.633,132.879 775.8,161.879 768,190.5C 762.406,223.814 755.072,256.814 746,289.5C 743.374,301.127 741.207,312.794 739.5,324.5C 740.5,324.5 741.5,324.5 742.5,324.5C 742.5,372.5 742.5,420.5 742.5,468.5C 581.167,468.5 419.833,468.5 258.5,468.5C 258.5,463.167 258.5,457.833 258.5,452.5C 301.172,452.833 343.839,452.5 386.5,451.5C 379.808,447.641 374.641,442.308 371,435.5C 368.513,415.592 367.846,395.592 369,375.5C 375.41,374.522 381.91,374.189 388.5,374.5C 388.167,391.846 388.5,409.179 389.5,426.5C 390.43,429.362 392.097,431.695 394.5,433.5C 399.167,434.833 403.833,434.833 408.5,433.5C 410.903,431.695 412.57,429.362 413.5,426.5C 414.5,397.841 414.833,369.174 414.5,340.5C 381.833,340.5 349.167,340.5 316.5,340.5C 316.5,335.167 316.5,329.833 316.5,324.5C 345.167,324.5 373.833,324.5 402.5,324.5C 403.5,324.5 404.5,324.5 405.5,324.5C 406,317.421 407,310.421 408.5,303.5C 414.631,279.371 419.965,254.704 424.5,229.5C 428.039,217.878 430.039,205.878 430.5,193.5C 430.5,193.167 430.5,192.833 430.5,192.5C 431.167,192.5 431.833,192.5 432.5,192.5C 435.806,177.599 439.306,162.599 443,147.5C 443.897,141.194 444.397,134.861 444.5,128.5C 444.5,127.5 444.5,126.5 444.5,125.5C 446.007,123.367 447.34,121.033 448.5,118.5C 453.221,100.58 457.221,82.2465 460.5,63.5C 462.787,52.2012 466.12,41.2012 470.5,30.5C 474.797,26.5391 479.131,22.5391 483.5,18.5C 485.624,17.8506 487.624,17.0173 489.5,16C 498.851,15.1679 508.184,15.3346 517.5,16.5C 541.313,21.9029 564.98,27.4029 588.5,33C 607.921,36.6941 627.255,40.3607 646.5,44C 678.171,51.6604 710.171,58.827 742.5,65.5 Z M 578.5,72.5 C 581.5,72.5 584.5,72.5 587.5,72.5C 587.833,72.5 588.167,72.5 588.5,72.5C 593.319,74.3977 598.319,76.231 603.5,78C 619.822,81.6645 636.155,85.1645 652.5,88.5C 653.183,90.1765 654.517,90.8432 656.5,90.5C 660.594,91.4553 664.594,92.622 668.5,94C 671.146,94.4974 673.813,94.6641 676.5,94.5C 676.5,96.1667 676.5,97.8333 676.5,99.5C 676.5,99.8333 676.5,100.167 676.5,100.5C 674.833,100.5 673.167,100.5 671.5,100.5C 670.5,100.5 669.5,100.5 668.5,100.5C 667.448,98.744 665.781,98.0773 663.5,98.5C 662.5,98.5 661.5,98.5 660.5,98.5C 658.365,96.631 655.698,95.9644 652.5,96.5C 652.167,96.5 651.833,96.5 651.5,96.5C 651.389,95.8826 651.056,95.3826 650.5,95C 647.854,94.5026 645.187,94.3359 642.5,94.5C 641.448,92.744 639.781,92.0773 637.5,92.5C 636.5,92.5 635.5,92.5 634.5,92.5C 633.448,90.744 631.781,90.0773 629.5,90.5C 628.5,90.5 627.5,90.5 626.5,90.5C 624.365,88.631 621.698,87.9644 618.5,88.5C 610.133,85.5766 601.467,83.5766 592.5,82.5C 591.448,80.744 589.781,80.0773 587.5,80.5C 586.5,80.5 585.5,80.5 584.5,80.5C 583.01,78.7202 581.01,78.0535 578.5,78.5C 578.5,76.8333 578.5,75.1667 578.5,73.5C 578.5,73.1667 578.5,72.8333 578.5,72.5 Z M 488.5,92.5 C 489.833,92.5 491.167,92.5 492.5,92.5C 496.373,94.4302 500.706,95.0969 505.5,94.5C 506.167,94.5 506.833,94.5 507.5,94.5C 507.611,95.1174 507.944,95.6174 508.5,96C 521.799,98.4938 535.132,100.66 548.5,102.5C 550.279,104.344 552.612,105.01 555.5,104.5C 558.889,106.22 562.556,106.887 566.5,106.5C 567.552,108.256 569.219,108.923 571.5,108.5C 581.045,110.969 590.712,112.969 600.5,114.5C 601.552,116.256 603.219,116.923 605.5,116.5C 606.5,116.5 607.5,116.5 608.5,116.5C 609.552,118.256 611.219,118.923 613.5,118.5C 615.167,118.5 616.833,118.5 618.5,118.5C 619.183,120.176 620.517,120.843 622.5,120.5C 623.833,120.5 625.167,120.5 626.5,120.5C 628.279,122.344 630.612,123.01 633.5,122.5C 634.5,122.5 635.5,122.5 636.5,122.5C 637.552,124.256 639.219,124.923 641.5,124.5C 666.318,129.949 691.318,135.282 716.5,140.5C 717.918,142.308 719.918,142.975 722.5,142.5C 726.619,144.428 730.952,145.761 735.5,146.5C 735.833,146.5 736.167,146.5 736.5,146.5C 737.183,148.176 738.517,148.843 740.5,148.5C 741.582,149.594 742.248,150.927 742.5,152.5C 740.881,155.642 740.215,158.975 740.5,162.5C 738.631,164.635 737.964,167.302 738.5,170.5C 738.5,171.167 738.5,171.833 738.5,172.5C 736.631,174.635 735.964,177.302 736.5,180.5C 736.5,181.167 736.5,181.833 736.5,182.5C 734.744,183.552 734.077,185.219 734.5,187.5C 733.357,191.744 732.69,196.077 732.5,200.5C 730.612,202.988 729.945,205.988 730.5,209.5C 730.5,209.833 730.5,210.167 730.5,210.5C 728.692,211.918 728.025,213.918 728.5,216.5C 728.5,217.833 728.5,219.167 728.5,220.5C 726.692,221.918 726.025,223.918 726.5,226.5C 726.5,227.833 726.5,229.167 726.5,230.5C 724.744,231.552 724.077,233.219 724.5,235.5C 724.5,236.5 724.5,237.5 724.5,238.5C 722.631,240.635 721.964,243.302 722.5,246.5C 722.5,247.167 722.5,247.833 722.5,248.5C 720.656,250.279 719.99,252.612 720.5,255.5C 720.5,256.5 720.5,257.5 720.5,258.5C 718.692,259.918 718.025,261.918 718.5,264.5C 718.5,265.833 718.5,267.167 718.5,268.5C 715.991,274.478 714.158,280.811 713,287.5C 712.502,290.482 712.335,293.482 712.5,296.5C 710.744,297.552 710.077,299.219 710.5,301.5C 709.636,306.288 708.47,310.954 707,315.5C 706.502,318.482 706.335,321.482 706.5,324.5C 617.167,324.5 527.833,324.5 438.5,324.5C 438.5,323.833 438.5,323.167 438.5,322.5C 440.256,321.448 440.923,319.781 440.5,317.5C 440.5,316.5 440.5,315.5 440.5,314.5C 441.117,314.389 441.617,314.056 442,313.5C 442.497,310.854 442.664,308.187 442.5,305.5C 442.5,304.5 442.5,303.5 442.5,302.5C 444.256,301.448 444.923,299.781 444.5,297.5C 444.5,296.5 444.5,295.5 444.5,294.5C 446.344,292.721 447.01,290.388 446.5,287.5C 446.5,286.833 446.5,286.167 446.5,285.5C 448.213,284.365 448.88,282.698 448.5,280.5C 448.5,279.167 448.5,277.833 448.5,276.5C 450.388,274.012 451.055,271.012 450.5,267.5C 450.5,267.167 450.5,266.833 450.5,266.5C 452.28,265.01 452.946,263.01 452.5,260.5C 452.5,259.167 452.5,257.833 452.5,256.5C 454.308,255.082 454.975,253.082 454.5,250.5C 454.5,249.833 454.5,249.167 454.5,248.5C 456.369,246.365 457.036,243.698 456.5,240.5C 456.5,239.833 456.5,239.167 456.5,238.5C 457.117,238.389 457.617,238.056 458,237.5C 458.497,235.19 458.663,232.857 458.5,230.5C 458.5,229.833 458.5,229.167 458.5,228.5C 460.308,227.082 460.975,225.082 460.5,222.5C 460.5,221.167 460.5,219.833 460.5,218.5C 462.256,217.448 462.923,215.781 462.5,213.5C 462.5,212.5 462.5,211.5 462.5,210.5C 464.256,209.448 464.923,207.781 464.5,205.5C 464.5,203.833 464.5,202.167 464.5,200.5C 466.308,199.082 466.975,197.082 466.5,194.5C 467.799,190.63 468.466,186.63 468.5,182.5C 470.344,180.721 471.01,178.388 470.5,175.5C 470.5,174.5 470.5,173.5 470.5,172.5C 472.369,170.365 473.036,167.698 472.5,164.5C 472.5,163.833 472.5,163.167 472.5,162.5C 474.344,160.721 475.01,158.388 474.5,155.5C 474.5,154.833 474.5,154.167 474.5,153.5C 474.5,153.167 474.5,152.833 474.5,152.5C 476.256,151.448 476.923,149.781 476.5,147.5C 476.5,146.5 476.5,145.5 476.5,144.5C 478.369,142.365 479.036,139.698 478.5,136.5C 478.5,136.167 478.5,135.833 478.5,135.5C 479.117,135.389 479.617,135.056 480,134.5C 480.495,132.527 480.662,130.527 480.5,128.5C 480.5,127.167 480.5,125.833 480.5,124.5C 482.344,122.721 483.01,120.388 482.5,117.5C 482.5,117.167 482.5,116.833 482.5,116.5C 484.369,114.365 485.036,111.698 484.5,108.5C 484.5,107.833 484.5,107.167 484.5,106.5C 486.176,105.817 486.843,104.483 486.5,102.5C 486.5,101.167 486.5,99.8333 486.5,98.5C 488.28,97.0101 488.946,95.0101 488.5,92.5 Z M 548.5,174.5 C 549.167,174.5 549.833,174.5 550.5,174.5C 550.5,174.833 550.5,175.167 550.5,175.5C 550.5,177.167 550.5,178.833 550.5,180.5C 548.692,179.082 548.025,177.082 548.5,174.5 Z M 620.5,176.5 C 621.833,177.167 623.167,177.833 624.5,178.5C 630.881,179.684 636.881,182.018 642.5,185.5C 645.575,188.915 648.908,191.915 652.5,194.5C 665.394,213.215 667.728,233.215 659.5,254.5C 646.25,273.625 627.917,282.959 604.5,282.5C 603.833,282.5 603.167,282.5 602.5,282.5C 594.814,279.991 587.481,276.324 580.5,271.5C 578.739,270.083 577.406,268.417 576.5,266.5C 578.5,266.5 580.5,266.5 582.5,266.5C 584.674,258.355 590.007,255.021 598.5,256.5C 599.177,251.482 599.677,246.482 600,241.5C 596.193,240.51 592.693,238.843 589.5,236.5C 588.513,233.232 588.18,229.898 588.5,226.5C 593.366,225.799 596.033,222.966 596.5,218C 596.06,214.752 595.393,211.585 594.5,208.5C 590.833,208.5 587.167,208.5 583.5,208.5C 583.167,208.5 582.833,208.5 582.5,208.5C 581.082,206.692 579.082,206.025 576.5,206.5C 576.189,201.368 576.855,196.368 578.5,191.5C 578.014,189.696 577.347,188.029 576.5,186.5C 582.881,185.316 588.881,182.982 594.5,179.5C 603.003,177.111 611.67,176.111 620.5,176.5 Z M 550.5,180.5 C 552.308,181.918 552.975,183.918 552.5,186.5C 550.692,185.082 550.025,183.082 550.5,180.5 Z M 568.5,182.5 C 567.833,182.5 567.167,182.5 566.5,182.5C 567.167,179.833 567.833,179.833 568.5,182.5 Z M 566.5,182.5 C 566.5,183.833 565.833,184.5 564.5,184.5C 564.5,183.167 565.167,182.5 566.5,182.5 Z M 570.5,182.5 C 571.833,182.5 572.5,183.167 572.5,184.5C 572.5,183.167 571.833,182.5 570.5,182.5 Z M 562.5,184.5 C 562.5,185.167 562.5,185.833 562.5,186.5C 561.833,186.5 561.167,186.5 560.5,186.5C 560.5,185.167 561.167,184.5 562.5,184.5 Z M 572.5,184.5 C 574.483,184.157 575.817,184.824 576.5,186.5C 574.517,186.843 573.183,186.176 572.5,184.5 Z M 552.5,186.5 C 555.167,186.5 557.833,186.5 560.5,186.5C 559.666,187.748 558.333,188.415 556.5,188.5C 554.667,188.415 553.334,187.748 552.5,186.5 Z M 539.5,206.5 C 539.833,206.5 540.167,206.5 540.5,206.5C 540.5,207.167 540.5,207.833 540.5,208.5C 535.167,208.5 529.833,208.5 524.5,208.5C 529.056,206.558 534.056,205.892 539.5,206.5 Z M 520.5,208.5 C 520.176,212.555 520.509,216.555 521.5,220.5C 526.395,223.446 531.395,226.113 536.5,228.5C 536.665,232.182 536.499,235.848 536,239.5C 533.219,243.12 530.052,246.12 526.5,248.5C 525.167,248.5 523.833,248.5 522.5,248.5C 521.964,251.698 522.631,254.365 524.5,256.5C 524.757,259.932 525.424,263.266 526.5,266.5C 532.537,266.171 538.537,266.504 544.5,267.5C 545.588,268.934 546.922,269.934 548.5,270.5C 548.5,271.167 548.5,271.833 548.5,272.5C 546.833,272.5 545.167,272.5 543.5,272.5C 532.467,273.593 522.133,271.593 512.5,266.5C 510.585,263.577 508.251,260.91 505.5,258.5C 502.093,252.519 499.759,246.186 498.5,239.5C 498.5,239.167 498.5,238.833 498.5,238.5C 499.117,238.389 499.617,238.056 500,237.5C 500.14,231.289 501.973,225.622 505.5,220.5C 508.915,217.425 511.915,214.092 514.5,210.5C 514.833,210.5 515.167,210.5 515.5,210.5C 517.322,210.169 518.989,209.502 520.5,208.5 Z M 542.5,208.5 C 544.483,208.157 545.817,208.824 546.5,210.5C 544.517,210.843 543.183,210.176 542.5,208.5 Z M 548.5,210.5 C 549.833,210.5 550.5,211.167 550.5,212.5C 550.5,211.167 549.833,210.5 548.5,210.5 Z M 554.5,214.5 C 555.833,214.5 556.5,215.167 556.5,216.5C 556.5,215.167 555.833,214.5 554.5,214.5 Z M 556.5,216.5 C 558.176,217.183 558.843,218.517 558.5,220.5C 556.824,219.817 556.157,218.483 556.5,216.5 Z M 558.5,220.5 C 559.735,220.721 560.735,221.388 561.5,222.5C 563.572,227.977 564.738,233.644 565,239.5C 565.5,240 566,240.5 566.5,241C 565.106,241.956 564.439,243.289 564.5,245C 566.072,247.919 566.739,251.085 566.5,254.5C 564.903,253.263 563.737,251.596 563,249.5C 561.01,242.731 560.01,235.731 560,228.5C 559.617,227.944 559.117,227.611 558.5,227.5C 558.5,227.167 558.5,226.833 558.5,226.5C 558.5,224.5 558.5,222.5 558.5,220.5 Z M 566.5,254.5 C 567.833,254.5 568.5,255.167 568.5,256.5C 568.5,255.167 567.833,254.5 566.5,254.5 Z M 568.5,258.5 C 569.833,258.5 570.5,259.167 570.5,260.5C 570.5,259.167 569.833,258.5 568.5,258.5 Z M 570.5,260.5 C 571.833,260.5 572.5,261.167 572.5,262.5C 572.5,261.167 571.833,260.5 570.5,260.5 Z M 572.5,262.5 C 573.833,262.5 574.5,263.167 574.5,264.5C 574.5,263.167 573.833,262.5 572.5,262.5 Z M 574.5,264.5 C 575.833,264.5 576.5,265.167 576.5,266.5C 576.5,265.167 575.833,264.5 574.5,264.5 Z M 548.5,272.5 C 549.777,273.694 550.444,275.36 550.5,277.5C 550.444,279.64 549.777,281.306 548.5,282.5C 548.5,279.167 548.5,275.833 548.5,272.5 Z M 548.5,283.5 C 548.715,285.179 548.048,286.179 546.5,286.5C 546.427,284.973 547.094,283.973 548.5,283.5 Z M 546.5,288.5 C 546.5,289.833 545.833,290.5 544.5,290.5C 544.5,289.167 545.167,288.5 546.5,288.5 Z M 439.5,424.5 C 440.167,424.5 440.833,424.5 441.5,424.5C 450.897,425.43 459.564,423.43 467.5,418.5C 468.187,416.726 469.02,415.059 470,413.5C 470.167,400.487 470.667,387.487 471.5,374.5C 479.94,370.646 481.94,364.812 477.5,357C 471.676,353.272 466.343,353.772 461.5,358.5C 456.657,353.772 451.324,353.272 445.5,357C 441.564,361.53 441.564,366.03 445.5,370.5C 447.717,371.768 449.717,373.268 451.5,375C 450.514,384.75 450.181,394.584 450.5,404.5C 446.167,404.5 441.833,404.5 437.5,404.5C 436.833,404.5 436.167,404.5 435.5,404.5C 434.668,384.004 434.168,363.337 434,342.5C 433.5,342 433,341.5 432.5,341C 531.166,340.5 629.833,340.333 728.5,340.5C 728.5,377.833 728.5,415.167 728.5,452.5C 664.497,452.833 600.497,452.5 536.5,451.5C 542.833,447.833 547.833,442.833 551.5,436.5C 552.491,432.555 552.824,428.555 552.5,424.5C 580.508,424.833 608.508,424.5 636.5,423.5C 639.993,422.558 643.326,421.225 646.5,419.5C 647.752,417.999 648.752,416.332 649.5,414.5C 650.499,401.183 650.833,387.85 650.5,374.5C 643.91,374.189 637.41,374.522 631,375.5C 630.5,385.161 630.334,394.828 630.5,404.5C 624.824,404.666 619.157,404.499 613.5,404C 615.152,395.946 614.486,388.112 611.5,380.5C 609.695,378.097 607.362,376.43 604.5,375.5C 590.512,374.334 576.512,374.167 562.5,375C 562,375.5 561.5,376 561,376.5C 560.333,382.167 560.333,387.833 561,393.5C 571.439,394.156 581.939,394.823 592.5,395.5C 594.26,398.212 594.927,401.212 594.5,404.5C 569.833,404.5 545.167,404.5 520.5,404.5C 520.334,410.842 520.5,417.175 521,423.5C 524.79,424.136 528.623,424.803 532.5,425.5C 535.167,427.5 535.167,429.5 532.5,431.5C 526.095,434.467 519.429,435.133 512.5,433.5C 511.5,432.5 510.5,431.5 509.5,430.5C 508.877,428.034 508.043,425.701 507,423.5C 506.5,407.17 506.333,390.837 506.5,374.5C 500.5,374.5 494.5,374.5 488.5,374.5C 488.167,394.511 488.5,414.511 489.5,434.5C 492.384,442.05 497.384,447.717 504.5,451.5C 475.167,452.833 445.833,452.833 416.5,451.5C 418.156,449.671 420.156,448.337 422.5,447.5C 429.399,441.371 432.732,433.704 432.5,424.5C 434.833,424.5 437.167,424.5 439.5,424.5 Z M 460.5,368.5 C 462.753,369.743 464.753,371.41 466.5,373.5C 462.878,374.659 459.211,374.825 455.5,374C 457.737,372.6 459.404,370.767 460.5,368.5 Z"></path></g><g><path style="opacity:0.036" fill="#f1f1f0" d="M 478.5,18.5 C 478.5,19.8333 477.833,20.5 476.5,20.5C 476.5,19.1667 477.167,18.5 478.5,18.5 Z"></path></g><g><path style="opacity:0.035" fill="#b4b3b3" d="M 538.5,18.5 C 541.082,18.0254 543.082,18.6921 544.5,20.5C 541.918,20.9746 539.918,20.3079 538.5,18.5 Z"></path></g><g><path style="opacity:0.043" fill="#e9e9e8" d="M 476.5,20.5 C 476.5,21.8333 475.833,22.5 474.5,22.5C 474.5,21.1667 475.167,20.5 476.5,20.5 Z"></path></g><g><path style="opacity:0.033" fill="#d5d4d4" d="M 548.5,20.5 C 551.01,20.0535 553.01,20.7202 554.5,22.5C 551.918,22.9746 549.918,22.3079 548.5,20.5 Z"></path></g><g><path style="opacity:0.026" fill="#f8f7f6" d="M 474.5,22.5 C 474.5,23.8333 473.833,24.5 472.5,24.5C 472.5,23.1667 473.167,22.5 474.5,22.5 Z"></path></g><g><path style="opacity:0.181" fill="#9f9d9d" d="M 554.5,22.5 C 557.698,21.9644 560.365,22.631 562.5,24.5C 559.302,25.0356 556.635,24.369 554.5,22.5 Z"></path></g><g><path style="opacity:0.076" fill="#bdbcbc" d="M 574.5,26.5 C 577.082,26.0254 579.082,26.6921 580.5,28.5C 577.918,28.9746 575.918,28.3079 574.5,26.5 Z"></path></g><g><path style="opacity:0.049" fill="#bbb9b9" d="M 583.5,28.5 C 586.388,27.9898 588.721,28.6565 590.5,30.5C 587.612,31.0102 585.279,30.3435 583.5,28.5 Z"></path></g><g><path style="opacity:0.398" fill="#5c5b5b" d="M 490.5,12.5 C 506.971,11.4811 522.971,13.4811 538.5,18.5C 539.918,20.3079 541.918,20.9746 544.5,20.5C 545.833,20.5 547.167,20.5 548.5,20.5C 549.918,22.3079 551.918,22.9746 554.5,22.5C 556.635,24.369 559.302,25.0356 562.5,24.5C 566.747,24.1941 570.747,24.8608 574.5,26.5C 575.918,28.3079 577.918,28.9746 580.5,28.5C 581.5,28.5 582.5,28.5 583.5,28.5C 585.279,30.3435 587.612,31.0102 590.5,30.5C 594.347,30.3808 598.014,31.0475 601.5,32.5C 603.635,34.369 606.302,35.0356 609.5,34.5C 610.833,34.5 612.167,34.5 613.5,34.5C 614.552,36.256 616.219,36.9227 618.5,36.5C 620.167,36.5 621.833,36.5 623.5,36.5C 624.552,38.256 626.219,38.9227 628.5,38.5C 632.487,38.0097 636.154,38.6764 639.5,40.5C 641.988,42.3878 644.988,43.0545 648.5,42.5C 649.5,42.5 650.5,42.5 651.5,42.5C 652.552,44.256 654.219,44.9227 656.5,44.5C 663.741,44.7288 670.741,46.0621 677.5,48.5C 679.279,50.3435 681.612,51.0102 684.5,50.5C 684.833,50.5 685.167,50.5 685.5,50.5C 687.988,52.3878 690.988,53.0545 694.5,52.5C 696.635,54.369 699.302,55.0356 702.5,54.5C 703.167,54.5 703.833,54.5 704.5,54.5C 706.635,56.369 709.302,57.0356 712.5,56.5C 714.167,56.5 715.833,56.5 717.5,56.5C 718.552,58.256 720.219,58.9227 722.5,58.5C 723.833,58.5 725.167,58.5 726.5,58.5C 727.552,60.256 729.219,60.9227 731.5,60.5C 735.179,60.0604 738.512,60.727 741.5,62.5C 741.557,63.609 741.89,64.609 742.5,65.5C 710.171,58.827 678.171,51.6604 646.5,44C 627.255,40.3607 607.921,36.6941 588.5,33C 564.98,27.4029 541.313,21.9029 517.5,16.5C 508.184,15.3346 498.851,15.1679 489.5,16C 487.624,17.0173 485.624,17.8506 483.5,18.5C 479.131,22.5391 474.797,26.5391 470.5,30.5C 470.5,29.8333 470.5,29.1667 470.5,28.5C 471.167,27.1667 471.833,25.8333 472.5,24.5C 473.833,24.5 474.5,23.8333 474.5,22.5C 475.833,22.5 476.5,21.8333 476.5,20.5C 477.833,20.5 478.5,19.8333 478.5,18.5C 480.623,16.203 483.29,14.8697 486.5,14.5C 488.483,14.8432 489.817,14.1765 490.5,12.5 Z"></path></g><g><path style="opacity:0.149" fill="#b0aeae" d="M 601.5,32.5 C 603.857,32.3367 606.19,32.5034 608.5,33C 609.056,33.3826 609.389,33.8826 609.5,34.5C 606.302,35.0356 603.635,34.369 601.5,32.5 Z"></path></g><g><path style="opacity:0.027" fill="#c2bfbf" d="M 613.5,34.5 C 615.781,34.0773 617.448,34.744 618.5,36.5C 616.219,36.9227 614.552,36.256 613.5,34.5 Z"></path></g><g><path style="opacity:0.025" fill="#d5d3d3" d="M 623.5,36.5 C 625.781,36.0773 627.448,36.744 628.5,38.5C 626.219,38.9227 624.552,38.256 623.5,36.5 Z"></path></g><g><path style="opacity:0.159" fill="#adabab" d="M 639.5,40.5 C 642.187,40.3359 644.854,40.5026 647.5,41C 648.056,41.3826 648.389,41.8826 648.5,42.5C 644.988,43.0545 641.988,42.3878 639.5,40.5 Z"></path></g><g><path style="opacity:0.027" fill="#cccbcb" d="M 651.5,42.5 C 653.781,42.0773 655.448,42.744 656.5,44.5C 654.219,44.9227 652.552,44.256 651.5,42.5 Z"></path></g><g><path style="opacity:0.125" fill="#d2d1d1" d="M 464.5,40.5 C 464.923,42.7812 464.256,44.4479 462.5,45.5C 462.077,43.2188 462.744,41.5521 464.5,40.5 Z"></path></g><g><path style="opacity:0.112" fill="#bdbbbb" d="M 677.5,48.5 C 680.388,47.9898 682.721,48.6565 684.5,50.5C 681.612,51.0102 679.279,50.3435 677.5,48.5 Z"></path></g><g><path style="opacity:0.527" fill="#787777" d="M 470.5,28.5 C 470.5,29.1667 470.5,29.8333 470.5,30.5C 466.12,41.2012 462.787,52.2012 460.5,63.5C 459.833,63.5 459.167,63.5 458.5,63.5C 458.336,60.8127 458.503,58.146 459,55.5C 459.939,52.0603 461.106,48.727 462.5,45.5C 464.256,44.4479 464.923,42.7812 464.5,40.5C 465.485,35.8629 467.485,31.8629 470.5,28.5 Z"></path></g><g><path style="opacity:0.061" fill="#b5b3b3" d="M 685.5,50.5 C 688.187,50.3359 690.854,50.5026 693.5,51C 694.056,51.3826 694.389,51.8826 694.5,52.5C 690.988,53.0545 687.988,52.3878 685.5,50.5 Z"></path></g><g><path style="opacity:0.026" fill="#999796" d="M 694.5,52.5 C 697.698,51.9644 700.365,52.631 702.5,54.5C 699.302,55.0356 696.635,54.369 694.5,52.5 Z"></path></g><g><path style="opacity:0.135" fill="#b2b0b0" d="M 704.5,54.5 C 706.857,54.3367 709.19,54.5034 711.5,55C 712.056,55.3826 712.389,55.8826 712.5,56.5C 709.302,57.0356 706.635,56.369 704.5,54.5 Z"></path></g><g><path style="opacity:0.028" fill="#cccaca" d="M 717.5,56.5 C 719.781,56.0773 721.448,56.744 722.5,58.5C 720.219,58.9227 718.552,58.256 717.5,56.5 Z"></path></g><g><path style="opacity:0.038" fill="#cccaca" d="M 726.5,58.5 C 728.698,58.1201 730.365,58.7868 731.5,60.5C 729.219,60.9227 727.552,60.256 726.5,58.5 Z"></path></g><g><path style="opacity:0.467" fill="#757474" d="M 741.5,62.5 C 747.166,62.9164 752.499,64.2498 757.5,66.5C 758.552,68.256 760.219,68.9227 762.5,68.5C 762.833,68.5 763.167,68.5 763.5,68.5C 764.552,70.256 766.219,70.9227 768.5,70.5C 769.978,70.238 771.311,70.5713 772.5,71.5C 774.641,73.2035 776.641,74.8702 778.5,76.5C 778.5,77.8333 779.167,78.5 780.5,78.5C 782.847,80.5274 784.181,83.194 784.5,86.5C 783.391,86.4431 782.391,86.1098 781.5,85.5C 778.424,81.2534 774.757,77.4201 770.5,74C 761.342,70.2125 752.008,67.3791 742.5,65.5C 741.89,64.609 741.557,63.609 741.5,62.5 Z"></path></g><g><path style="opacity:0.035" fill="#cac9c8" d="M 757.5,66.5 C 759.781,66.0773 761.448,66.744 762.5,68.5C 760.219,68.9227 758.552,68.256 757.5,66.5 Z"></path></g><g><path style="opacity:0.19" fill="#c3c2c2" d="M 458.5,64.5 C 458.923,66.7812 458.256,68.4479 456.5,69.5C 456.077,67.2188 456.744,65.5521 458.5,64.5 Z"></path></g><g><path style="opacity:0.147" fill="#c1bfbf" d="M 763.5,68.5 C 765.698,68.1201 767.365,68.7868 768.5,70.5C 766.219,70.9227 764.552,70.256 763.5,68.5 Z"></path></g><g><path style="opacity:0.351" fill="#898888" d="M 587.5,70.5 C 587.5,71.1667 587.5,71.8333 587.5,72.5C 584.5,72.5 581.5,72.5 578.5,72.5C 580.988,70.6122 583.988,69.9455 587.5,70.5 Z"></path></g><g><path style="opacity:0.021" fill="#f7f7f6" d="M 778.5,76.5 C 779.833,76.5 780.5,77.1667 780.5,78.5C 780.5,77.1667 779.833,76.5 778.5,76.5 Z"></path></g><g><path style="opacity:0.135" fill="#b9b8b7" d="M 578.5,73.5 C 578.5,75.1667 578.5,76.8333 578.5,78.5C 581.01,78.0535 583.01,78.7202 584.5,80.5C 581.833,80.5 579.167,80.5 576.5,80.5C 575.99,77.6122 576.656,75.2789 578.5,73.5 Z"></path></g><g><path style="opacity:0.284" fill="#aaa9a9" d="M 456.5,72.5 C 457.036,75.6981 456.369,78.3647 454.5,80.5C 453.964,77.3019 454.631,74.6353 456.5,72.5 Z"></path></g><g><path style="opacity:0.482" fill="#474646" d="M 587.5,70.5 C 583.988,69.9455 580.988,70.6122 578.5,72.5C 578.5,72.8333 578.5,73.1667 578.5,73.5C 576.656,75.2789 575.99,77.6122 576.5,80.5C 579.167,80.5 581.833,80.5 584.5,80.5C 585.5,80.5 586.5,80.5 587.5,80.5C 588.552,82.256 590.219,82.9227 592.5,82.5C 592.557,83.609 592.89,84.609 593.5,85.5C 586.954,83.8736 580.454,82.207 574,80.5C 574.951,76.1466 576.118,71.8133 577.5,67.5C 580.875,68.5044 584.208,69.5044 587.5,70.5 Z"></path></g><g><path style="opacity:0.017" fill="#c3c1c1" d="M 587.5,80.5 C 589.781,80.0773 591.448,80.744 592.5,82.5C 590.219,82.9227 588.552,82.256 587.5,80.5 Z"></path></g><g><path style="opacity:0.092" fill="#aeacac" d="M 618.5,88.5 C 621.698,87.9644 624.365,88.631 626.5,90.5C 623.302,91.0356 620.635,90.369 618.5,88.5 Z"></path></g><g><path style="opacity:0.051" fill="#bab9b8" d="M 652.5,88.5 C 654.483,88.1568 655.817,88.8235 656.5,90.5C 654.517,90.8432 653.183,90.1765 652.5,88.5 Z"></path></g><g><path style="opacity:0.394" fill="#636161" d="M 588.5,72.5 C 596.328,72.6035 603.995,73.7702 611.5,76C 634.265,82.4276 657.265,88.2609 680.5,93.5C 680.112,96.8788 679.445,100.212 678.5,103.5C 677.833,103.833 677.167,104.167 676.5,104.5C 668.272,102.264 659.938,100.597 651.5,99.5C 651.5,98.5 651.5,97.5 651.5,96.5C 651.833,96.5 652.167,96.5 652.5,96.5C 654.635,98.369 657.302,99.0356 660.5,98.5C 661.5,98.5 662.5,98.5 663.5,98.5C 664.552,100.256 666.219,100.923 668.5,100.5C 669.5,100.5 670.5,100.5 671.5,100.5C 671.791,101.649 672.624,102.316 674,102.5C 675.376,102.316 676.209,101.649 676.5,100.5C 676.5,100.167 676.5,99.8333 676.5,99.5C 677.649,99.2089 678.316,98.3756 678.5,97C 678.316,95.6244 677.649,94.7911 676.5,94.5C 673.813,94.6641 671.146,94.4974 668.5,94C 664.594,92.622 660.594,91.4553 656.5,90.5C 655.817,88.8235 654.483,88.1568 652.5,88.5C 636.155,85.1645 619.822,81.6645 603.5,78C 598.319,76.231 593.319,74.3977 588.5,72.5 Z"></path></g><g><path style="opacity:0.32" fill="#9f9d9e" d="M 454.5,81.5 C 455.055,85.0122 454.388,88.0122 452.5,90.5C 452.336,87.8127 452.503,85.146 453,82.5C 453.383,81.944 453.883,81.6107 454.5,81.5 Z"></path></g><g><path style="opacity:0.204" fill="#b7b6b6" d="M 784.5,86.5 C 786.176,87.1834 786.843,88.5168 786.5,90.5C 784.824,89.8166 784.157,88.4832 784.5,86.5 Z"></path></g><g><path style="opacity:0.026" fill="#cac8c8" d="M 629.5,90.5 C 631.781,90.0773 633.448,90.744 634.5,92.5C 632.219,92.9227 630.552,92.256 629.5,90.5 Z"></path></g><g><path style="opacity:0.286" fill="#666565" d="M 592.5,82.5 C 601.467,83.5766 610.133,85.5766 618.5,88.5C 620.635,90.369 623.302,91.0356 626.5,90.5C 627.5,90.5 628.5,90.5 629.5,90.5C 630.552,92.256 632.219,92.9227 634.5,92.5C 635.5,92.5 636.5,92.5 637.5,92.5C 638.552,94.256 640.219,94.9227 642.5,94.5C 645.187,94.3359 647.854,94.5026 650.5,95C 651.056,95.3826 651.389,95.8826 651.5,96.5C 648.887,97.4349 646.221,97.6015 643.5,97C 626.689,93.0002 610.022,89.1668 593.5,85.5C 592.89,84.609 592.557,83.609 592.5,82.5 Z"></path></g><g><path style="opacity:0.036" fill="#c8c6c6" d="M 637.5,92.5 C 639.781,92.0773 641.448,92.744 642.5,94.5C 640.219,94.9227 638.552,94.256 637.5,92.5 Z"></path></g><g><path style="opacity:0.024" fill="#e9e8e8" d="M 488.5,92.5 C 488.946,95.0101 488.28,97.0101 486.5,98.5C 486.025,95.9179 486.692,93.9179 488.5,92.5 Z"></path></g><g><path style="opacity:0.206" fill="#b4b2b3" d="M 452.5,92.5 C 452.923,94.7812 452.256,96.4479 450.5,97.5C 450.077,95.2188 450.744,93.5521 452.5,92.5 Z"></path></g><g><path style="opacity:0.012" fill="#cecdcd" d="M 652.5,96.5 C 655.698,95.9644 658.365,96.631 660.5,98.5C 657.302,99.0356 654.635,98.369 652.5,96.5 Z"></path></g><g><path style="opacity:0.059" fill="#d9d8d8" d="M 676.5,94.5 C 677.649,94.7911 678.316,95.6244 678.5,97C 678.316,98.3756 677.649,99.2089 676.5,99.5C 676.5,97.8333 676.5,96.1667 676.5,94.5 Z"></path></g><g><path style="opacity:0.022" fill="#c8c6c7" d="M 663.5,98.5 C 665.781,98.0773 667.448,98.744 668.5,100.5C 666.219,100.923 664.552,100.256 663.5,98.5 Z"></path></g><g><path style="opacity:0.021" fill="#c5c3c3" d="M 671.5,100.5 C 673.167,100.5 674.833,100.5 676.5,100.5C 676.209,101.649 675.376,102.316 674,102.5C 672.624,102.316 671.791,101.649 671.5,100.5 Z"></path></g><g><path style="opacity:0.255" fill="#515051" d="M 458.5,63.5 C 459.167,63.5 459.833,63.5 460.5,63.5C 457.221,82.2465 453.221,100.58 448.5,118.5C 448.5,115.833 448.5,113.167 448.5,110.5C 448.5,108.833 448.5,107.167 448.5,105.5C 450.256,104.448 450.923,102.781 450.5,100.5C 450.5,99.5 450.5,98.5 450.5,97.5C 452.256,96.4479 452.923,94.7812 452.5,92.5C 452.5,91.8333 452.5,91.1667 452.5,90.5C 454.388,88.0122 455.055,85.0122 454.5,81.5C 454.5,81.1667 454.5,80.8333 454.5,80.5C 456.369,78.3647 457.036,75.6981 456.5,72.5C 456.5,71.5 456.5,70.5 456.5,69.5C 458.256,68.4479 458.923,66.7812 458.5,64.5C 458.5,64.1667 458.5,63.8333 458.5,63.5 Z"></path></g><g><path style="opacity:0.1" fill="#dbd9d9" d="M 786.5,92.5 C 787.82,95.428 788.486,98.7614 788.5,102.5C 788.333,105.833 788.167,109.167 788,112.5C 787.617,113.056 787.117,113.389 786.5,113.5C 786.5,106.5 786.5,99.5 786.5,92.5 Z"></path></g><g><path style="opacity:0.135" fill="#b7b6b6" d="M 548.5,102.5 C 551.388,101.99 553.721,102.656 555.5,104.5C 552.612,105.01 550.279,104.344 548.5,102.5 Z"></path></g><g><path style="opacity:0.1" fill="#d4d2d2" d="M 450.5,100.5 C 450.923,102.781 450.256,104.448 448.5,105.5C 448.077,103.219 448.744,101.552 450.5,100.5 Z"></path></g><g><path style="opacity:0.032" fill="#e6e5e4" d="M 486.5,102.5 C 486.843,104.483 486.176,105.817 484.5,106.5C 484.157,104.517 484.824,103.183 486.5,102.5 Z"></path></g><g><path style="opacity:0.165" fill="#b9b7b7" d="M 566.5,106.5 C 568.781,106.077 570.448,106.744 571.5,108.5C 569.219,108.923 567.552,108.256 566.5,106.5 Z"></path></g><g><path style="opacity:0.011" fill="#c6c5c5" d="M 484.5,108.5 C 485.036,111.698 484.369,114.365 482.5,116.5C 481.964,113.302 482.631,110.635 484.5,108.5 Z"></path></g><g><path style="opacity:0.032" fill="#cbc9c8" d="M 600.5,114.5 C 602.781,114.077 604.448,114.744 605.5,116.5C 603.219,116.923 601.552,116.256 600.5,114.5 Z"></path></g><g><path style="opacity:0.084" fill="#bfbdbd" d="M 608.5,116.5 C 610.781,116.077 612.448,116.744 613.5,118.5C 611.219,118.923 609.552,118.256 608.5,116.5 Z"></path></g><g><path style="opacity:0.569" fill="#9e9d9d" d="M 448.5,110.5 C 448.5,113.167 448.5,115.833 448.5,118.5C 447.34,121.033 446.007,123.367 444.5,125.5C 444.787,120.003 446.12,115.003 448.5,110.5 Z"></path></g><g><path style="opacity:0.047" fill="#c3c2c1" d="M 618.5,118.5 C 620.483,118.157 621.817,118.824 622.5,120.5C 620.517,120.843 619.183,120.176 618.5,118.5 Z"></path></g><g><path style="opacity:0.163" fill="#aaa8a8" d="M 482.5,117.5 C 483.01,120.388 482.344,122.721 480.5,124.5C 479.99,121.612 480.656,119.279 482.5,117.5 Z"></path></g><g><path style="opacity:0.135" fill="#aaa8a8" d="M 626.5,120.5 C 629.388,119.99 631.721,120.656 633.5,122.5C 630.612,123.01 628.279,122.344 626.5,120.5 Z"></path></g><g><path style="opacity:0.157" fill="#bab8b8" d="M 636.5,122.5 C 638.781,122.077 640.448,122.744 641.5,124.5C 639.219,124.923 637.552,124.256 636.5,122.5 Z"></path></g><g><path style="opacity:0.032" fill="#acabab" d="M 786.5,114.5 C 786.666,118.514 786.499,122.514 786,126.5C 785.617,127.056 785.117,127.389 784.5,127.5C 783.903,122.706 784.57,118.373 786.5,114.5 Z"></path></g><g><path style="opacity:0.073" fill="#cac9c8" d="M 480.5,128.5 C 480.662,130.527 480.495,132.527 480,134.5C 479.617,135.056 479.117,135.389 478.5,135.5C 477.99,132.612 478.656,130.279 480.5,128.5 Z"></path></g><g><path style="opacity:0.071" fill="#cac9c9" d="M 784.5,131.5 C 784.946,134.01 784.28,136.01 782.5,137.5C 782.025,134.918 782.692,132.918 784.5,131.5 Z"></path></g><g><path style="opacity:0.224" fill="#6c6b6b" d="M 507.5,94.5 C 512.214,94.3531 516.881,94.6864 521.5,95.5C 554.269,101.279 586.602,108.446 618.5,117C 627.99,118.188 637.323,120.188 646.5,123C 675.693,127.73 704.36,134.563 732.5,143.5C 733.9,144.1 734.9,145.1 735.5,146.5C 730.952,145.761 726.619,144.428 722.5,142.5C 721.082,140.692 719.082,140.025 716.5,140.5C 691.318,135.282 666.318,129.949 641.5,124.5C 640.448,122.744 638.781,122.077 636.5,122.5C 635.5,122.5 634.5,122.5 633.5,122.5C 631.721,120.656 629.388,119.99 626.5,120.5C 625.167,120.5 623.833,120.5 622.5,120.5C 621.817,118.824 620.483,118.157 618.5,118.5C 616.833,118.5 615.167,118.5 613.5,118.5C 612.448,116.744 610.781,116.077 608.5,116.5C 607.5,116.5 606.5,116.5 605.5,116.5C 604.448,114.744 602.781,114.077 600.5,114.5C 590.712,112.969 581.045,110.969 571.5,108.5C 570.448,106.744 568.781,106.077 566.5,106.5C 562.556,106.887 558.889,106.22 555.5,104.5C 553.721,102.656 551.388,101.99 548.5,102.5C 535.132,100.66 521.799,98.4938 508.5,96C 507.944,95.6174 507.611,95.1174 507.5,94.5 Z"></path></g><g><path style="opacity:0.698" fill="#4c4c4c" d="M 521.5,95.5 C 516.881,94.6864 512.214,94.3531 507.5,94.5C 506.833,94.5 506.167,94.5 505.5,94.5C 501.627,92.5698 497.294,91.9031 492.5,92.5C 491.167,92.5 489.833,92.5 488.5,92.5C 486.692,93.9179 486.025,95.9179 486.5,98.5C 486.5,99.8333 486.5,101.167 486.5,102.5C 484.824,103.183 484.157,104.517 484.5,106.5C 484.5,107.167 484.5,107.833 484.5,108.5C 482.631,110.635 481.964,113.302 482.5,116.5C 482.5,116.833 482.5,117.167 482.5,117.5C 480.656,119.279 479.99,121.612 480.5,124.5C 480.5,125.833 480.5,127.167 480.5,128.5C 478.656,130.279 477.99,132.612 478.5,135.5C 478.5,135.833 478.5,136.167 478.5,136.5C 476.631,138.635 475.964,141.302 476.5,144.5C 476.5,145.5 476.5,146.5 476.5,147.5C 474.824,148.183 474.157,149.517 474.5,151.5C 473.366,149.034 473.199,146.367 474,143.5C 477.676,125.857 481.676,108.19 486,90.5C 487.231,89.8922 488.564,89.5589 490,89.5C 500.238,91.1175 510.405,92.6175 520.5,94C 521.056,94.3826 521.389,94.8826 521.5,95.5 Z"></path></g><g><path style="opacity:0.245" fill="#929090" d="M 492.5,92.5 C 497.294,91.9031 501.627,92.5698 505.5,94.5C 500.706,95.0969 496.373,94.4302 492.5,92.5 Z"></path></g><g><path style="opacity:0.994" fill="#030304" d="M 648.5,162.5 C 649.167,162.5 649.833,162.5 650.5,162.5C 650.791,163.649 651.624,164.316 653,164.5C 654.514,164.23 656.014,163.897 657.5,163.5C 661.239,161.973 664.572,159.973 667.5,157.5C 670.775,159.437 673.775,161.771 676.5,164.5C 677.853,165.524 678.52,166.857 678.5,168.5C 676.952,168.821 676.285,169.821 676.5,171.5C 675.5,171.5 674.5,171.5 673.5,171.5C 672.712,174.434 672.046,177.434 671.5,180.5C 671.782,185.339 673.782,189.339 677.5,192.5C 679.095,193.434 680.761,193.434 682.5,192.5C 687.833,192.5 693.167,192.5 698.5,192.5C 698.5,193.833 698.5,195.167 698.5,196.5C 698.675,200.541 698.842,204.541 699,208.5C 688.471,211.868 684.304,218.868 686.5,229.5C 690.849,234.494 696.182,237.828 702.5,239.5C 702.5,242.5 702.5,245.5 702.5,248.5C 702.5,251.167 702.5,253.833 702.5,256.5C 698.445,256.176 694.445,256.509 690.5,257.5C 687.191,258.715 683.858,259.715 680.5,260.5C 680.116,262.929 679.449,265.263 678.5,267.5C 678.337,269.857 678.503,272.19 679,274.5C 680.591,277.767 682.091,281.1 683.5,284.5C 683.16,286.512 682.827,288.512 682.5,290.5C 679.722,290.806 677.222,291.806 675,293.5C 670.267,291.804 665.6,289.804 661,287.5C 652.589,289.069 648.423,294.069 648.5,302.5C 648.5,303.167 648.5,303.833 648.5,304.5C 648.5,307.5 648.5,310.5 648.5,313.5C 644.932,313.917 641.432,314.584 638,315.5C 634.078,315.362 631.578,313.362 630.5,309.5C 628.918,307.415 626.918,305.915 624.5,305C 618.796,304.313 613.13,304.479 607.5,305.5C 605.896,309.604 604.063,313.604 602,317.5C 601.506,319.134 601.34,320.801 601.5,322.5C 599.219,322.923 597.552,322.256 596.5,320.5C 596.586,319.504 596.252,318.671 595.5,318C 592.715,317.342 590.049,316.509 587.5,315.5C 587.827,310.786 587.493,306.12 586.5,301.5C 583.615,298.774 580.615,296.274 577.5,294C 574.118,293.176 570.784,293.343 567.5,294.5C 564.252,296.709 561.085,299.042 558,301.5C 553.74,299.409 550.24,296.409 547.5,292.5C 550.792,287.772 552.792,282.606 553.5,277C 554.215,272.891 552.548,270.724 548.5,270.5C 546.922,269.934 545.588,268.934 544.5,267.5C 538.537,266.504 532.537,266.171 526.5,266.5C 525.424,263.266 524.757,259.932 524.5,256.5C 524.365,253.583 525.032,250.916 526.5,248.5C 530.052,246.12 533.219,243.12 536,239.5C 536.499,235.848 536.665,232.182 536.5,228.5C 536.451,225.901 535.451,223.734 533.5,222C 530.456,220.596 527.456,219.096 524.5,217.5C 523.652,215.591 523.318,213.591 523.5,211.5C 534.252,209.891 544.085,211.891 553,217.5C 554,220.167 555,222.833 556,225.5C 556.671,226.252 557.504,226.586 558.5,226.5C 558.5,226.833 558.5,227.167 558.5,227.5C 558.45,231.188 558.116,234.855 557.5,238.5C 558.753,241.993 559.587,245.66 560,249.5C 567.78,265.322 579.946,276.655 596.5,283.5C 598.409,282.652 600.409,282.318 602.5,282.5C 603.167,282.5 603.833,282.5 604.5,282.5C 606.743,283.812 609.41,284.478 612.5,284.5C 617.538,284.373 622.538,283.873 627.5,283C 636.505,279.502 644.838,275.002 652.5,269.5C 652.5,268.5 652.5,267.5 652.5,266.5C 653.5,266.5 654.5,266.5 655.5,266.5C 656.97,263.682 657.97,260.682 658.5,257.5C 659.5,257.5 660.5,257.5 661.5,257.5C 670.906,235.718 669.239,215.051 656.5,195.5C 655.264,194.754 653.93,194.421 652.5,194.5C 653.424,190.164 651.757,187.664 647.5,187C 646.167,185.333 644.833,183.667 643.5,182C 638.24,179.533 632.906,177.366 627.5,175.5C 625.484,175.516 624.484,176.516 624.5,178.5C 623.167,177.833 621.833,177.167 620.5,176.5C 617.742,175.182 614.576,174.515 611,174.5C 606.484,174.641 601.984,174.974 597.5,175.5C 591.306,177.862 585.306,180.529 579.5,183.5C 575.358,181.345 571.192,179.345 567,177.5C 564.49,180.436 561.324,182.436 557.5,183.5C 554.107,181.937 552.774,179.271 553.5,175.5C 552.5,175.5 551.5,175.5 550.5,175.5C 550.5,175.167 550.5,174.833 550.5,174.5C 551.301,172.958 551.634,171.292 551.5,169.5C 550.167,169.5 548.833,169.5 547.5,169.5C 547.5,168.167 547.5,166.833 547.5,165.5C 551.933,165.098 555.767,166.431 559,169.5C 560.138,169.011 561.305,168.678 562.5,168.5C 563.833,168.5 565.167,168.5 566.5,168.5C 569.341,169.613 572.007,169.113 574.5,167C 574.167,166.667 573.833,166.333 573.5,166C 574.579,165.044 575.745,164.211 577,163.5C 577.333,157.5 577.667,151.5 578,145.5C 583.089,144.135 587.923,142.468 592.5,140.5C 593.208,147.466 596.708,152.466 603,155.5C 604.138,155.011 605.305,154.678 606.5,154.5C 609.167,153.167 611.833,151.833 614.5,150.5C 615.93,150.579 617.264,150.246 618.5,149.5C 620.312,146.083 621.979,142.75 623.5,139.5C 627.959,140.976 632.626,141.642 637.5,141.5C 637.334,146.179 637.501,150.845 638,155.5C 640.024,160.02 643.524,162.354 648.5,162.5 Z M 568.5,182.5 C 567.833,182.5 567.167,182.5 566.5,182.5C 567.167,179.833 567.833,179.833 568.5,182.5 Z M 554.5,214.5 C 555.833,214.5 556.5,215.167 556.5,216.5C 556.5,215.167 555.833,214.5 554.5,214.5 Z M 556.5,216.5 C 558.176,217.183 558.843,218.517 558.5,220.5C 556.824,219.817 556.157,218.483 556.5,216.5 Z M 558.5,220.5 C 559.735,220.721 560.735,221.388 561.5,222.5C 563.572,227.977 564.738,233.644 565,239.5C 565.5,240 566,240.5 566.5,241C 565.106,241.956 564.439,243.289 564.5,245C 566.072,247.919 566.739,251.085 566.5,254.5C 564.903,253.263 563.737,251.596 563,249.5C 561.01,242.731 560.01,235.731 560,228.5C 559.617,227.944 559.117,227.611 558.5,227.5C 558.5,227.167 558.5,226.833 558.5,226.5C 558.5,224.5 558.5,222.5 558.5,220.5 Z M 566.5,254.5 C 567.833,254.5 568.5,255.167 568.5,256.5C 568.5,255.167 567.833,254.5 566.5,254.5 Z M 568.5,258.5 C 569.833,258.5 570.5,259.167 570.5,260.5C 570.5,259.167 569.833,258.5 568.5,258.5 Z M 570.5,260.5 C 571.833,260.5 572.5,261.167 572.5,262.5C 572.5,261.167 571.833,260.5 570.5,260.5 Z M 572.5,262.5 C 573.833,262.5 574.5,263.167 574.5,264.5C 574.5,263.167 573.833,262.5 572.5,262.5 Z M 574.5,264.5 C 575.833,264.5 576.5,265.167 576.5,266.5C 576.5,265.167 575.833,264.5 574.5,264.5 Z"></path></g><g><path style="opacity:0.139" fill="#b5b3b3" d="M 716.5,140.5 C 719.082,140.025 721.082,140.692 722.5,142.5C 719.918,142.975 717.918,142.308 716.5,140.5 Z"></path></g><g><path style="opacity:0.194" fill="#bfbebe" d="M 442.5,138.5 C 442.923,140.781 442.256,142.448 440.5,143.5C 440.077,141.219 440.744,139.552 442.5,138.5 Z"></path></g><g><path style="opacity:0.021" fill="#cfcdcd" d="M 478.5,136.5 C 479.036,139.698 478.369,142.365 476.5,144.5C 475.964,141.302 476.631,138.635 478.5,136.5 Z"></path></g><g><path style="opacity:0.147" fill="#b2b1b1" d="M 782.5,139.5 C 783.01,142.388 782.344,144.721 780.5,146.5C 779.99,143.612 780.656,141.279 782.5,139.5 Z"></path></g><g><path style="opacity:0.393" fill="#313031" d="M 648.5,162.5 C 643.524,162.354 640.024,160.02 638,155.5C 637.501,150.845 637.334,146.179 637.5,141.5C 632.626,141.642 627.959,140.976 623.5,139.5C 621.979,142.75 620.312,146.083 618.5,149.5C 617.264,150.246 615.93,150.579 614.5,150.5C 617.395,146.39 620.062,142.056 622.5,137.5C 623.5,137.167 624.5,136.833 625.5,136.5C 629.956,138.052 634.623,138.885 639.5,139C 640.147,144.78 640.814,150.613 641.5,156.5C 643.79,158.773 646.123,160.773 648.5,162.5 Z"></path></g><g><path style="opacity:0.584" fill="#656464" d="M 444.5,128.5 C 444.397,134.861 443.897,141.194 443,147.5C 439.306,162.599 435.806,177.599 432.5,192.5C 432.5,189.167 432.5,185.833 432.5,182.5C 432.5,181.5 432.5,180.5 432.5,179.5C 434.256,178.448 434.923,176.781 434.5,174.5C 434.5,173.5 434.5,172.5 434.5,171.5C 436.256,170.448 436.923,168.781 436.5,166.5C 436.5,165.5 436.5,164.5 436.5,163.5C 438.344,161.721 439.01,159.388 438.5,156.5C 438.272,151.985 438.938,147.652 440.5,143.5C 442.256,142.448 442.923,140.781 442.5,138.5C 441.931,134.671 442.598,131.337 444.5,128.5 Z"></path></g><g><path style="opacity:0.204" fill="#b7b6b6" d="M 736.5,146.5 C 738.483,146.157 739.817,146.824 740.5,148.5C 738.517,148.843 737.183,148.176 736.5,146.5 Z"></path></g><g><path style="opacity:0.855" fill="#2e2e2f" d="M 592.5,140.5 C 596.5,145.833 601.167,150.5 606.5,154.5C 605.305,154.678 604.138,155.011 603,155.5C 596.708,152.466 593.208,147.466 592.5,140.5 Z"></path></g><g><path style="opacity:0.052" fill="#c4c2c3" d="M 476.5,147.5 C 476.923,149.781 476.256,151.448 474.5,152.5C 474.5,152.167 474.5,151.833 474.5,151.5C 474.157,149.517 474.824,148.183 476.5,147.5 Z"></path></g><g><path style="opacity:0.141" fill="#b7b5b5" d="M 780.5,148.5 C 781.036,151.698 780.369,154.365 778.5,156.5C 777.964,153.302 778.631,150.635 780.5,148.5 Z"></path></g><g><path style="opacity:0.102" fill="#353536" d="M 592.5,140.5 C 587.923,142.468 583.089,144.135 578,145.5C 577.667,151.5 577.333,157.5 577,163.5C 575.745,164.211 574.579,165.044 573.5,166C 573.833,166.333 574.167,166.667 574.5,167C 572.007,169.113 569.341,169.613 566.5,168.5C 568.877,166.773 571.21,164.773 573.5,162.5C 574.497,155.866 574.83,149.2 574.5,142.5C 579.832,141.665 584.999,140.331 590,138.5C 591.376,138.684 592.209,139.351 592.5,140.5 Z"></path></g><g><path style="opacity:0.378" fill="#343434" d="M 678.5,168.5 C 678.52,166.857 677.853,165.524 676.5,164.5C 673.775,161.771 670.775,159.437 667.5,157.5C 664.572,159.973 661.239,161.973 657.5,163.5C 656.014,163.897 654.514,164.23 653,164.5C 651.624,164.316 650.791,163.649 650.5,162.5C 656.547,160.643 662.214,157.977 667.5,154.5C 671.05,156.041 674.05,158.374 676.5,161.5C 677.689,162.429 679.022,162.762 680.5,162.5C 680.946,165.01 680.28,167.01 678.5,168.5 Z"></path></g><g><path style="opacity:0.147" fill="#b9b8b8" d="M 474.5,155.5 C 475.01,158.388 474.344,160.721 472.5,162.5C 471.99,159.612 472.656,157.279 474.5,155.5 Z"></path></g><g><path style="opacity:0.118" fill="#b8b7b6" d="M 438.5,156.5 C 439.01,159.388 438.344,161.721 436.5,163.5C 435.99,160.612 436.656,158.279 438.5,156.5 Z"></path></g><g><path style="opacity:0.088" fill="#c7c6c6" d="M 778.5,158.5 C 778.662,160.527 778.495,162.527 778,164.5C 777.617,165.056 777.117,165.389 776.5,165.5C 775.99,162.612 776.656,160.279 778.5,158.5 Z"></path></g><g><path style="opacity:0.373" fill="#2a2c2d" d="M 562.5,168.5 C 561.305,168.678 560.138,169.011 559,169.5C 555.767,166.431 551.933,165.098 547.5,165.5C 547.5,166.833 547.5,168.167 547.5,169.5C 548.833,169.5 550.167,169.5 551.5,169.5C 551.634,171.292 551.301,172.958 550.5,174.5C 549.833,174.5 549.167,174.5 548.5,174.5C 548.5,173.167 547.833,172.5 546.5,172.5C 542.988,164.337 545.655,161.337 554.5,163.5C 557.633,164.716 560.3,166.383 562.5,168.5 Z"></path></g><g><path style="opacity:0.275" fill="#b2b0b0" d="M 740.5,162.5 C 741.036,165.698 740.369,168.365 738.5,170.5C 737.964,167.302 738.631,164.635 740.5,162.5 Z"></path></g><g><path style="opacity:0.125" fill="#b7b6b6" d="M 776.5,166.5 C 776.662,168.527 776.495,170.527 776,172.5C 775.617,173.056 775.117,173.389 774.5,173.5C 773.99,170.612 774.656,168.279 776.5,166.5 Z"></path></g><g><path style="opacity:0.204" fill="#bab9b9" d="M 436.5,166.5 C 436.923,168.781 436.256,170.448 434.5,171.5C 434.077,169.219 434.744,167.552 436.5,166.5 Z"></path></g><g><path style="opacity:0.021" fill="#cfcdcd" d="M 472.5,164.5 C 473.036,167.698 472.369,170.365 470.5,172.5C 469.964,169.302 470.631,166.635 472.5,164.5 Z"></path></g><g><path style="opacity:0.184" fill="#2c2e2f" d="M 620.5,176.5 C 611.67,176.111 603.003,177.111 594.5,179.5C 588.881,182.982 582.881,185.316 576.5,186.5C 575.817,184.824 574.483,184.157 572.5,184.5C 572.5,183.167 571.833,182.5 570.5,182.5C 569.833,182.5 569.167,182.5 568.5,182.5C 567.833,179.833 567.167,179.833 566.5,182.5C 565.167,182.5 564.5,183.167 564.5,184.5C 563.833,184.5 563.167,184.5 562.5,184.5C 561.167,184.5 560.5,185.167 560.5,186.5C 557.833,186.5 555.167,186.5 552.5,186.5C 552.975,183.918 552.308,181.918 550.5,180.5C 550.5,178.833 550.5,177.167 550.5,175.5C 551.5,175.5 552.5,175.5 553.5,175.5C 552.774,179.271 554.107,181.937 557.5,183.5C 561.324,182.436 564.49,180.436 567,177.5C 571.192,179.345 575.358,181.345 579.5,183.5C 585.306,180.529 591.306,177.862 597.5,175.5C 601.984,174.974 606.484,174.641 611,174.5C 614.576,174.515 617.742,175.182 620.5,176.5 Z M 568.5,182.5 C 567.833,182.5 567.167,182.5 566.5,182.5C 567.167,179.833 567.833,179.833 568.5,182.5 Z M 566.5,182.5 C 566.5,183.833 565.833,184.5 564.5,184.5C 564.5,183.167 565.167,182.5 566.5,182.5 Z M 570.5,182.5 C 571.833,182.5 572.5,183.167 572.5,184.5C 572.5,183.167 571.833,182.5 570.5,182.5 Z M 562.5,184.5 C 562.5,185.167 562.5,185.833 562.5,186.5C 561.833,186.5 561.167,186.5 560.5,186.5C 560.5,185.167 561.167,184.5 562.5,184.5 Z M 572.5,184.5 C 574.483,184.157 575.817,184.824 576.5,186.5C 574.517,186.843 573.183,186.176 572.5,184.5 Z"></path></g><g><path style="opacity:0.094" fill="#dedddc" d="M 434.5,174.5 C 434.923,176.781 434.256,178.448 432.5,179.5C 432.077,177.219 432.744,175.552 434.5,174.5 Z"></path></g><g><path style="opacity:0.084" fill="#d2d1d0" d="M 470.5,175.5 C 471.01,178.388 470.344,180.721 468.5,182.5C 467.99,179.612 468.656,177.279 470.5,175.5 Z"></path></g><g><path style="opacity:0.11" fill="#c6c5c5" d="M 774.5,175.5 C 775.01,178.388 774.344,180.721 772.5,182.5C 771.99,179.612 772.656,177.279 774.5,175.5 Z"></path></g><g><path style="opacity:0.97" fill="#f14c52" d="M 546.5,172.5 C 547.833,172.5 548.5,173.167 548.5,174.5C 548.025,177.082 548.692,179.082 550.5,180.5C 550.025,183.082 550.692,185.082 552.5,186.5C 553.334,187.748 554.667,188.415 556.5,188.5C 558.333,188.415 559.666,187.748 560.5,186.5C 561.167,186.5 561.833,186.5 562.5,186.5C 562.767,188.971 561.767,190.638 559.5,191.5C 555.421,191.158 551.755,189.825 548.5,187.5C 547.808,188.025 547.308,188.692 547,189.5C 543.161,185.8 542.327,181.467 544.5,176.5C 541.786,176.25 539.119,176.083 536.5,176C 533.984,184.848 528.318,188.348 519.5,186.5C 516.275,183.383 513.275,180.05 510.5,176.5C 509.614,177.325 509.281,178.325 509.5,179.5C 506.892,179.4 504.558,180.067 502.5,181.5C 502.5,179.833 502.5,178.167 502.5,176.5C 505.361,176.658 508.028,175.992 510.5,174.5C 514.132,177.13 517.465,180.13 520.5,183.5C 523.725,184.941 526.725,184.607 529.5,182.5C 531.677,179.351 533.343,176.018 534.5,172.5C 538.5,172.5 542.5,172.5 546.5,172.5 Z M 552.5,186.5 C 555.167,186.5 557.833,186.5 560.5,186.5C 559.666,187.748 558.333,188.415 556.5,188.5C 554.667,188.415 553.334,187.748 552.5,186.5 Z"></path></g><g><path style="opacity:0.29" fill="#a6a5a5" d="M 738.5,172.5 C 739.036,175.698 738.369,178.365 736.5,180.5C 735.964,177.302 736.631,174.635 738.5,172.5 Z"></path></g><g><path style="opacity:0.133" fill="#cccbcb" d="M 736.5,182.5 C 736.923,184.781 736.256,186.448 734.5,187.5C 734.077,185.219 734.744,183.552 736.5,182.5 Z"></path></g><g><path style="opacity:1" fill="#ed1f3d" d="M 562.5,186.5 C 564.591,186.682 566.591,186.348 568.5,185.5C 570.167,187.167 571.833,188.833 573.5,190.5C 573.33,196.084 573.663,201.75 574.5,207.5C 577.084,208.393 579.751,208.726 582.5,208.5C 582.833,208.5 583.167,208.5 583.5,208.5C 585.717,210.08 588.384,211.08 591.5,211.5C 595.447,218.32 593.78,222.986 586.5,225.5C 583.833,229.5 583.833,233.5 586.5,237.5C 590.13,240.14 593.797,242.64 597.5,245C 595.823,247.547 595.156,250.38 595.5,253.5C 591.37,253.534 587.37,254.201 583.5,255.5C 583.129,258.892 581.463,261.558 578.5,263.5C 572.852,260.032 569.685,255.032 569,248.5C 569.596,237.127 567.096,226.627 561.5,217C 556.276,209.904 549.276,206.404 540.5,206.5C 540.167,206.5 539.833,206.5 539.5,206.5C 539.586,205.504 539.252,204.671 538.5,204C 531.138,202.725 524.138,203.558 517.5,206.5C 516.147,207.524 515.48,208.857 515.5,210.5C 515.167,210.5 514.833,210.5 514.5,210.5C 511.757,211.388 509.09,212.555 506.5,214C 500.195,220.935 497.529,229.102 498.5,238.5C 498.5,238.833 498.5,239.167 498.5,239.5C 497.414,239.62 496.747,240.287 496.5,241.5C 497.596,250.856 501.263,259.023 507.5,266C 509.134,266.494 510.801,266.66 512.5,266.5C 522.133,271.593 532.467,273.593 543.5,272.5C 543.821,274.048 544.821,274.715 546.5,274.5C 546.5,277.5 546.5,280.5 546.5,283.5C 545.5,283.5 544.5,283.5 543.5,283.5C 541.322,289.513 537.489,294.179 532,297.5C 530.441,299.217 529.608,301.217 529.5,303.5C 526.833,303.5 524.167,303.5 521.5,303.5C 520.747,297.868 518.247,293.201 514,289.5C 512.208,288.963 510.375,288.63 508.5,288.5C 504.581,289.389 500.747,290.389 497,291.5C 493.016,291.497 490.516,289.664 489.5,286C 491.032,283.534 492.032,280.868 492.5,278C 492.316,276.624 491.649,275.791 490.5,275.5C 488.911,273.694 486.911,272.361 484.5,271.5C 480.084,271.118 476.084,270.118 472.5,268.5C 471.485,264.469 471.485,260.469 472.5,256.5C 474.451,253.87 476.451,251.204 478.5,248.5C 476.506,242.412 472.339,238.745 466,237.5C 465.5,236.5 465,235.5 464.5,234.5C 465.63,233.378 466.297,232.044 466.5,230.5C 468.308,229.082 468.975,227.082 468.5,224.5C 479.191,226.456 484.858,222.123 485.5,211.5C 484.5,211.5 483.5,211.5 482.5,211.5C 482.449,208.459 481.449,205.792 479.5,203.5C 480.64,201.527 481.973,199.693 483.5,198C 487.704,197.34 491.704,197.84 495.5,199.5C 500.396,198.272 503.729,195.272 505.5,190.5C 504.012,188.014 503.012,185.347 502.5,182.5C 502.5,182.167 502.5,181.833 502.5,181.5C 504.558,180.067 506.892,179.4 509.5,179.5C 509.281,178.325 509.614,177.325 510.5,176.5C 513.275,180.05 516.275,183.383 519.5,186.5C 528.318,188.348 533.984,184.848 536.5,176C 539.119,176.083 541.786,176.25 544.5,176.5C 542.327,181.467 543.161,185.8 547,189.5C 547.308,188.692 547.808,188.025 548.5,187.5C 551.755,189.825 555.421,191.158 559.5,191.5C 561.767,190.638 562.767,188.971 562.5,186.5 Z M 552.5,186.5 C 555.167,186.5 557.833,186.5 560.5,186.5C 559.666,187.748 558.333,188.415 556.5,188.5C 554.667,188.415 553.334,187.748 552.5,186.5 Z M 539.5,206.5 C 539.833,206.5 540.167,206.5 540.5,206.5C 540.5,207.167 540.5,207.833 540.5,208.5C 535.167,208.5 529.833,208.5 524.5,208.5C 529.056,206.558 534.056,205.892 539.5,206.5 Z M 542.5,208.5 C 544.483,208.157 545.817,208.824 546.5,210.5C 544.517,210.843 543.183,210.176 542.5,208.5 Z M 548.5,210.5 C 549.833,210.5 550.5,211.167 550.5,212.5C 550.5,211.167 549.833,210.5 548.5,210.5 Z M 554.5,214.5 C 555.833,214.5 556.5,215.167 556.5,216.5C 556.5,215.167 555.833,214.5 554.5,214.5 Z M 556.5,216.5 C 558.176,217.183 558.843,218.517 558.5,220.5C 556.824,219.817 556.157,218.483 556.5,216.5 Z M 558.5,220.5 C 559.735,220.721 560.735,221.388 561.5,222.5C 563.572,227.977 564.738,233.644 565,239.5C 565.5,240 566,240.5 566.5,241C 565.106,241.956 564.439,243.289 564.5,245C 566.072,247.919 566.739,251.085 566.5,254.5C 564.903,253.263 563.737,251.596 563,249.5C 561.01,242.731 560.01,235.731 560,228.5C 559.617,227.944 559.117,227.611 558.5,227.5C 558.5,227.167 558.5,226.833 558.5,226.5C 558.5,224.5 558.5,222.5 558.5,220.5 Z M 566.5,254.5 C 567.833,254.5 568.5,255.167 568.5,256.5C 568.5,255.167 567.833,254.5 566.5,254.5 Z M 568.5,258.5 C 569.833,258.5 570.5,259.167 570.5,260.5C 570.5,259.167 569.833,258.5 568.5,258.5 Z M 570.5,260.5 C 571.833,260.5 572.5,261.167 572.5,262.5C 572.5,261.167 571.833,260.5 570.5,260.5 Z"></path></g><g><path style="opacity:0.784" fill="#2f2f30" d="M 652.5,194.5 C 648.908,191.915 645.575,188.915 642.5,185.5C 636.881,182.018 630.881,179.684 624.5,178.5C 624.484,176.516 625.484,175.516 627.5,175.5C 632.906,177.366 638.24,179.533 643.5,182C 644.833,183.667 646.167,185.333 647.5,187C 651.757,187.664 653.424,190.164 652.5,194.5 Z"></path></g><g><path style="opacity:0.737" fill="#5a5959" d="M 732.5,143.5 C 736.988,144.363 741.321,145.696 745.5,147.5C 741.745,168.355 737.411,189.022 732.5,209.5C 732.5,206.5 732.5,203.5 732.5,200.5C 732.69,196.077 733.357,191.744 734.5,187.5C 736.256,186.448 736.923,184.781 736.5,182.5C 736.5,181.833 736.5,181.167 736.5,180.5C 738.369,178.365 739.036,175.698 738.5,172.5C 738.5,171.833 738.5,171.167 738.5,170.5C 740.369,168.365 741.036,165.698 740.5,162.5C 740.215,158.975 740.881,155.642 742.5,152.5C 742.248,150.927 741.582,149.594 740.5,148.5C 739.817,146.824 738.483,146.157 736.5,146.5C 736.167,146.5 735.833,146.5 735.5,146.5C 734.9,145.1 733.9,144.1 732.5,143.5 Z"></path></g><g><path style="opacity:0.322" fill="#9d9b9c" d="M 432.5,182.5 C 432.5,185.833 432.5,189.167 432.5,192.5C 431.833,192.5 431.167,192.5 430.5,192.5C 430.335,189.482 430.502,186.482 431,183.5C 431.383,182.944 431.883,182.611 432.5,182.5 Z"></path></g><g><path style="opacity:0.549" fill="#302f30" d="M 678.5,168.5 C 676.916,172.691 675.583,177.024 674.5,181.5C 674.833,183.167 675.167,184.833 675.5,186.5C 677.79,188.773 680.123,190.773 682.5,192.5C 680.761,193.434 679.095,193.434 677.5,192.5C 673.782,189.339 671.782,185.339 671.5,180.5C 672.046,177.434 672.712,174.434 673.5,171.5C 674.5,171.5 675.5,171.5 676.5,171.5C 676.285,169.821 676.952,168.821 678.5,168.5 Z"></path></g><g><path style="opacity:0.739" fill="#f15557" d="M 566.5,182.5 C 567.167,182.5 567.833,182.5 568.5,182.5C 569.167,182.5 569.833,182.5 570.5,182.5C 570.5,183.833 571.167,184.5 572.5,184.5C 573.183,186.176 574.517,186.843 576.5,186.5C 577.347,188.029 578.014,189.696 578.5,191.5C 576.855,196.368 576.189,201.368 576.5,206.5C 579.082,206.025 581.082,206.692 582.5,208.5C 579.751,208.726 577.084,208.393 574.5,207.5C 573.663,201.75 573.33,196.084 573.5,190.5C 571.833,188.833 570.167,187.167 568.5,185.5C 566.591,186.348 564.591,186.682 562.5,186.5C 562.5,185.833 562.5,185.167 562.5,184.5C 563.167,184.5 563.833,184.5 564.5,184.5C 565.833,184.5 566.5,183.833 566.5,182.5 Z"></path></g><g><path style="opacity:0.235" fill="#aaa9a9" d="M 772.5,185.5 C 771.267,190.332 770.433,195.332 770,200.5C 769.617,201.056 769.117,201.389 768.5,201.5C 768.18,198.102 768.513,194.768 769.5,191.5C 769.964,189.025 770.964,187.025 772.5,185.5 Z"></path></g><g><path style="opacity:0.057" fill="#d4d4d4" d="M 466.5,194.5 C 466.975,197.082 466.308,199.082 464.5,200.5C 464.025,197.918 464.692,195.918 466.5,194.5 Z"></path></g><g><path style="opacity:0.502" fill="#f0585a" d="M 502.5,182.5 C 503.012,185.347 504.012,188.014 505.5,190.5C 503.729,195.272 500.396,198.272 495.5,199.5C 491.704,197.84 487.704,197.34 483.5,198C 481.973,199.693 480.64,201.527 479.5,203.5C 481.449,205.792 482.449,208.459 482.5,211.5C 483.5,211.5 484.5,211.5 485.5,211.5C 484.858,222.123 479.191,226.456 468.5,224.5C 468.975,227.082 468.308,229.082 466.5,230.5C 466.5,227.833 466.5,225.167 466.5,222.5C 470.555,222.824 474.555,222.491 478.5,221.5C 481.866,219.317 483.033,216.317 482,212.5C 479.946,209.617 478.112,206.617 476.5,203.5C 478.328,200.687 479.661,197.687 480.5,194.5C 485.727,194.093 490.727,194.76 495.5,196.5C 501.892,194.73 503.558,191.063 500.5,185.5C 500.453,183.962 501.12,182.962 502.5,182.5 Z"></path></g><g><path style="opacity:0.599" fill="#f75057" d="M 539.5,206.5 C 534.056,205.892 529.056,206.558 524.5,208.5C 523.167,208.5 521.833,208.5 520.5,208.5C 518.989,209.502 517.322,210.169 515.5,210.5C 515.48,208.857 516.147,207.524 517.5,206.5C 524.138,203.558 531.138,202.725 538.5,204C 539.252,204.671 539.586,205.504 539.5,206.5 Z"></path></g><g><path style="opacity:0.112" fill="#dfdede" d="M 428.5,202.5 C 428.923,204.781 428.256,206.448 426.5,207.5C 426.077,205.219 426.744,203.552 428.5,202.5 Z"></path></g><g><path style="opacity:0.114" fill="#bfbdbd" d="M 768.5,204.5 C 768.975,207.082 768.308,209.082 766.5,210.5C 766.025,207.918 766.692,205.918 768.5,204.5 Z"></path></g><g><path style="opacity:0.265" fill="#a9a8a8" d="M 732.5,200.5 C 732.5,203.5 732.5,206.5 732.5,209.5C 731.833,209.5 731.167,209.5 730.5,209.5C 729.945,205.988 730.612,202.988 732.5,200.5 Z"></path></g><g><path style="opacity:0.017" fill="#ecebeb" d="M 464.5,205.5 C 464.923,207.781 464.256,209.448 462.5,210.5C 462.077,208.219 462.744,206.552 464.5,205.5 Z"></path></g><g><path style="opacity:0.718" fill="#716f6f" d="M 430.5,193.5 C 430.039,205.878 428.039,217.878 424.5,229.5C 423.833,229.5 423.167,229.5 422.5,229.5C 423.198,222.042 424.532,214.709 426.5,207.5C 428.256,206.448 428.923,204.781 428.5,202.5C 428.336,199.813 428.503,197.146 429,194.5C 429.383,193.944 429.883,193.611 430.5,193.5 Z"></path></g><g><path style="opacity:0.092" fill="#d3d1d1" d="M 730.5,210.5 C 730.975,213.082 730.308,215.082 728.5,216.5C 728.025,213.918 728.692,211.918 730.5,210.5 Z"></path></g><g><path style="opacity:0.043" fill="#cccbcb" d="M 462.5,213.5 C 462.923,215.781 462.256,217.448 460.5,218.5C 460.077,216.219 460.744,214.552 462.5,213.5 Z"></path></g><g><path style="opacity:0.086" fill="#c4c2c3" d="M 766.5,214.5 C 766.975,217.082 766.308,219.082 764.5,220.5C 764.025,217.918 764.692,215.918 766.5,214.5 Z"></path></g><g><path style="opacity:0.961" fill="#202223" d="M 520.5,208.5 C 521.833,208.5 523.167,208.5 524.5,208.5C 529.833,208.5 535.167,208.5 540.5,208.5C 541.167,208.5 541.833,208.5 542.5,208.5C 543.183,210.176 544.517,210.843 546.5,210.5C 547.167,210.5 547.833,210.5 548.5,210.5C 548.5,211.833 549.167,212.5 550.5,212.5C 551.833,213.167 553.167,213.833 554.5,214.5C 554.5,215.833 555.167,216.5 556.5,216.5C 556.157,218.483 556.824,219.817 558.5,220.5C 558.5,222.5 558.5,224.5 558.5,226.5C 557.504,226.586 556.671,226.252 556,225.5C 555,222.833 554,220.167 553,217.5C 544.085,211.891 534.252,209.891 523.5,211.5C 523.318,213.591 523.652,215.591 524.5,217.5C 527.456,219.096 530.456,220.596 533.5,222C 535.451,223.734 536.451,225.901 536.5,228.5C 531.395,226.113 526.395,223.446 521.5,220.5C 520.509,216.555 520.176,212.555 520.5,208.5 Z"></path></g><g><path style="opacity:0.12" fill="#bcbbba" d="M 728.5,220.5 C 728.975,223.082 728.308,225.082 726.5,226.5C 726.025,223.918 726.692,221.918 728.5,220.5 Z"></path></g><g><path style="opacity:0.484" fill="#f1615f" d="M 514.5,210.5 C 511.915,214.092 508.915,217.425 505.5,220.5C 501.973,225.622 500.14,231.289 500,237.5C 499.617,238.056 499.117,238.389 498.5,238.5C 497.529,229.102 500.195,220.935 506.5,214C 509.09,212.555 511.757,211.388 514.5,210.5 Z"></path></g><g><path style="opacity:0.065" fill="#c9c8c7" d="M 460.5,222.5 C 460.975,225.082 460.308,227.082 458.5,228.5C 458.025,225.918 458.692,223.918 460.5,222.5 Z"></path></g><g><path style="opacity:0.116" fill="#c6c5c5" d="M 422.5,230.5 C 422.975,233.082 422.308,235.082 420.5,236.5C 420.025,233.918 420.692,231.918 422.5,230.5 Z"></path></g><g><path style="opacity:0.139" fill="#b8b8b7" d="M 458.5,230.5 C 458.663,232.857 458.497,235.19 458,237.5C 457.617,238.056 457.117,238.389 456.5,238.5C 455.964,235.302 456.631,232.635 458.5,230.5 Z"></path></g><g><path style="opacity:0.182" fill="#c1c0c0" d="M 726.5,230.5 C 726.923,232.781 726.256,234.448 724.5,235.5C 724.077,233.219 724.744,231.552 726.5,230.5 Z"></path></g><g><path style="opacity:0.19" fill="#b6b4b5" d="M 764.5,224.5 C 764.663,226.857 764.497,229.19 764,231.5C 763.246,234.818 762.08,237.818 760.5,240.5C 760.183,237.428 760.516,234.428 761.5,231.5C 761.938,228.705 762.938,226.372 764.5,224.5 Z"></path></g><g><path style="opacity:0.333" fill="#f25a5b" d="M 540.5,206.5 C 549.276,206.404 556.276,209.904 561.5,217C 567.096,226.627 569.596,237.127 569,248.5C 569.685,255.032 572.852,260.032 578.5,263.5C 581.463,261.558 583.129,258.892 583.5,255.5C 587.37,254.201 591.37,253.534 595.5,253.5C 595.156,250.38 595.823,247.547 597.5,245C 593.797,242.64 590.13,240.14 586.5,237.5C 583.833,233.5 583.833,229.5 586.5,225.5C 593.78,222.986 595.447,218.32 591.5,211.5C 588.384,211.08 585.717,210.08 583.5,208.5C 587.167,208.5 590.833,208.5 594.5,208.5C 595.393,211.585 596.06,214.752 596.5,218C 596.033,222.966 593.366,225.799 588.5,226.5C 588.18,229.898 588.513,233.232 589.5,236.5C 592.693,238.843 596.193,240.51 600,241.5C 599.677,246.482 599.177,251.482 598.5,256.5C 590.007,255.021 584.674,258.355 582.5,266.5C 580.5,266.5 578.5,266.5 576.5,266.5C 576.5,265.167 575.833,264.5 574.5,264.5C 574.5,263.167 573.833,262.5 572.5,262.5C 572.5,261.167 571.833,260.5 570.5,260.5C 570.5,259.167 569.833,258.5 568.5,258.5C 568.5,257.833 568.5,257.167 568.5,256.5C 568.5,255.167 567.833,254.5 566.5,254.5C 566.739,251.085 566.072,247.919 564.5,245C 564.439,243.289 565.106,241.956 566.5,241C 566,240.5 565.5,240 565,239.5C 564.738,233.644 563.572,227.977 561.5,222.5C 560.735,221.388 559.735,220.721 558.5,220.5C 558.843,218.517 558.176,217.183 556.5,216.5C 555.167,216.5 554.5,215.833 554.5,214.5C 553.167,213.833 551.833,213.167 550.5,212.5C 549.167,212.5 548.5,211.833 548.5,210.5C 547.833,210.5 547.167,210.5 546.5,210.5C 545.817,208.824 544.483,208.157 542.5,208.5C 541.833,208.5 541.167,208.5 540.5,208.5C 540.5,207.833 540.5,207.167 540.5,206.5 Z"></path></g><g><path style="opacity:0.333" fill="#2c2d2e" d="M 698.5,196.5 C 700.724,200.699 702.057,205.365 702.5,210.5C 698.954,211.606 695.621,213.273 692.5,215.5C 686.878,222.087 687.544,228.087 694.5,233.5C 697.55,235.517 700.883,236.517 704.5,236.5C 704.665,240.182 704.499,243.848 704,247.5C 703.617,248.056 703.117,248.389 702.5,248.5C 702.5,245.5 702.5,242.5 702.5,239.5C 696.182,237.828 690.849,234.494 686.5,229.5C 684.304,218.868 688.471,211.868 699,208.5C 698.842,204.541 698.675,200.541 698.5,196.5 Z"></path></g><g><path style="opacity:0.478" fill="#545353" d="M 474.5,153.5 C 474.5,154.167 474.5,154.833 474.5,155.5C 472.656,157.279 471.99,159.612 472.5,162.5C 472.5,163.167 472.5,163.833 472.5,164.5C 470.631,166.635 469.964,169.302 470.5,172.5C 470.5,173.5 470.5,174.5 470.5,175.5C 468.656,177.279 467.99,179.612 468.5,182.5C 468.466,186.63 467.799,190.63 466.5,194.5C 464.692,195.918 464.025,197.918 464.5,200.5C 464.5,202.167 464.5,203.833 464.5,205.5C 462.744,206.552 462.077,208.219 462.5,210.5C 462.5,211.5 462.5,212.5 462.5,213.5C 460.744,214.552 460.077,216.219 460.5,218.5C 460.5,219.833 460.5,221.167 460.5,222.5C 458.692,223.918 458.025,225.918 458.5,228.5C 458.5,229.167 458.5,229.833 458.5,230.5C 456.631,232.635 455.964,235.302 456.5,238.5C 456.5,239.167 456.5,239.833 456.5,240.5C 454.631,242.635 453.964,245.302 454.5,248.5C 454.5,249.167 454.5,249.833 454.5,250.5C 452.692,251.918 452.025,253.918 452.5,256.5C 452.5,257.833 452.5,259.167 452.5,260.5C 450.692,261.918 450.025,263.918 450.5,266.5C 450.5,266.833 450.5,267.167 450.5,267.5C 448.612,269.988 447.945,272.988 448.5,276.5C 448.5,277.833 448.5,279.167 448.5,280.5C 446.744,281.552 446.077,283.219 446.5,285.5C 446.5,286.167 446.5,286.833 446.5,287.5C 444.656,289.279 443.99,291.612 444.5,294.5C 444.5,295.5 444.5,296.5 444.5,297.5C 442.744,298.552 442.077,300.219 442.5,302.5C 442.5,303.5 442.5,304.5 442.5,305.5C 440.612,307.988 439.945,310.988 440.5,314.5C 440.5,315.5 440.5,316.5 440.5,317.5C 438.744,318.552 438.077,320.219 438.5,322.5C 438.5,323.167 438.5,323.833 438.5,324.5C 437.5,324.5 436.5,324.5 435.5,324.5C 447.67,267.749 459.837,211.083 472,154.5C 472.671,153.748 473.504,153.414 474.5,153.5 Z"></path></g><g><path style="opacity:0.506" fill="#504f4f" d="M 422.5,229.5 C 423.167,229.5 423.833,229.5 424.5,229.5C 419.965,254.704 414.631,279.371 408.5,303.5C 408.5,300.5 408.5,297.5 408.5,294.5C 410.369,292.365 411.036,289.698 410.5,286.5C 410.5,285.167 410.5,283.833 410.5,282.5C 412.308,281.082 412.975,279.082 412.5,276.5C 412.5,275.5 412.5,274.5 412.5,273.5C 414.256,272.448 414.923,270.781 414.5,268.5C 414.5,267.5 414.5,266.5 414.5,265.5C 416.388,263.012 417.055,260.012 416.5,256.5C 418.369,254.365 419.036,251.698 418.5,248.5C 420.369,246.365 421.036,243.698 420.5,240.5C 420.5,239.167 420.5,237.833 420.5,236.5C 422.308,235.082 422.975,233.082 422.5,230.5C 422.5,230.167 422.5,229.833 422.5,229.5 Z"></path></g><g><path style="opacity:0.531" fill="#525151" d="M 730.5,209.5 C 731.167,209.5 731.833,209.5 732.5,209.5C 727.964,232.329 723.298,254.996 718.5,277.5C 718.5,274.5 718.5,271.5 718.5,268.5C 718.5,267.167 718.5,265.833 718.5,264.5C 720.308,263.082 720.975,261.082 720.5,258.5C 720.5,257.5 720.5,256.5 720.5,255.5C 722.344,253.721 723.01,251.388 722.5,248.5C 722.5,247.833 722.5,247.167 722.5,246.5C 724.369,244.365 725.036,241.698 724.5,238.5C 724.5,237.5 724.5,236.5 724.5,235.5C 726.256,234.448 726.923,232.781 726.5,230.5C 726.5,229.167 726.5,227.833 726.5,226.5C 728.308,225.082 728.975,223.082 728.5,220.5C 728.5,219.167 728.5,217.833 728.5,216.5C 730.308,215.082 730.975,213.082 730.5,210.5C 730.5,210.167 730.5,209.833 730.5,209.5 Z"></path></g><g><path style="opacity:0.063" fill="#d0cfcf" d="M 456.5,240.5 C 457.036,243.698 456.369,246.365 454.5,248.5C 453.964,245.302 454.631,242.635 456.5,240.5 Z"></path></g><g><path style="opacity:0.261" fill="#b2b0b0" d="M 724.5,238.5 C 725.036,241.698 724.369,244.365 722.5,246.5C 721.964,243.302 722.631,240.635 724.5,238.5 Z"></path></g><g><path style="opacity:0.255" fill="#504f4f" d="M 781.5,85.5 C 782.391,86.1098 783.391,86.4431 784.5,86.5C 784.157,88.4832 784.824,89.8166 786.5,90.5C 786.5,91.1667 786.5,91.8333 786.5,92.5C 786.5,99.5 786.5,106.5 786.5,113.5C 786.5,113.833 786.5,114.167 786.5,114.5C 784.57,118.373 783.903,122.706 784.5,127.5C 784.5,128.833 784.5,130.167 784.5,131.5C 782.692,132.918 782.025,134.918 782.5,137.5C 782.5,138.167 782.5,138.833 782.5,139.5C 780.656,141.279 779.99,143.612 780.5,146.5C 780.5,147.167 780.5,147.833 780.5,148.5C 778.631,150.635 777.964,153.302 778.5,156.5C 778.5,157.167 778.5,157.833 778.5,158.5C 776.656,160.279 775.99,162.612 776.5,165.5C 776.5,165.833 776.5,166.167 776.5,166.5C 774.656,168.279 773.99,170.612 774.5,173.5C 774.5,174.167 774.5,174.833 774.5,175.5C 772.656,177.279 771.99,179.612 772.5,182.5C 772.5,183.5 772.5,184.5 772.5,185.5C 770.964,187.025 769.964,189.025 769.5,191.5C 768.513,194.768 768.18,198.102 768.5,201.5C 768.5,202.5 768.5,203.5 768.5,204.5C 766.692,205.918 766.025,207.918 766.5,210.5C 766.5,211.833 766.5,213.167 766.5,214.5C 764.692,215.918 764.025,217.918 764.5,220.5C 764.5,221.833 764.5,223.167 764.5,224.5C 762.938,226.372 761.938,228.705 761.5,231.5C 760.516,234.428 760.183,237.428 760.5,240.5C 760.5,241.5 760.5,242.5 760.5,243.5C 758.744,244.552 758.077,246.219 758.5,248.5C 758.5,248.833 758.5,249.167 758.5,249.5C 756.656,251.279 755.99,253.612 756.5,256.5C 756.5,257.5 756.5,258.5 756.5,259.5C 754.744,260.552 754.077,262.219 754.5,264.5C 754.5,265.5 754.5,266.5 754.5,267.5C 752.744,268.552 752.077,270.219 752.5,272.5C 752.5,272.833 752.5,273.167 752.5,273.5C 750.656,275.279 749.99,277.612 750.5,280.5C 750.5,281.5 750.5,282.5 750.5,283.5C 748.744,284.552 748.077,286.219 748.5,288.5C 748.5,289.833 748.5,291.167 748.5,292.5C 746.692,293.918 746.025,295.918 746.5,298.5C 746.5,299.167 746.5,299.833 746.5,300.5C 744.631,302.635 743.964,305.302 744.5,308.5C 744.5,309.5 744.5,310.5 744.5,311.5C 742.656,313.279 741.99,315.612 742.5,318.5C 742.5,320.5 742.5,322.5 742.5,324.5C 741.5,324.5 740.5,324.5 739.5,324.5C 741.207,312.794 743.374,301.127 746,289.5C 755.072,256.814 762.406,223.814 768,190.5C 775.8,161.879 781.633,132.879 785.5,103.5C 785.702,97.0866 784.368,91.0866 781.5,85.5 Z"></path></g><g><path style="opacity:0.025" fill="#e1e0e1" d="M 760.5,243.5 C 760.923,245.781 760.256,247.448 758.5,248.5C 758.077,246.219 758.744,244.552 760.5,243.5 Z"></path></g><g><path style="opacity:0.347" fill="#919090" d="M 420.5,240.5 C 421.036,243.698 420.369,246.365 418.5,248.5C 417.964,245.302 418.631,242.635 420.5,240.5 Z"></path></g><g><path style="opacity:0.086" fill="#d0cfcf" d="M 722.5,248.5 C 723.01,251.388 722.344,253.721 720.5,255.5C 719.99,252.612 720.656,250.279 722.5,248.5 Z"></path></g><g><path style="opacity:0.135" fill="#bdbcbc" d="M 758.5,249.5 C 759.01,252.388 758.344,254.721 756.5,256.5C 755.99,253.612 756.656,251.279 758.5,249.5 Z"></path></g><g><path style="opacity:0.078" fill="#c6c5c5" d="M 454.5,250.5 C 454.975,253.082 454.308,255.082 452.5,256.5C 452.025,253.918 452.692,251.918 454.5,250.5 Z"></path></g><g><path style="opacity:0.082" fill="#403f3f" d="M 526.5,248.5 C 525.032,250.916 524.365,253.583 524.5,256.5C 522.631,254.365 521.964,251.698 522.5,248.5C 523.833,248.5 525.167,248.5 526.5,248.5 Z"></path></g><g><path style="opacity:0.288" fill="#aaa9a9" d="M 418.5,248.5 C 419.036,251.698 418.369,254.365 416.5,256.5C 415.964,253.302 416.631,250.635 418.5,248.5 Z"></path></g><g><path style="opacity:0.422" fill="#f16663" d="M 472.5,256.5 C 471.485,260.469 471.485,264.469 472.5,268.5C 470.45,266.752 469.116,264.419 468.5,261.5C 468.777,258.898 470.111,257.231 472.5,256.5 Z"></path></g><g><path style="opacity:0.124" fill="#c8c7c7" d="M 416.5,256.5 C 417.055,260.012 416.388,263.012 414.5,265.5C 414.336,262.813 414.503,260.146 415,257.5C 415.383,256.944 415.883,256.611 416.5,256.5 Z"></path></g><g><path style="opacity:0.116" fill="#c2c1c1" d="M 720.5,258.5 C 720.975,261.082 720.308,263.082 718.5,264.5C 718.025,261.918 718.692,259.918 720.5,258.5 Z"></path></g><g><path style="opacity:0.021" fill="#e3e2e2" d="M 756.5,259.5 C 756.923,261.781 756.256,263.448 754.5,264.5C 754.077,262.219 754.744,260.552 756.5,259.5 Z"></path></g><g><path style="opacity:0.045" fill="#d7d7d6" d="M 452.5,260.5 C 452.946,263.01 452.28,265.01 450.5,266.5C 450.025,263.918 450.692,261.918 452.5,260.5 Z"></path></g><g><path style="opacity:0.859" fill="#f1595a" d="M 498.5,239.5 C 499.759,246.186 502.093,252.519 505.5,258.5C 508.251,260.91 510.585,263.577 512.5,266.5C 510.801,266.66 509.134,266.494 507.5,266C 501.263,259.023 497.596,250.856 496.5,241.5C 496.747,240.287 497.414,239.62 498.5,239.5 Z"></path></g><g><path style="opacity:0.863" fill="#2b2c2d" d="M 558.5,227.5 C 559.117,227.611 559.617,227.944 560,228.5C 560.01,235.731 561.01,242.731 563,249.5C 563.737,251.596 564.903,253.263 566.5,254.5C 566.5,255.833 567.167,256.5 568.5,256.5C 568.5,257.167 568.5,257.833 568.5,258.5C 568.5,259.833 569.167,260.5 570.5,260.5C 570.5,261.833 571.167,262.5 572.5,262.5C 572.5,263.833 573.167,264.5 574.5,264.5C 574.5,265.833 575.167,266.5 576.5,266.5C 577.406,268.417 578.739,270.083 580.5,271.5C 587.481,276.324 594.814,279.991 602.5,282.5C 600.409,282.318 598.409,282.652 596.5,283.5C 579.946,276.655 567.78,265.322 560,249.5C 559.587,245.66 558.753,241.993 557.5,238.5C 558.116,234.855 558.45,231.188 558.5,227.5 Z"></path></g><g><path style="opacity:0.14" fill="#2d2d2e" d="M 652.5,194.5 C 653.93,194.421 655.264,194.754 656.5,195.5C 669.239,215.051 670.906,235.718 661.5,257.5C 660.5,257.5 659.5,257.5 658.5,257.5C 657.97,260.682 656.97,263.682 655.5,266.5C 654.5,266.5 653.5,266.5 652.5,266.5C 652.5,267.5 652.5,268.5 652.5,269.5C 644.838,275.002 636.505,279.502 627.5,283C 622.538,283.873 617.538,284.373 612.5,284.5C 609.41,284.478 606.743,283.812 604.5,282.5C 627.917,282.959 646.25,273.625 659.5,254.5C 667.728,233.215 665.394,213.215 652.5,194.5 Z"></path></g><g><path style="opacity:0.026" fill="#e2e2e2" d="M 754.5,267.5 C 754.923,269.781 754.256,271.448 752.5,272.5C 752.077,270.219 752.744,268.552 754.5,267.5 Z"></path></g><g><path style="opacity:0.214" fill="#b9b7b7" d="M 414.5,268.5 C 414.923,270.781 414.256,272.448 412.5,273.5C 412.077,271.219 412.744,269.552 414.5,268.5 Z"></path></g><g><path style="opacity:0.01" fill="#d3d3d3" d="M 450.5,267.5 C 451.055,271.012 450.388,274.012 448.5,276.5C 447.945,272.988 448.612,269.988 450.5,267.5 Z"></path></g><g><path style="opacity:0.141" fill="#b8b8b7" d="M 752.5,273.5 C 753.01,276.388 752.344,278.721 750.5,280.5C 749.99,277.612 750.656,275.279 752.5,273.5 Z"></path></g><g><path style="opacity:0.102" fill="#c8c6c6" d="M 412.5,276.5 C 412.975,279.082 412.308,281.082 410.5,282.5C 410.025,279.918 410.692,277.918 412.5,276.5 Z"></path></g><g><path style="opacity:0.033" fill="#e2e1e1" d="M 448.5,280.5 C 448.88,282.698 448.213,284.365 446.5,285.5C 446.077,283.219 446.744,281.552 448.5,280.5 Z"></path></g><g><path style="opacity:0.357" fill="#363636" d="M 678.5,267.5 C 680.856,273.217 683.523,278.883 686.5,284.5C 686.593,287.575 685.26,289.575 682.5,290.5C 682.827,288.512 683.16,286.512 683.5,284.5C 682.091,281.1 680.591,277.767 679,274.5C 678.503,272.19 678.337,269.857 678.5,267.5 Z"></path></g><g><path style="opacity:0.036" fill="#c6c4c4" d="M 750.5,283.5 C 750.923,285.781 750.256,287.448 748.5,288.5C 748.077,286.219 748.744,284.552 750.5,283.5 Z"></path></g><g><path style="opacity:0.108" fill="#c2c0c0" d="M 446.5,287.5 C 447.01,290.388 446.344,292.721 444.5,294.5C 443.99,291.612 444.656,289.279 446.5,287.5 Z"></path></g><g><path style="opacity:0.284" fill="#2d2d2e" d="M 682.5,290.5 C 681.118,293.544 678.785,295.544 675.5,296.5C 670.288,295.215 665.288,293.215 660.5,290.5C 658.5,291.5 656.5,292.5 654.5,293.5C 651.843,296.206 649.843,299.206 648.5,302.5C 648.423,294.069 652.589,289.069 661,287.5C 665.6,289.804 670.267,291.804 675,293.5C 677.222,291.806 679.722,290.806 682.5,290.5 Z"></path></g><g><path style="opacity:0.335" fill="#979696" d="M 410.5,286.5 C 411.036,289.698 410.369,292.365 408.5,294.5C 407.964,291.302 408.631,288.635 410.5,286.5 Z"></path></g><g><path style="opacity:0.526" fill="#2e2e2f" d="M 548.5,270.5 C 552.548,270.724 554.215,272.891 553.5,277C 552.792,282.606 550.792,287.772 547.5,292.5C 550.24,296.409 553.74,299.409 558,301.5C 561.085,299.042 564.252,296.709 567.5,294.5C 570.784,293.343 574.118,293.176 577.5,294C 580.615,296.274 583.615,298.774 586.5,301.5C 587.493,306.12 587.827,310.786 587.5,315.5C 590.049,316.509 592.715,317.342 595.5,318C 596.252,318.671 596.586,319.504 596.5,320.5C 592.335,320.556 588.669,319.223 585.5,316.5C 584.833,311.833 584.167,307.167 583.5,302.5C 579.773,297.086 574.773,295.419 568.5,297.5C 564.97,300.096 561.303,302.429 557.5,304.5C 553.95,302.959 550.95,300.626 548.5,297.5C 547.311,296.571 545.978,296.238 544.5,296.5C 544.5,294.5 544.5,292.5 544.5,290.5C 545.833,290.5 546.5,289.833 546.5,288.5C 546.5,287.833 546.5,287.167 546.5,286.5C 548.048,286.179 548.715,285.179 548.5,283.5C 548.5,283.167 548.5,282.833 548.5,282.5C 549.777,281.306 550.444,279.64 550.5,277.5C 550.444,275.36 549.777,273.694 548.5,272.5C 548.5,271.833 548.5,271.167 548.5,270.5 Z"></path></g><g><path style="opacity:0.375" fill="#818080" d="M 718.5,268.5 C 718.5,271.5 718.5,274.5 718.5,277.5C 714.864,292.909 711.864,308.576 709.5,324.5C 708.5,324.5 707.5,324.5 706.5,324.5C 706.335,321.482 706.502,318.482 707,315.5C 708.47,310.954 709.636,306.288 710.5,301.5C 712.256,300.448 712.923,298.781 712.5,296.5C 712.335,293.482 712.502,290.482 713,287.5C 714.158,280.811 715.991,274.478 718.5,268.5 Z"></path></g><g><path style="opacity:0.055" fill="#d5d4d4" d="M 748.5,292.5 C 748.975,295.082 748.308,297.082 746.5,298.5C 746.025,295.918 746.692,293.918 748.5,292.5 Z"></path></g><g><path style="opacity:0.116" fill="#dddcdc" d="M 712.5,296.5 C 712.923,298.781 712.256,300.448 710.5,301.5C 710.077,299.219 710.744,297.552 712.5,296.5 Z"></path></g><g><path style="opacity:0.052" fill="#c5c4c4" d="M 444.5,297.5 C 444.923,299.781 444.256,301.448 442.5,302.5C 442.077,300.219 442.744,298.552 444.5,297.5 Z"></path></g><g><path style="opacity:0.267" fill="#a5a4a4" d="M 408.5,294.5 C 408.5,297.5 408.5,300.5 408.5,303.5C 407.833,303.5 407.167,303.5 406.5,303.5C 405.945,299.988 406.612,296.988 408.5,294.5 Z"></path></g><g><path style="opacity:0.382" fill="#f25559" d="M 543.5,272.5 C 545.167,272.5 546.833,272.5 548.5,272.5C 548.5,275.833 548.5,279.167 548.5,282.5C 548.5,282.833 548.5,283.167 548.5,283.5C 547.094,283.973 546.427,284.973 546.5,286.5C 546.5,287.167 546.5,287.833 546.5,288.5C 545.167,288.5 544.5,289.167 544.5,290.5C 538.832,294.503 534.166,299.503 530.5,305.5C 526.555,306.491 522.555,306.824 518.5,306.5C 517.509,302.537 516.509,298.537 515.5,294.5C 512.624,290.659 508.957,289.659 504.5,291.5C 498.729,297.847 493.063,297.513 487.5,290.5C 487.167,289.167 486.833,287.833 486.5,286.5C 488.334,283.005 489.667,279.338 490.5,275.5C 491.649,275.791 492.316,276.624 492.5,278C 492.032,280.868 491.032,283.534 489.5,286C 490.516,289.664 493.016,291.497 497,291.5C 500.747,290.389 504.581,289.389 508.5,288.5C 510.375,288.63 512.208,288.963 514,289.5C 518.247,293.201 520.747,297.868 521.5,303.5C 524.167,303.5 526.833,303.5 529.5,303.5C 529.608,301.217 530.441,299.217 532,297.5C 537.489,294.179 541.322,289.513 543.5,283.5C 544.5,283.5 545.5,283.5 546.5,283.5C 546.5,280.5 546.5,277.5 546.5,274.5C 544.821,274.715 543.821,274.048 543.5,272.5 Z"></path></g><g><path style="opacity:0.012" fill="#d4d3d3" d="M 746.5,300.5 C 747.036,303.698 746.369,306.365 744.5,308.5C 743.964,305.302 744.631,302.635 746.5,300.5 Z"></path></g><g><path style="opacity:0.116" fill="#cfcdcd" d="M 406.5,304.5 C 406.923,306.781 406.256,308.448 404.5,309.5C 404.077,307.219 404.744,305.552 406.5,304.5 Z"></path></g><g><path style="opacity:0.498" fill="#606060" d="M 406.5,303.5 C 407.167,303.5 407.833,303.5 408.5,303.5C 407,310.421 406,317.421 405.5,324.5C 404.5,324.5 403.5,324.5 402.5,324.5C 402.523,319.394 403.189,314.394 404.5,309.5C 406.256,308.448 406.923,306.781 406.5,304.5C 406.5,304.167 406.5,303.833 406.5,303.5 Z"></path></g><g><path style="opacity:0.141" fill="#c1c0c0" d="M 442.5,305.5 C 442.664,308.187 442.497,310.854 442,313.5C 441.617,314.056 441.117,314.389 440.5,314.5C 439.945,310.988 440.612,307.988 442.5,305.5 Z"></path></g><g><path style="opacity:0.112" fill="#b7b4b4" d="M 744.5,311.5 C 745.01,314.388 744.344,316.721 742.5,318.5C 741.99,315.612 742.656,313.279 744.5,311.5 Z"></path></g><g><path style="opacity:0.471" fill="#313132" d="M 648.5,304.5 C 649.777,305.694 650.444,307.36 650.5,309.5C 650.167,311.167 649.833,312.833 649.5,314.5C 644.234,317.82 638.567,318.82 632.5,317.5C 630.01,314.051 627.343,310.718 624.5,307.5C 614.7,303.691 608.366,306.691 605.5,316.5C 604.534,318.396 604.201,320.396 604.5,322.5C 603.5,322.5 602.5,322.5 601.5,322.5C 601.34,320.801 601.506,319.134 602,317.5C 604.063,313.604 605.896,309.604 607.5,305.5C 613.13,304.479 618.796,304.313 624.5,305C 626.918,305.915 628.918,307.415 630.5,309.5C 631.578,313.362 634.078,315.362 638,315.5C 641.432,314.584 644.932,313.917 648.5,313.5C 648.5,310.5 648.5,307.5 648.5,304.5 Z"></path></g><g><path style="opacity:0.025" fill="#e9e8e8" d="M 440.5,317.5 C 440.923,319.781 440.256,321.448 438.5,322.5C 438.077,320.219 438.744,318.552 440.5,317.5 Z"></path></g><g><path style="opacity:0.787" fill="#ed1e3d" d="M 441.5,424.5 C 441.5,423.167 441.5,421.833 441.5,420.5C 440.178,420.67 439.011,420.337 438,419.5C 437.501,414.511 437.334,409.511 437.5,404.5C 441.833,404.5 446.167,404.5 450.5,404.5C 450.181,394.584 450.514,384.75 451.5,375C 449.717,373.268 447.717,371.768 445.5,370.5C 441.564,366.03 441.564,361.53 445.5,357C 451.324,353.272 456.657,353.772 461.5,358.5C 466.343,353.772 471.676,353.272 477.5,357C 481.94,364.812 479.94,370.646 471.5,374.5C 470.667,387.487 470.167,400.487 470,413.5C 469.02,415.059 468.187,416.726 467.5,418.5C 459.564,423.43 450.897,425.43 441.5,424.5 Z M 460.5,368.5 C 459.404,370.767 457.737,372.6 455.5,374C 459.211,374.825 462.878,374.659 466.5,373.5C 464.753,371.41 462.753,369.743 460.5,368.5 Z"></path></g><g><path style="opacity:0.78" fill="#ed1d3d" d="M 658.5,374.5 C 671.184,374.168 683.851,374.501 696.5,375.5C 701.197,375.72 704.197,378.054 705.5,382.5C 706.666,395.821 706.833,409.154 706,422.5C 705.5,423 705,423.5 704.5,424C 689.5,424.667 674.5,424.667 659.5,424C 658.522,417.59 658.189,411.09 658.5,404.5C 667.833,404.5 677.167,404.5 686.5,404.5C 686.927,401.212 686.26,398.212 684.5,395.5C 675.859,394.502 667.192,394.169 658.5,394.5C 658.5,387.833 658.5,381.167 658.5,374.5 Z"></path></g><g><path style="opacity:0.817" fill="#b0162e" d="M 435.5,404.5 C 436.167,404.5 436.833,404.5 437.5,404.5C 437.334,409.511 437.501,414.511 438,419.5C 439.011,420.337 440.178,420.67 441.5,420.5C 441.5,421.833 441.5,423.167 441.5,424.5C 440.833,424.5 440.167,424.5 439.5,424.5C 438.817,422.824 437.483,422.157 435.5,422.5C 435.5,416.5 435.5,410.5 435.5,404.5 Z"></path></g><g><path style="opacity:0.565" fill="#000001" d="M 584.5,426.5 C 590.149,425.661 594.482,427.661 597.5,432.5C 598.679,442.819 594.013,447.319 583.5,446C 578.844,442.593 577.511,438.093 579.5,432.5C 580.606,429.865 582.273,427.865 584.5,426.5 Z"></path></g><g><path style="opacity:0.593" fill="#000000" d="M 628.5,426.5 C 633.155,425.994 637.155,427.327 640.5,430.5C 643.382,428.892 646.382,427.559 649.5,426.5C 657.911,428.686 660.578,434.02 657.5,442.5C 652.167,447.833 646.833,447.833 641.5,442.5C 636.251,446.898 630.584,447.564 624.5,444.5C 623.858,441.865 623.191,439.198 622.5,436.5C 622.833,435.167 623.167,433.833 623.5,432.5C 625.59,430.753 627.257,428.753 628.5,426.5 Z"></path></g><g><path style="opacity:0.702" fill="#010102" d="M 558.5,570.5 C 569.172,571.701 579.839,571.701 590.5,570.5C 707.167,570.5 823.833,570.5 940.5,570.5C 940.5,574.5 940.5,578.5 940.5,582.5C 779.167,582.5 617.833,582.5 456.5,582.5C 456.333,545.832 456.5,509.165 457,472.5C 457.5,472 458,471.5 458.5,471C 599.79,472.468 741.123,472.968 882.5,472.5C 882.8,477.099 882.467,481.599 881.5,486C 744.5,486.5 607.5,486.667 470.5,486.5C 470.5,514.5 470.5,542.5 470.5,570.5C 499.833,570.5 529.167,570.5 558.5,570.5 Z"></path></g><g><path style="opacity:0.603" fill="#221f20" d="M 698.5,490.5 C 702.5,490.5 706.5,490.5 710.5,490.5C 710.667,511.836 710.5,533.169 710,554.5C 706.558,556.733 702.892,557.067 699,555.5C 698.5,533.836 698.333,512.169 698.5,490.5 Z"></path></g><g><path style="opacity:0.629" fill="#ed1d3d" d="M 488.5,492.5 C 497.192,492.169 505.859,492.502 514.5,493.5C 519.892,495.03 524.892,497.363 529.5,500.5C 531.496,503.824 533.496,507.157 535.5,510.5C 541.704,540.459 529.538,555.792 499,556.5C 495.167,556.333 491.333,556.167 487.5,556C 486.975,555.308 486.308,554.808 485.5,554.5C 484.5,534.511 484.167,514.511 484.5,494.5C 486.483,494.843 487.817,494.176 488.5,492.5 Z M 496.5,502.5 C 518.474,500.808 527.474,510.808 523.5,532.5C 517.763,543.194 508.763,547.861 496.5,546.5C 496.5,531.833 496.5,517.167 496.5,502.5 Z"></path></g><g><path style="opacity:0.476" fill="#231f20" d="M 542.5,492.5 C 545.932,492.757 549.266,493.424 552.5,494.5C 552.82,497.898 552.487,501.232 551.5,504.5C 545.013,508.32 540.68,506.653 538.5,499.5C 539.457,496.895 540.79,494.561 542.5,492.5 Z"></path></g><g><path style="opacity:0.461" fill="#1f1f1f" d="M 616.5,494.5 C 616.5,497.833 616.5,501.167 616.5,504.5C 611.695,507.427 607.195,507.094 603,503.5C 601.607,497.727 603.774,494.06 609.5,492.5C 611.777,493.478 614.11,494.145 616.5,494.5 Z"></path></g><g><path style="opacity:0.624" fill="#ee1d3d" d="M 616.5,504.5 C 616.5,501.167 616.5,497.833 616.5,494.5C 631.464,492.516 646.797,491.849 662.5,492.5C 662.5,496.5 662.5,500.5 662.5,504.5C 657.167,504.5 651.833,504.5 646.5,504.5C 646.833,521.18 646.499,537.847 645.5,554.5C 642.193,556.684 638.693,557.017 635,555.5C 634.5,538.503 634.333,521.503 634.5,504.5C 628.5,504.5 622.5,504.5 616.5,504.5 Z"></path></g><g><path style="opacity:0.594" fill="#221f20" d="M 540.5,508.5 C 544.5,508.5 548.5,508.5 552.5,508.5C 552.667,524.17 552.5,539.837 552,555.5C 548.333,556.833 544.667,556.833 541,555.5C 540.5,539.837 540.333,524.17 540.5,508.5 Z"></path></g><g><path style="opacity:0.601" fill="#231f20" d="M 590.5,570.5 C 579.839,571.701 569.172,571.701 558.5,570.5C 558.757,567.068 559.424,563.734 560.5,560.5C 565.117,561.328 569.783,561.994 574.5,562.5C 580.652,563.601 584.652,561.268 586.5,555.5C 586.167,554.5 585.833,553.5 585.5,552.5C 577.199,557.546 569.199,556.879 561.5,550.5C 560.663,548.156 559.329,546.156 557.5,544.5C 556.934,540.319 555.934,536.319 554.5,532.5C 555.674,527.075 557.34,521.742 559.5,516.5C 566.292,509.095 574.625,506.761 584.5,509.5C 587.145,513.835 588.478,513.502 588.5,508.5C 591.833,508.5 595.167,508.5 598.5,508.5C 598.833,525.18 598.499,541.847 597.5,558.5C 596.833,560.5 596.167,562.5 595.5,564.5C 593.41,566.247 591.743,568.247 590.5,570.5 Z M 574.5,518.5 C 578.894,517.907 582.56,519.24 585.5,522.5C 586.833,528.5 586.833,534.5 585.5,540.5C 580.167,545.833 574.833,545.833 569.5,540.5C 568.697,537.756 567.697,535.089 566.5,532.5C 568.244,528.601 569.578,524.601 570.5,520.5C 572.483,520.843 573.817,520.176 574.5,518.5 Z"></path></g><g><path style="opacity:0.571" fill="#231f20" d="M 604.5,508.5 C 608.5,508.5 612.5,508.5 616.5,508.5C 616.667,523.837 616.5,539.17 616,554.5C 612.558,556.733 608.892,557.067 605,555.5C 604.5,539.837 604.333,524.17 604.5,508.5 Z"></path></g><g><path style="opacity:0.58" fill="#231f20" d="M 666.5,508.5 C 687.208,506.542 696.542,515.875 694.5,536.5C 684.478,536.168 674.478,536.501 664.5,537.5C 667.155,543.501 671.822,546.501 678.5,546.5C 682.524,545.821 686.524,545.154 690.5,544.5C 691.576,547.734 692.243,551.068 692.5,554.5C 682.391,557.488 672.391,557.155 662.5,553.5C 655.851,547.201 652.684,539.534 653,530.5C 653.979,526.114 655.312,521.78 657,517.5C 659.781,513.88 662.948,510.88 666.5,508.5 Z M 670.5,518.5 C 677.257,517.282 681.257,519.949 682.5,526.5C 677.167,526.5 671.833,526.5 666.5,526.5C 666.966,523.376 668.299,520.71 670.5,518.5 Z"></path></g></svg>